999
dxflib 3.12.2.0
  0
SECTION
  2
HEADER
  9
$ACADVER
  1
AC1015
  9
$HANDSEED
  5
FFFF
  9
$DIMADEC
 70
0
  9
$DIMASZ
 40
2.5
  9
$DIMAUNIT
 70
0
  9
$DIMAZIN
 70
2
  9
$DIMDEC
 70
4
  9
$DIMEXE
 40
1.25
  9
$DIMEXO
 40
0.625
  9
$DIMGAP
 40
0.625
  9
$DIMLUNIT
 70
2
  9
$DIMSCALE
 40
1.0
  9
$DIMTSZ
 40
0.0
  9
$DIMTXT
 40
2.5
  9
$DIMZIN
 70
8
  9
$DWGCODEPAGE
  3
ANSI_1252
  9
$INSUNITS
 70
4
  9
$LTSCALE
 40
1.0
  9
$MEASUREMENT
 70
1
  9
$PDMODE
 70
0
  9
$PDSIZE
 40
0
  0
ENDSEC
  0
SECTION
  2
TABLES
  0
TABLE
  2
VPORT
  5
8
100
AcDbSymbolTable
 70
1
  0
VPORT
  5
30
100
AcDbSymbolTableRecord
100
AcDbViewportTableRecord
  2
*Active
 70
0
 10
0.0
 20
0.0
 11
1.0
 21
1.0
 12
286.3055555555554861
 22
148.5
 13
0.0
 23
0.0
 14
10.0
 24
10.0
 15
10.0
 25
10.0
 16
0.0
 26
0.0
 36
1.0
 17
0.0
 27
0.0
 37
0.0
 40
297.0
 41
1.92798353909465
 42
50.0
 43
0.0
 44
0.0
 50
0.0
 51
0.0
 71
0
 72
100
 73
1
 74
3
 75
1
 76
1
 77
0
 78
0
281
0
 65
1
110
0.0
120
0.0
130
0.0
111
1.0
121
0.0
131
0.0
112
0.0
122
1.0
132
0.0
 79
0
146
0.0
  0
ENDTAB
  0
TABLE
  2
LTYPE
  5
5
100
AcDbSymbolTable
 70
54
  0
LTYPE
  5
16
100
AcDbSymbolTableRecord
100
AcDbLinetypeTableRecord
  2
Continuous
 70
0
  3
Solid line
 72
65
 73
0
 40
0.0
  0
LTYPE
  5
31
100
AcDbSymbolTableRecord
100
AcDbLinetypeTableRecord
  2
ACAD_ISO15W100
 70
0
  3
ISO double-dash triple-dot __ __ . . . __ __ . .
 72
65
 73
10
 40
39.0
 49
12.0
 74
0
 49
-3.0
 74
0
 49
12.0
 74
0
 49
-3.0
 74
0
 49
0.0
 74
0
 49
-3.0
 74
0
 49
0.0
 74
0
 49
-3.0
 74
0
 49
0.0
 74
0
 49
-3.0
 74
0
  0
LTYPE
  5
32
100
AcDbSymbolTableRecord
100
AcDbLinetypeTableRecord
  2
CUTRIGHT2
 70
0
  3
G42 reversed----\----\----\----
 72
65
 73
2
 40
10.1600000000000001
 49
5.0800000000000001
 74
0
 49
5.0800000000000001
 74
0
  0
LTYPE
  5
33
100
AcDbSymbolTableRecord
100
AcDbLinetypeTableRecord
  2
HOT_WATER_SUPPLY
 70
0
  3
Hot water supply ---- HW ---- HW ---- HW ----
 72
65
 73
3
 40
22.8599999999999994
 49
12.6999999999999993
 74
0
 49
-5.0800000000000001
 74
0
 49
-5.0800000000000001
 74
0
  0
LTYPE
  5
34
100
AcDbSymbolTableRecord
100
AcDbLinetypeTableRecord
  2
DIVIDE
 70
0
  3
Divide ____ . . ____ . . ____ . . ____ . . ____
 72
65
 73
6
 40
31.75
 49
12.6999999999999993
 74
0
 49
-6.3499999999999996
 74
0
 49
0.0
 74
0
 49
-6.3499999999999996
 74
0
 49
0.0
 74
0
 49
-6.3499999999999996
 74
0
  0
LTYPE
  5
35
100
AcDbSymbolTableRecord
100
AcDbLinetypeTableRecord
  2
CUTRIGHT
 70
0
  3
G42 ----/----/-----/---
 72
65
 73
2
 40
10.1600000000000001
 49
5.0800000000000001
 74
0
 49
5.0800000000000001
 74
0
  0
LTYPE
  5
36
100
AcDbSymbolTableRecord
100
AcDbLinetypeTableRecord
  2
ACAD_ISO10W100
 70
0
  3
ISO dash dot __ . __ . __ . __ . __ . __ . __ . 
 72
65
 73
4
 40
18.0
 49
12.0
 74
0
 49
-3.0
 74
0
 49
0.0
 74
0
 49
-3.0
 74
0
  0
LTYPE
  5
37
100
AcDbSymbolTableRecord
100
AcDbLinetypeTableRecord
  2
CUTLEFT
 70
0
  3
G41 ----\----\----\----
 72
65
 73
2
 40
10.1600000000000001
 49
5.0800000000000001
 74
0
 49
5.0800000000000001
 74
0
  0
LTYPE
  5
38
100
AcDbSymbolTableRecord
100
AcDbLinetypeTableRecord
  2
GAS_LINE
 70
0
  3
Gas line ----GAS----GAS----GAS----GAS----GAS----GAS--
 72
65
 73
3
 40
24.1300000000000026
 49
12.6999999999999993
 74
0
 49
-5.0800000000000001
 74
0
 49
-6.3499999999999996
 74
0
  0
LTYPE
  5
39
100
AcDbSymbolTableRecord
100
AcDbLinetypeTableRecord
  2
ACAD_ISO04W100
 70
0
  3
ISO long-dash dot ____ . ____ . ____ . ____ . _
 72
65
 73
4
 40
30.0
 49
24.0
 74
0
 49
-3.0
 74
0
 49
0.0
 74
0
 49
-3.0
 74
0
  0
LTYPE
  5
3A
100
AcDbSymbolTableRecord
100
AcDbLinetypeTableRecord
  2
CUTLEFT2
 70
0
  3
G41 reversed----/----/----/----
 72
65
 73
2
 40
10.1600000000000001
 49
5.0800000000000001
 74
0
 49
5.0800000000000001
 74
0
  0
LTYPE
  5
3B
100
AcDbSymbolTableRecord
100
AcDbLinetypeTableRecord
  2
CENTER2
 70
0
  3
Center (.5x) ___ _ ___ _ ___ _ ___ _ ___ _ ___
 72
65
 73
4
 40
28.5750000000000028
 49
19.0500000000000007
 74
0
 49
-3.1749999999999998
 74
0
 49
3.1749999999999998
 74
0
 49
-3.1749999999999998
 74
0
  0
LTYPE
  5
3C
100
AcDbSymbolTableRecord
100
AcDbLinetypeTableRecord
  2
ACAD_ISO11W100
 70
0
  3
ISO double-dash dot __ __ . __ __ . __ __ . __ _
 72
65
 73
6
 40
33.0
 49
12.0
 74
0
 49
-3.0
 74
0
 49
12.0
 74
0
 49
-3.0
 74
0
 49
0.0
 74
0
 49
-3.0
 74
0
  0
LTYPE
  5
3D
100
AcDbSymbolTableRecord
100
AcDbLinetypeTableRecord
  2
HIDDEN2
 70
0
  3
Hidden (.5x) _ _ _ _ _ _ _ _ _ _ _ _ _ _ _ _ _ 
 72
65
 73
2
 40
4.7624999999999993
 49
3.1749999999999998
 74
0
 49
-1.5874999999999999
 74
0
  0
LTYPE
  5
3E
100
AcDbSymbolTableRecord
100
AcDbLinetypeTableRecord
  2
BORDERX2
 70
0
  3
Border (2x) ____  ____  .  ____  ____  .  ___
 72
65
 73
6
 40
88.8999999999999915
 49
25.3999999999999986
 74
0
 49
-12.6999999999999993
 74
0
 49
25.3999999999999986
 74
0
 49
-12.6999999999999993
 74
0
 49
0.0
 74
0
 49
-12.6999999999999993
 74
0
  0
LTYPE
  5
3F
100
AcDbSymbolTableRecord
100
AcDbLinetypeTableRecord
  2
ACAD_ISO05W100
 70
0
  3
ISO long-dash double-dot ____ .. ____ .. ____ . 
 72
65
 73
6
 40
33.0
 49
24.0
 74
0
 49
-3.0
 74
0
 49
0.0
 74
0
 49
-3.0
 74
0
 49
0.0
 74
0
 49
-3.0
 74
0
  0
LTYPE
  5
40
100
AcDbSymbolTableRecord
100
AcDbLinetypeTableRecord
  2
DASHDOTX2
 70
0
  3
Dash dot (2x) ____  .  ____  .  ____  .  ___
 72
65
 73
4
 40
50.7999999999999972
 49
25.3999999999999986
 74
0
 49
-12.6999999999999993
 74
0
 49
0.0
 74
0
 49
-12.6999999999999993
 74
0
  0
LTYPE
  5
41
100
AcDbSymbolTableRecord
100
AcDbLinetypeTableRecord
  2
HIDDENX2
 70
0
  3
Hidden (2x) ____ ____ ____ ____ ____ ____ ____ 
 72
65
 73
2
 40
19.0499999999999972
 49
12.6999999999999993
 74
0
 49
-6.3499999999999996
 74
0
  0
LTYPE
  5
42
100
AcDbSymbolTableRecord
100
AcDbLinetypeTableRecord
  2
CENTERX2
 70
0
  3
Center (2x) ________  __  ________  __  _____
 72
65
 73
4
 40
101.6000000000000085
 49
63.5
 74
0
 49
-12.6999999999999993
 74
0
 49
12.6999999999999993
 74
0
 49
-12.6999999999999993
 74
0
  0
LTYPE
  5
43
100
AcDbSymbolTableRecord
100
AcDbLinetypeTableRecord
  2
BORDER2
 70
0
  3
Border (.5x) __.__.__.__.__.__.__.__.__.__.__.
 72
65
 73
6
 40
22.2249999999999979
 49
6.3499999999999996
 74
0
 49
-3.1749999999999998
 74
0
 49
6.3499999999999996
 74
0
 49
-3.1749999999999998
 74
0
 49
0.0
 74
0
 49
-3.1749999999999998
 74
0
  0
LTYPE
  5
44
100
AcDbSymbolTableRecord
100
AcDbLinetypeTableRecord
  2
DASHDOT2
 70
0
  3
Dash dot (.5x) _._._._._._._._._._._._._._._.
 72
65
 73
4
 40
12.6999999999999993
 49
6.3499999999999996
 74
0
 49
-3.1749999999999998
 74
0
 49
0.0
 74
0
 49
-3.1749999999999998
 74
0
  0
LTYPE
  5
45
100
AcDbSymbolTableRecord
100
AcDbLinetypeTableRecord
  2
ACAD_ISO12W100
 70
0
  3
ISO dash double-dot __ . . __ . . __ . . __ . . 
 72
65
 73
6
 40
21.0
 49
12.0
 74
0
 49
-3.0
 74
0
 49
0.0
 74
0
 49
-3.0
 74
0
 49
0.0
 74
0
 49
-3.0
 74
0
  0
LTYPE
  5
46
100
AcDbSymbolTableRecord
100
AcDbLinetypeTableRecord
  2
ACAD_ISO07W100
 70
0
  3
ISO dot . . . . . . . . . . . . . . . . . . . . 
 72
65
 73
2
 40
3.0
 49
0.0
 74
0
 49
-3.0
 74
0
  0
LTYPE
  5
47
100
AcDbSymbolTableRecord
100
AcDbLinetypeTableRecord
  2
ACAD_ISO06W100
 70
0
  3
ISO long-dash triple-dot ____ ... ____ ... ____
 72
65
 73
8
 40
36.0
 49
24.0
 74
0
 49
-3.0
 74
0
 49
0.0
 74
0
 49
-3.0
 74
0
 49
0.0
 74
0
 49
-3.0
 74
0
 49
0.0
 74
0
 49
-3.0
 74
0
  0
LTYPE
  5
48
100
AcDbSymbolTableRecord
100
AcDbLinetypeTableRecord
  2
CENTER
 70
0
  3
Center ____ _ ____ _ ____ _ ____ _ ____ _ ____
 72
65
 73
4
 40
50.8000000000000043
 49
31.75
 74
0
 49
-6.3499999999999996
 74
0
 49
6.3499999999999996
 74
0
 49
-6.3499999999999996
 74
0
  0
LTYPE
  5
49
100
AcDbSymbolTableRecord
100
AcDbLinetypeTableRecord
  2
HIDDEN
 70
0
  3
Hidden __ __ __ __ __ __ __ __ __ __ __ __ __ __
 72
65
 73
2
 40
9.5249999999999986
 49
6.3499999999999996
 74
0
 49
-3.1749999999999998
 74
0
  0
LTYPE
  5
4A
100
AcDbSymbolTableRecord
100
AcDbLinetypeTableRecord
  2
DOTX2
 70
0
  3
Dot (2x) .  .  .  .  .  .  .  .  .  .  .  .  .  .
 72
65
 73
2
 40
12.6999999999999993
 49
0.0
 74
0
 49
-12.6999999999999993
 74
0
  0
LTYPE
  5
4B
100
AcDbSymbolTableRecord
100
AcDbLinetypeTableRecord
  2
PHANTOM
 70
0
  3
Phantom ______  __  __  ______  __  __  ______ 
 72
65
 73
6
 40
63.5000000000000071
 49
31.75
 74
0
 49
-6.3499999999999996
 74
0
 49
6.3499999999999996
 74
0
 49
-6.3499999999999996
 74
0
 49
6.3499999999999996
 74
0
 49
-6.3499999999999996
 74
0
  0
LTYPE
  5
4C
100
AcDbSymbolTableRecord
100
AcDbLinetypeTableRecord
  2
ACAD_ISO08W100
 70
0
  3
ISO long-dash short-dash ____ __ ____ __ ____ _
 72
65
 73
4
 40
36.0
 49
24.0
 74
0
 49
-3.0
 74
0
 49
6.0
 74
0
 49
-3.0
 74
0
  0
LTYPE
  5
4D
100
AcDbSymbolTableRecord
100
AcDbLinetypeTableRecord
  2
DASHEDX2
 70
0
  3
Dashed (2x) ____  ____  ____  ____  ____  ___
 72
65
 73
2
 40
38.0999999999999943
 49
25.3999999999999986
 74
0
 49
-12.6999999999999993
 74
0
  0
LTYPE
  5
4E
100
AcDbSymbolTableRecord
100
AcDbLinetypeTableRecord
  2
DRAINAGE
 70
0
  3
Drainage ---->---->---->----
 72
65
 73
2
 40
10.1600000000000001
 49
5.0800000000000001
 74
0
 49
5.0800000000000001
 74
0
  0
LTYPE
  5
4F
100
AcDbSymbolTableRecord
100
AcDbLinetypeTableRecord
  2
ACAD_ISO02W100
 70
0
  3
ISO dash __ __ __ __ __ __ __ __ __ __ __ __ __
 72
65
 73
2
 40
15.0
 49
12.0
 74
0
 49
-3.0
 74
0
  0
LTYPE
  5
50
100
AcDbSymbolTableRecord
100
AcDbLinetypeTableRecord
  2
PHANTOM2
 70
0
  3
Phantom (.5x) ___ _ _ ___ _ _ ___ _ _ ___ _ _
 72
65
 73
6
 40
31.7500000000000036
 49
15.875
 74
0
 49
-3.1749999999999998
 74
0
 49
3.1749999999999998
 74
0
 49
-3.1749999999999998
 74
0
 49
3.1749999999999998
 74
0
 49
-3.1749999999999998
 74
0
  0
LTYPE
  5
51
100
AcDbSymbolTableRecord
100
AcDbLinetypeTableRecord
  2
DASHED2
 70
0
  3
Dashed (.5x) _ _ _ _ _ _ _ _ _ _ _ _ _ _ _ _ _ 
 72
65
 73
2
 40
9.5249999999999986
 49
6.3499999999999996
 74
0
 49
-3.1749999999999998
 74
0
  0
LTYPE
  5
52
100
AcDbSymbolTableRecord
100
AcDbLinetypeTableRecord
  2
ACAD_ISO09W100
 70
0
  3
ISO long-dash double-short-dash ____ __ __ ____
 72
65
 73
6
 40
45.0
 49
24.0
 74
0
 49
-3.0
 74
0
 49
6.0
 74
0
 49
-3.0
 74
0
 49
6.0
 74
0
 49
-3.0
 74
0
  0
LTYPE
  5
53
100
AcDbSymbolTableRecord
100
AcDbLinetypeTableRecord
  2
ACAD_ISO13W100
 70
0
  3
ISO double-dash double-dot __ __ . . __ __ . . _
 72
65
 73
8
 40
36.0
 49
12.0
 74
0
 49
-3.0
 74
0
 49
12.0
 74
0
 49
-3.0
 74
0
 49
0.0
 74
0
 49
-3.0
 74
0
 49
0.0
 74
0
 49
-3.0
 74
0
  0
LTYPE
  5
54
100
AcDbSymbolTableRecord
100
AcDbLinetypeTableRecord
  2
TRACKS
 70
0
  3
Tracks -|-|-|-|-|-|-|-|-|-|-|-|-|-|-|-|-|-|-|-|-|-|-|-|-
 72
65
 73
2
 40
7.6200000000000001
 49
3.8100000000000001
 74
0
 49
3.8100000000000001
 74
0
  0
LTYPE
  5
55
100
AcDbSymbolTableRecord
100
AcDbLinetypeTableRecord
  2
DRAINAGE2
 70
0
  3
Drainage reversed----<----<----<----
 72
65
 73
2
 40
10.1600000000000001
 49
5.0800000000000001
 74
0
 49
5.0800000000000001
 74
0
  0
LTYPE
  5
56
100
AcDbSymbolTableRecord
100
AcDbLinetypeTableRecord
  2
DOT2
 70
0
  3
Dot (.5x) ........................................
 72
65
 73
2
 40
3.1749999999999998
 49
0.0
 74
0
 49
-3.1749999999999998
 74
0
  0
LTYPE
  5
57
100
AcDbSymbolTableRecord
100
AcDbLinetypeTableRecord
  2
ZIGZAG
 70
0
  3
Zig zag /\/\/\/\/\/\/\/\/\/\/\/\/\/\/\/\/\/\/\/\/\/\/\/
 72
65
 73
4
 40
20.32254
 49
0.00254
 74
0
 49
-5.0800000000000001
 74
0
 49
-10.1600000000000001
 74
0
 49
-5.0800000000000001
 74
0
  0
LTYPE
  5
58
100
AcDbSymbolTableRecord
100
AcDbLinetypeTableRecord
  2
DASHED
 70
0
  3
Dashed __ __ __ __ __ __ __ __ __ __ __ __ __ _
 72
65
 73
2
 40
19.0499999999999972
 49
12.6999999999999993
 74
0
 49
-6.3499999999999996
 74
0
  0
LTYPE
  5
59
100
AcDbSymbolTableRecord
100
AcDbLinetypeTableRecord
  2
ACAD_ISO14W100
 70
0
  3
ISO dash triple-dot __ . . . __ . . . __ . . . _
 72
65
 73
8
 40
24.0
 49
12.0
 74
0
 49
-3.0
 74
0
 49
0.0
 74
0
 49
-3.0
 74
0
 49
0.0
 74
0
 49
-3.0
 74
0
 49
0.0
 74
0
 49
-3.0
 74
0
  0
LTYPE
  5
15
100
AcDbSymbolTableRecord
100
AcDbLinetypeTableRecord
  2
BYLAYER
 70
0
  3

 72
65
 73
0
 40
0.0
  0
LTYPE
  5
5A
100
AcDbSymbolTableRecord
100
AcDbLinetypeTableRecord
  2
PHANTOMX2
 70
0
  3
Phantom (2x) ____________    ____    ____   _
 72
65
 73
6
 40
127.0000000000000142
 49
63.5
 74
0
 49
-12.6999999999999993
 74
0
 49
12.6999999999999993
 74
0
 49
-12.6999999999999993
 74
0
 49
12.6999999999999993
 74
0
 49
-12.6999999999999993
 74
0
  0
LTYPE
  5
14
100
AcDbSymbolTableRecord
100
AcDbLinetypeTableRecord
  2
BYBLOCK
 70
0
  3

 72
65
 73
0
 40
0.0
  0
LTYPE
  5
5B
100
AcDbSymbolTableRecord
100
AcDbLinetypeTableRecord
  2
DIVIDEX2
 70
0
  3
Divide (2x) ________  .  .  ________  .  .  _
 72
65
 73
6
 40
63.5
 49
25.3999999999999986
 74
0
 49
-12.6999999999999993
 74
0
 49
0.0
 74
0
 49
-12.6999999999999993
 74
0
 49
0.0
 74
0
 49
-12.6999999999999993
 74
0
  0
LTYPE
  5
5C
100
AcDbSymbolTableRecord
100
AcDbLinetypeTableRecord
  2
BORDER
 70
0
  3
Border __ __ . __ __ . __ __ . __ __ . __ __ .
 72
65
 73
6
 40
44.4499999999999957
 49
12.6999999999999993
 74
0
 49
-6.3499999999999996
 74
0
 49
12.6999999999999993
 74
0
 49
-6.3499999999999996
 74
0
 49
0.0
 74
0
 49
-6.3499999999999996
 74
0
  0
LTYPE
  5
5D
100
AcDbSymbolTableRecord
100
AcDbLinetypeTableRecord
  2
DIVIDE2
 70
0
  3
Divide (.5x) __..__..__..__..__..__..__..__.._
 72
65
 73
6
 40
15.875
 49
6.3499999999999996
 74
0
 49
-3.1749999999999998
 74
0
 49
0.0
 74
0
 49
-3.1749999999999998
 74
0
 49
0.0
 74
0
 49
-3.1749999999999998
 74
0
  0
LTYPE
  5
5E
100
AcDbSymbolTableRecord
100
AcDbLinetypeTableRecord
  2
DOT
 70
0
  3
Dot . . . . . . . . . . . . . . . . . . . . . . . .
 72
65
 73
2
 40
6.3499999999999996
 49
0.0
 74
0
 49
-6.3499999999999996
 74
0
  0
LTYPE
  5
5F
100
AcDbSymbolTableRecord
100
AcDbLinetypeTableRecord
  2
DASHDOT
 70
0
  3
Dash dot __ . __ . __ . __ . __ . __ . __ . __
 72
65
 73
4
 40
25.3999999999999986
 49
12.6999999999999993
 74
0
 49
-6.3499999999999996
 74
0
 49
0.0
 74
0
 49
-6.3499999999999996
 74
0
  0
LTYPE
  5
60
100
AcDbSymbolTableRecord
100
AcDbLinetypeTableRecord
  2
FENCELINE1
 70
0
  3
Fenceline circle ----0-----0----0-----0----0-----0--
 72
65
 73
4
 40
36.8299999999999983
 49
6.3499999999999996
 74
0
 49
-2.54
 74
0
 49
-2.54
 74
0
 49
25.3999999999999986
 74
0
  0
LTYPE
  5
61
100
AcDbSymbolTableRecord
100
AcDbLinetypeTableRecord
  2
BATTING
 70
0
  3
Batting SSSSSSSSSSSSSSSSSSSSSSSSSSSSSSSSSSSSSSSSSSSSSSS
 72
65
 73
4
 40
10.1625399999999999
 49
0.00254
 74
0
 49
-2.54
 74
0
 49
-5.0800000000000001
 74
0
 49
-2.54
 74
0
  0
LTYPE
  5
62
100
AcDbSymbolTableRecord
100
AcDbLinetypeTableRecord
  2
ACAD_ISO03W100
 70
0
  3
ISO dash space __    __    __    __    __    __
 72
65
 73
2
 40
30.0
 49
12.0
 74
0
 49
-18.0
 74
0
  0
LTYPE
  5
63
100
AcDbSymbolTableRecord
100
AcDbLinetypeTableRecord
  2
FENCELINE2
 70
0
  3
Fenceline square ----[]-----[]----[]-----[]----[]---
 72
65
 73
4
 40
36.8299999999999983
 49
6.3499999999999996
 74
0
 49
-2.54
 74
0
 49
-2.54
 74
0
 49
25.3999999999999986
 74
0
  0
ENDTAB
  0
TABLE
  2
LAYER
  5
2
100
AcDbSymbolTable
 70
1
  0
LAYER
  5
10
100
AcDbSymbolTableRecord
100
AcDbLayerTableRecord
  2
0
 70
0
 62
7
420
16777215
  6
Continuous
370
25
390
F
  0
ENDTAB
  0
TABLE
  2
STYLE
  5
3
100
AcDbSymbolTable
 70
1
  0
STYLE
  5
64
100
AcDbSymbolTableRecord
100
AcDbTextStyleTableRecord
  2
Standard
 70
0
 40
0.0
 41
1.0
 50
0.0
 71
0
 42
2.5
  3

  4

1001
ACAD
1000
txt
1071
0
  0
ENDTAB
  0
TABLE
  2
VIEW
  5
6
100
AcDbSymbolTable
 70
0
  0
ENDTAB
  0
TABLE
  2
UCS
  5
7
100
AcDbSymbolTable
 70
0
  0
ENDTAB
  0
TABLE
  2
APPID
  5
9
100
AcDbSymbolTable
 70
1
  0
APPID
  5
12
100
AcDbSymbolTableRecord
100
AcDbRegAppTableRecord
  2
ACAD
 70
0
  0
APPID
  5
65
100
AcDbSymbolTableRecord
100
AcDbRegAppTableRecord
  2
QCAD
 70
0
  0
ENDTAB
  0
TABLE
  2
DIMSTYLE
  5
A
100
AcDbSymbolTable
 70
1
100
AcDbDimStyleTable
 71
0
  0
DIMSTYLE
105
27
100
AcDbSymbolTableRecord
100
AcDbDimStyleTableRecord
  2
Standard
 41
2.5
 42
0.625
 43
3.75
 44
1.25
 70
0
 73
0
 74
0
 77
1
 78
8
140
2.5
141
2.5
143
0.03937007874016
147
0.625
171
3
172
1
271
2
272
2
274
3
278
44
283
0
284
8
340
64
  0
ENDTAB
  0
TABLE
  2
BLOCK_RECORD
  5
1
100
AcDbSymbolTable
 70
1
  0
BLOCK_RECORD
  5
1F
100
AcDbSymbolTableRecord
100
AcDbBlockTableRecord
  2
*Model_Space
340
22
  0
BLOCK_RECORD
  5
1B
100
AcDbSymbolTableRecord
100
AcDbBlockTableRecord
  2
*Paper_Space
340
1E
  0
BLOCK_RECORD
  5
23
100
AcDbSymbolTableRecord
100
AcDbBlockTableRecord
  2
*Paper_Space0
340
26
  0
ENDTAB
  0
ENDSEC
  0
SECTION
  2
BLOCKS
  0
BLOCK
  5
20
100
AcDbEntity
  8
0
100
AcDbBlockBegin
  2
*Model_Space
 70
0
 10
0.0
 20
0.0
 30
0.0
  3
*Model_Space
  1

  0
ENDBLK
  5
21
100
AcDbEntity
  8
0
100
AcDbBlockEnd
  0
BLOCK
  5
1C
100
AcDbEntity
 67
1
  8
0
100
AcDbBlockBegin
  2
*Paper_Space
 70
0
 10
0.0
 20
0.0
 30
0.0
  3
*Paper_Space
  1

  0
ENDBLK
  5
1D
100
AcDbEntity
 67
1
  8
0
100
AcDbBlockEnd
  0
BLOCK
  5
24
100
AcDbEntity
  8
0
100
AcDbBlockBegin
  2
*Paper_Space0
 70
0
 10
0.0
 20
0.0
 30
0.0
  3
*Paper_Space0
  1

  0
ENDBLK
  5
25
100
AcDbEntity
  8
0
100
AcDbBlockEnd
  0
ENDSEC
  0
SECTION
  2
ENTITIES
  0
LINE
  5
66
100
AcDbEntity
100
AcDbLine
  8
0
 62
256
370
-1
 48
1.0
  6
BYLAYER
 10
-142.7845759999999871
 20
-53.1959819999999937
 30
0.0
 11
-142.7845759999999871
 21
-158.1960259999999892
 31
0.0
  0
LINE
  5
67
100
AcDbEntity
100
AcDbLine
  8
0
 62
256
370
-1
 48
1.0
  6
BYLAYER
 10
-133.3466979999999751
 20
-80.9475139999999982
 30
0.0
 11
-128.8564859999999896
 21
-76.4573019999999985
 31
0.0
  0
LINE
  5
68
100
AcDbEntity
100
AcDbLine
  8
0
 62
256
370
-1
 48
1.0
  6
BYLAYER
 10
-116.6235919999999879
 20
-64.2244079999999968
 30
0.0
 11
-112.1333799999999883
 21
-59.7341959999999972
 31
0.0
  0
LINE
  5
69
100
AcDbEntity
100
AcDbLine
  8
0
 62
256
370
-1
 48
1.0
  6
BYLAYER
 10
-128.8564859999999896
 20
-85.4374719999999996
 30
0.0
 11
-124.36627399999999
 21
-80.9475139999999982
 31
0.0
  0
LINE
  5
6A
100
AcDbEntity
100
AcDbLine
  8
0
 62
256
370
-1
 48
1.0
  6
BYLAYER
 10
-112.1333799999999883
 20
-68.7143659999999983
 30
0.0
 11
-107.6431679999999886
 21
-64.2244079999999968
 31
0.0
  0
LINE
  5
6B
100
AcDbEntity
100
AcDbLine
  8
0
 62
256
370
-1
 48
1.0
  6
BYLAYER
 10
-112.1333799999999883
 20
-151.6580659999999909
 30
0.0
 11
-116.6235919999999879
 21
-147.1678540000000055
 31
0.0
  0
LINE
  5
6C
100
AcDbEntity
100
AcDbLine
  8
0
 62
256
370
-1
 48
1.0
  6
BYLAYER
 10
-128.8564859999999896
 20
-134.9349599999999896
 30
0.0
 11
-133.3466979999999751
 21
-130.4450019999999881
 31
0.0
  0
LINE
  5
6D
100
AcDbEntity
100
AcDbLine
  8
0
 62
256
370
-1
 48
1.0
  6
BYLAYER
 10
-107.6431679999999886
 20
-147.1678540000000055
 30
0.0
 11
-112.1333799999999883
 21
-142.6778959999999756
 31
0.0
  0
LINE
  5
6E
100
AcDbEntity
100
AcDbLine
  8
0
 62
256
370
-1
 48
1.0
  6
BYLAYER
 10
-124.36627399999999
 20
-130.4450019999999881
 30
0.0
 11
-128.8564859999999896
 21
-125.9547899999999885
 31
0.0
  0
LINE
  5
6F
100
AcDbEntity
100
AcDbLine
  8
0
 62
256
370
-1
 48
1.0
  6
BYLAYER
 10
-128.8564859999999896
 20
-125.9547899999999885
 30
0.0
 11
-133.3466979999999751
 21
-130.4450019999999881
 31
0.0
  0
LINE
  5
70
100
AcDbEntity
100
AcDbLine
  8
0
 62
256
370
-1
 48
1.0
  6
BYLAYER
 10
-67.126103999999998
 20
-64.2244079999999968
 30
0.0
 11
-62.6358919999999983
 21
-59.7341959999999972
 31
0.0
  0
LINE
  5
71
100
AcDbEntity
100
AcDbLine
  8
0
 62
256
370
-1
 48
1.0
  6
BYLAYER
 10
-58.1456799999999987
 20
-64.2244079999999968
 30
0.0
 11
-62.6358919999999983
 21
-68.7143659999999983
 31
0.0
  0
LINE
  5
72
100
AcDbEntity
100
AcDbLine
  8
0
 62
256
370
-1
 48
1.0
  6
BYLAYER
 10
-124.36627399999999
 20
-130.4450019999999881
 30
0.0
 11
-128.8564859999999896
 21
-134.9349599999999896
 31
0.0
  0
LINE
  5
73
100
AcDbEntity
100
AcDbLine
  8
0
 62
256
370
-1
 48
1.0
  6
BYLAYER
 10
-116.6235919999999879
 20
-147.1678540000000055
 30
0.0
 11
-112.1333799999999883
 21
-142.6778959999999756
 31
0.0
  0
LINE
  5
74
100
AcDbEntity
100
AcDbLine
  8
0
 62
256
370
-1
 48
1.0
  6
BYLAYER
 10
-50.4029979999999966
 20
-80.9475139999999982
 30
0.0
 11
-45.912785999999997
 21
-76.4573019999999985
 31
0.0
  0
LINE
  5
75
100
AcDbEntity
100
AcDbLine
  8
0
 62
256
370
-1
 48
1.0
  6
BYLAYER
 10
-107.6431679999999886
 20
-147.1678540000000055
 30
0.0
 11
-112.1333799999999883
 21
-151.6580659999999909
 31
0.0
  0
LINE
  5
76
100
AcDbEntity
100
AcDbLine
  8
0
 62
256
370
-1
 48
1.0
  6
BYLAYER
 10
-45.912785999999997
 20
-85.4374719999999996
 30
0.0
 11
-41.4225739999999973
 21
-80.9475139999999982
 31
0.0
  0
LINE
  5
77
100
AcDbEntity
100
AcDbLine
  8
0
 62
256
370
-1
 48
1.0
  6
BYLAYER
 10
104.1153619999999904
 20
-204.5075919999999883
 30
0.0
 11
106.6154840000000092
 21
-204.5075919999999883
 31
0.0
  0
LINE
  5
78
100
AcDbEntity
100
AcDbLine
  8
0
 62
256
370
-1
 48
1.0
  6
BYLAYER
 10
121.6154539999999855
 20
-204.5075919999999883
 30
0.0
 11
124.1153219999999919
 21
-204.5075919999999883
 31
0.0
  0
LINE
  5
79
100
AcDbEntity
100
AcDbLine
  8
0
 62
256
370
-1
 48
1.0
  6
BYLAYER
 10
121.6154539999999855
 20
-198.157591999999994
 30
0.0
 11
116.3154899999999827
 21
-198.157591999999994
 31
0.0
  0
LINE
  5
7A
100
AcDbEntity
100
AcDbLine
  8
0
 62
256
370
-1
 48
1.0
  6
BYLAYER
 10
111.9154479999999836
 20
-198.157591999999994
 30
0.0
 11
106.6154840000000092
 21
-198.157591999999994
 31
0.0
  0
LINE
  5
7B
100
AcDbEntity
100
AcDbLine
  8
0
 62
256
370
-1
 48
1.0
  6
BYLAYER
 10
-67.126103999999998
 20
-147.1678540000000055
 30
0.0
 11
-62.6358919999999983
 21
-151.6580659999999909
 31
0.0
  0
LINE
  5
7C
100
AcDbEntity
100
AcDbLine
  8
0
 62
256
370
-1
 48
1.0
  6
BYLAYER
 10
-128.8564859999999896
 20
-85.4374719999999996
 30
0.0
 11
-133.3466979999999751
 21
-80.9475139999999982
 31
0.0
  0
LINE
  5
7D
100
AcDbEntity
100
AcDbLine
  8
0
 62
256
370
-1
 48
1.0
  6
BYLAYER
 10
-128.8564859999999896
 20
-76.4573019999999985
 30
0.0
 11
-124.36627399999999
 21
-80.9475139999999982
 31
0.0
  0
LINE
  5
7E
100
AcDbEntity
100
AcDbLine
  8
0
 62
256
370
-1
 48
1.0
  6
BYLAYER
 10
-62.6358919999999983
 20
-142.6778959999999756
 30
0.0
 11
-58.1456799999999987
 21
-147.1678540000000055
 31
0.0
  0
LINE
  5
7F
100
AcDbEntity
100
AcDbLine
  8
0
 62
256
370
-1
 48
1.0
  6
BYLAYER
 10
109.615477999999996
 20
-193.1576019999999971
 30
0.0
 11
111.9154479999999836
 21
-193.1576019999999971
 31
0.0
  0
LINE
  5
80
100
AcDbEntity
100
AcDbLine
  8
0
 62
256
370
-1
 48
1.0
  6
BYLAYER
 10
116.3154899999999827
 20
-193.1576019999999971
 30
0.0
 11
118.6154599999999988
 21
-193.1576019999999971
 31
0.0
  0
LINE
  5
81
100
AcDbEntity
100
AcDbLine
  8
0
 62
256
370
-1
 48
1.0
  6
BYLAYER
 10
109.615477999999996
 20
-189.1576099999999769
 30
0.0
 11
111.9154479999999836
 21
-189.1576099999999769
 31
0.0
  0
LINE
  5
82
100
AcDbEntity
100
AcDbLine
  8
0
 62
256
370
-1
 48
1.0
  6
BYLAYER
 10
116.3154899999999827
 20
-189.1576099999999769
 30
0.0
 11
118.6154599999999988
 21
-189.1576099999999769
 31
0.0
  0
LINE
  5
83
100
AcDbEntity
100
AcDbLine
  8
0
 62
256
370
-1
 48
1.0
  6
BYLAYER
 10
-45.912785999999997
 20
-125.9547899999999885
 30
0.0
 11
-50.4029979999999966
 21
-130.4450019999999881
 31
0.0
  0
LINE
  5
84
100
AcDbEntity
100
AcDbLine
  8
0
 62
256
370
-1
 48
1.0
  6
BYLAYER
 10
-62.6358919999999983
 20
-142.6778959999999756
 30
0.0
 11
-67.126103999999998
 21
-147.1678540000000055
 31
0.0
  0
LINE
  5
85
100
AcDbEntity
100
AcDbLine
  8
0
 62
256
370
-1
 48
1.0
  6
BYLAYER
 10
111.9154479999999836
 20
-184.4575939999999719
 30
0.0
 11
116.3154899999999827
 21
-184.4575939999999719
 31
0.0
  0
LINE
  5
86
100
AcDbEntity
100
AcDbLine
  8
0
 62
256
370
-1
 48
1.0
  6
BYLAYER
 10
-45.912785999999997
 20
-134.9349599999999896
 30
0.0
 11
-50.4029979999999966
 21
-130.4450019999999881
 31
0.0
  0
LINE
  5
87
100
AcDbEntity
100
AcDbLine
  8
0
 62
256
370
-1
 48
1.0
  6
BYLAYER
 10
-112.1333799999999883
 20
-68.7143659999999983
 30
0.0
 11
-116.6235919999999879
 21
-64.2244079999999968
 31
0.0
  0
LINE
  5
88
100
AcDbEntity
100
AcDbLine
  8
0
 62
256
370
-1
 48
1.0
  6
BYLAYER
 10
-45.912785999999997
 20
-125.9547899999999885
 30
0.0
 11
-41.4225739999999973
 21
-130.4450019999999881
 31
0.0
  0
LINE
  5
89
100
AcDbEntity
100
AcDbLine
  8
0
 62
256
370
-1
 48
1.0
  6
BYLAYER
 10
-107.6431679999999886
 20
-64.2244079999999968
 30
0.0
 11
-112.1333799999999883
 21
-59.7341959999999972
 31
0.0
  0
LINE
  5
8A
100
AcDbEntity
100
AcDbLine
  8
0
 62
256
370
-1
 48
1.0
  6
BYLAYER
 10
-41.4225739999999973
 20
-130.4450019999999881
 30
0.0
 11
-45.912785999999997
 21
-134.9349599999999896
 31
0.0
  0
LINE
  5
8B
100
AcDbEntity
100
AcDbLine
  8
0
 62
256
370
-1
 48
1.0
  6
BYLAYER
 10
-58.1456799999999987
 20
-147.1678540000000055
 30
0.0
 11
-62.6358919999999983
 21
-151.6580659999999909
 31
0.0
  0
LINE
  5
8C
100
AcDbEntity
100
AcDbLine
  8
0
 62
256
370
-1
 48
1.0
  6
BYLAYER
 10
-132.7845959999999934
 20
-168.1960059999999828
 30
0.0
 11
47.2152979999999971
 21
-168.1960059999999828
 31
0.0
  0
LINE
  5
8D
100
AcDbEntity
100
AcDbLine
  8
0
 62
256
370
-1
 48
1.0
  6
BYLAYER
 10
164.1152419999999665
 20
-162.007803999999993
 30
0.0
 11
164.1152419999999665
 21
-162.007803999999993
 31
0.0
  0
LINE
  5
8E
100
AcDbEntity
100
AcDbLine
  8
0
 62
256
370
-1
 48
1.0
  6
BYLAYER
 10
164.1152419999999665
 20
-162.007803999999993
 30
0.0
 11
157.7652419999999722
 21
-162.007803999999993
 31
0.0
  0
LINE
  5
8F
100
AcDbEntity
100
AcDbLine
  8
0
 62
256
370
-1
 48
1.0
  6
BYLAYER
 10
64.1154420000000016
 20
-162.007803999999993
 30
0.0
 11
70.4654419999999959
 21
-162.007803999999993
 31
0.0
  0
LINE
  5
90
100
AcDbEntity
100
AcDbLine
  8
0
 62
256
370
-1
 48
1.0
  6
BYLAYER
 10
152.7655059999999878
 20
-159.0078100000000063
 30
0.0
 11
148.765513999999996
 21
-159.0078100000000063
 31
0.0
  0
LINE
  5
91
100
AcDbEntity
100
AcDbLine
  8
0
 62
256
370
-1
 48
1.0
  6
BYLAYER
 10
75.465432000000007
 20
-159.0078100000000063
 30
0.0
 11
79.4654239999999845
 21
-159.0078100000000063
 31
0.0
  0
LINE
  5
92
100
AcDbEntity
100
AcDbLine
  8
0
 62
256
370
-1
 48
1.0
  6
BYLAYER
 10
157.7652419999999722
 20
-156.7075859999999921
 30
0.0
 11
157.7652419999999722
 21
-156.7075859999999921
 31
0.0
  0
LINE
  5
93
100
AcDbEntity
100
AcDbLine
  8
0
 62
256
370
-1
 48
1.0
  6
BYLAYER
 10
157.7652419999999722
 20
-156.7075859999999921
 30
0.0
 11
152.7653535999999974
 21
-156.7075859999999921
 31
0.0
  0
LINE
  5
94
100
AcDbEntity
100
AcDbLine
  8
0
 62
256
370
-1
 48
1.0
  6
BYLAYER
 10
148.765513999999996
 20
-156.7075859999999921
 30
0.0
 11
144.065497999999991
 21
-156.7075859999999921
 31
0.0
  0
LINE
  5
95
100
AcDbEntity
100
AcDbLine
  8
0
 62
256
370
-1
 48
1.0
  6
BYLAYER
 10
70.4654419999999959
 20
-156.7075859999999921
 30
0.0
 11
75.465432000000007
 21
-156.7075859999999921
 31
0.0
  0
LINE
  5
96
100
AcDbEntity
100
AcDbLine
  8
0
 62
256
370
-1
 48
1.0
  6
BYLAYER
 10
79.4654239999999845
 20
-156.7075859999999921
 30
0.0
 11
84.1654400000000038
 21
-156.7075859999999921
 31
0.0
  0
LINE
  5
97
100
AcDbEntity
100
AcDbLine
  8
0
 62
256
370
-1
 48
1.0
  6
BYLAYER
 10
157.7652419999999722
 20
-152.3077979999999911
 30
0.0
 11
157.7652419999999722
 21
-152.3077979999999911
 31
0.0
  0
LINE
  5
98
100
AcDbEntity
100
AcDbLine
  8
0
 62
256
370
-1
 48
1.0
  6
BYLAYER
 10
157.7652419999999722
 20
-152.3077979999999911
 30
0.0
 11
152.7653535999999974
 21
-152.3077979999999911
 31
0.0
  0
LINE
  5
99
100
AcDbEntity
100
AcDbLine
  8
0
 62
256
370
-1
 48
1.0
  6
BYLAYER
 10
148.765513999999996
 20
-152.3077979999999911
 30
0.0
 11
144.065497999999991
 21
-152.3077979999999911
 31
0.0
  0
LINE
  5
9A
100
AcDbEntity
100
AcDbLine
  8
0
 62
256
370
-1
 48
1.0
  6
BYLAYER
 10
70.4654419999999959
 20
-152.3077979999999911
 30
0.0
 11
75.465432000000007
 21
-152.3077979999999911
 31
0.0
  0
LINE
  5
9B
100
AcDbEntity
100
AcDbLine
  8
0
 62
256
370
-1
 48
1.0
  6
BYLAYER
 10
79.4654239999999845
 20
-152.3077979999999911
 30
0.0
 11
84.1654400000000038
 21
-152.3077979999999911
 31
0.0
  0
LINE
  5
9C
100
AcDbEntity
100
AcDbLine
  8
0
 62
256
370
-1
 48
1.0
  6
BYLAYER
 10
152.7655059999999878
 20
-150.0075739999999769
 30
0.0
 11
148.765513999999996
 21
-150.0075739999999769
 31
0.0
  0
LINE
  5
9D
100
AcDbEntity
100
AcDbLine
  8
0
 62
256
370
-1
 48
1.0
  6
BYLAYER
 10
75.465432000000007
 20
-150.0075739999999769
 30
0.0
 11
79.4654239999999845
 21
-150.0075739999999769
 31
0.0
  0
LINE
  5
9E
100
AcDbEntity
100
AcDbLine
  8
0
 62
256
370
-1
 48
1.0
  6
BYLAYER
 10
-67.126103999999998
 20
-64.2244079999999968
 30
0.0
 11
-62.6358919999999983
 21
-68.7143659999999983
 31
0.0
  0
LINE
  5
9F
100
AcDbEntity
100
AcDbLine
  8
0
 62
256
370
-1
 48
1.0
  6
BYLAYER
 10
-50.4029979999999966
 20
-80.9475139999999982
 30
0.0
 11
-45.912785999999997
 21
-85.4374719999999996
 31
0.0
  0
LINE
  5
A0
100
AcDbEntity
100
AcDbLine
  8
0
 62
256
370
-1
 48
1.0
  6
BYLAYER
 10
164.1152419999999665
 20
-147.0075799999999902
 30
0.0
 11
164.1152419999999665
 21
-147.0075799999999902
 31
0.0
  0
LINE
  5
A1
100
AcDbEntity
100
AcDbLine
  8
0
 62
256
370
-1
 48
1.0
  6
BYLAYER
 10
164.1152419999999665
 20
-147.0075799999999902
 30
0.0
 11
157.7652419999999722
 21
-147.0075799999999902
 31
0.0
  0
LINE
  5
A2
100
AcDbEntity
100
AcDbLine
  8
0
 62
256
370
-1
 48
1.0
  6
BYLAYER
 10
64.1154420000000016
 20
-147.0075799999999902
 30
0.0
 11
70.4654419999999959
 21
-147.0075799999999902
 31
0.0
  0
LINE
  5
A3
100
AcDbEntity
100
AcDbLine
  8
0
 62
256
370
-1
 48
1.0
  6
BYLAYER
 10
-62.6358919999999983
 20
-59.7341959999999972
 30
0.0
 11
-58.1456799999999987
 21
-64.2244079999999968
 31
0.0
  0
LINE
  5
A4
100
AcDbEntity
100
AcDbLine
  8
0
 62
256
370
-1
 48
1.0
  6
BYLAYER
 10
-45.912785999999997
 20
-76.4573019999999985
 30
0.0
 11
-41.4225739999999973
 21
-80.9475139999999982
 31
0.0
  0
LINE
  5
A5
100
AcDbEntity
100
AcDbLine
  8
0
 62
256
370
-1
 48
1.0
  6
BYLAYER
 10
116.3154899999999827
 20
-124.5577899999999971
 30
0.0
 11
111.9154479999999836
 21
-124.5577899999999971
 31
0.0
  0
LINE
  5
A6
100
AcDbEntity
100
AcDbLine
  8
0
 62
256
370
-1
 48
1.0
  6
BYLAYER
 10
118.6154599999999988
 20
-119.8577740000000063
 30
0.0
 11
116.3154899999999827
 21
-119.8577740000000063
 31
0.0
  0
LINE
  5
A7
100
AcDbEntity
100
AcDbLine
  8
0
 62
256
370
-1
 48
1.0
  6
BYLAYER
 10
111.9154479999999836
 20
-119.8577740000000063
 30
0.0
 11
109.615477999999996
 21
-119.8577740000000063
 31
0.0
  0
LINE
  5
A8
100
AcDbEntity
100
AcDbLine
  8
0
 62
256
370
-1
 48
1.0
  6
BYLAYER
 10
118.6154599999999988
 20
-115.8577819999999861
 30
0.0
 11
116.3154899999999827
 21
-115.8577819999999861
 31
0.0
  0
LINE
  5
A9
100
AcDbEntity
100
AcDbLine
  8
0
 62
256
370
-1
 48
1.0
  6
BYLAYER
 10
111.9154479999999836
 20
-115.8577819999999861
 30
0.0
 11
109.615477999999996
 21
-115.8577819999999861
 31
0.0
  0
LINE
  5
AA
100
AcDbEntity
100
AcDbLine
  8
0
 62
256
370
-1
 48
1.0
  6
BYLAYER
 10
106.6154840000000092
 20
-110.8577920000000034
 30
0.0
 11
111.9154479999999836
 21
-110.8577920000000034
 31
0.0
  0
LINE
  5
AB
100
AcDbEntity
100
AcDbLine
  8
0
 62
256
370
-1
 48
1.0
  6
BYLAYER
 10
116.3154899999999827
 20
-110.8577920000000034
 30
0.0
 11
121.6154539999999855
 21
-110.8577920000000034
 31
0.0
  0
LINE
  5
AC
100
AcDbEntity
100
AcDbLine
  8
0
 62
256
370
-1
 48
1.0
  6
BYLAYER
 10
65.315337999999997
 20
-72.4997279999999904
 30
0.0
 11
60.3153480000000002
 21
-87.4996979999999951
 31
0.0
  0
LINE
  5
AD
100
AcDbEntity
100
AcDbLine
  8
0
 62
256
370
-1
 48
1.0
  6
BYLAYER
 10
124.1153219999999919
 20
-104.5077920000000091
 30
0.0
 11
121.6154539999999855
 21
-104.5077920000000091
 31
0.0
  0
LINE
  5
AE
100
AcDbEntity
100
AcDbLine
  8
0
 62
256
370
-1
 48
1.0
  6
BYLAYER
 10
106.6154840000000092
 20
-104.5077920000000091
 30
0.0
 11
104.1153619999999904
 21
-104.5077920000000091
 31
0.0
  0
LINE
  5
AF
100
AcDbEntity
100
AcDbLine
  8
0
 62
256
370
-1
 48
1.0
  6
BYLAYER
 10
97.8519759999999934
 20
-162.2859339999999975
 30
0.0
 11
106.3370999999999924
 21
-170.7713119999999947
 31
0.0
  0
LINE
  5
B0
100
AcDbEntity
100
AcDbLine
  8
0
 62
256
370
-1
 48
1.0
  6
BYLAYER
 10
57.2152779999999979
 20
-158.1960259999999892
 30
0.0
 11
57.2152779999999979
 21
-53.1959819999999937
 31
0.0
  0
LINE
  5
B1
100
AcDbEntity
100
AcDbLine
  8
0
 62
256
370
-1
 48
1.0
  6
BYLAYER
 10
60.3153480000000002
 20
-87.4996979999999951
 30
0.0
 11
60.3153480000000002
 21
-93.8496979999999894
 31
0.0
  0
LINE
  5
B2
100
AcDbEntity
100
AcDbLine
  8
0
 62
256
370
-1
 48
1.0
  6
BYLAYER
 10
64.1154420000000016
 20
-144.5077119999999979
 30
0.0
 11
64.1154420000000016
 21
-147.0075799999999902
 31
0.0
  0
LINE
  5
B3
100
AcDbEntity
100
AcDbLine
  8
0
 62
256
370
-1
 48
1.0
  6
BYLAYER
 10
64.1154420000000016
 20
-162.007803999999993
 30
0.0
 11
64.1154420000000016
 21
-164.5076719999999852
 31
0.0
  0
LINE
  5
B4
100
AcDbEntity
100
AcDbLine
  8
0
 62
256
370
-1
 48
1.0
  6
BYLAYER
 10
65.315337999999997
 20
-62.3346480000000014
 30
0.0
 11
65.315337999999997
 21
-72.4997279999999904
 31
0.0
  0
LINE
  5
B5
100
AcDbEntity
100
AcDbLine
  8
0
 62
256
370
-1
 48
1.0
  6
BYLAYER
 10
195.3153319999999837
 20
-93.8496979999999894
 30
0.0
 11
195.3153319999999837
 21
-93.8496979999999894
 31
0.0
  0
LINE
  5
B6
100
AcDbEntity
100
AcDbLine
  8
0
 62
256
370
-1
 48
1.0
  6
BYLAYER
 10
195.3153319999999837
 20
-93.8496979999999894
 30
0.0
 11
188.9653319999999894
 21
-93.8496979999999894
 31
0.0
  0
LINE
  5
B7
100
AcDbEntity
100
AcDbLine
  8
0
 62
256
370
-1
 48
1.0
  6
BYLAYER
 10
171.6653919999999687
 20
-93.8496979999999894
 30
0.0
 11
171.6653919999999687
 21
-93.8496979999999894
 31
0.0
  0
LINE
  5
B8
100
AcDbEntity
100
AcDbLine
  8
0
 62
256
370
-1
 48
1.0
  6
BYLAYER
 10
171.6653919999999687
 20
-93.8496979999999894
 30
0.0
 11
165.3153919999999744
 21
-93.8496979999999894
 31
0.0
  0
LINE
  5
B9
100
AcDbEntity
100
AcDbLine
  8
0
 62
256
370
-1
 48
1.0
  6
BYLAYER
 10
160.315402000000006
 20
-93.8496979999999894
 30
0.0
 11
160.315402000000006
 21
-93.8496979999999894
 31
0.0
  0
LINE
  5
BA
100
AcDbEntity
100
AcDbLine
  8
0
 62
256
370
-1
 48
1.0
  6
BYLAYER
 10
160.315402000000006
 20
-93.8496979999999894
 30
0.0
 11
153.9655035999999768
 21
-93.8496979999999894
 31
0.0
  0
LINE
  5
BB
100
AcDbEntity
100
AcDbLine
  8
0
 62
256
370
-1
 48
1.0
  6
BYLAYER
 10
136.6654619999999909
 20
-93.8496979999999894
 30
0.0
 11
130.3154619999999966
 21
-93.8496979999999894
 31
0.0
  0
LINE
  5
BC
100
AcDbEntity
100
AcDbLine
  8
0
 62
256
370
-1
 48
1.0
  6
BYLAYER
 10
125.3154719999999855
 20
-93.8496979999999894
 30
0.0
 11
118.9654719999999912
 21
-93.8496979999999894
 31
0.0
  0
LINE
  5
BD
100
AcDbEntity
100
AcDbLine
  8
0
 62
256
370
-1
 48
1.0
  6
BYLAYER
 10
101.6652780000000007
 20
-93.8496979999999894
 30
0.0
 11
95.3152779999999922
 21
-93.8496979999999894
 31
0.0
  0
LINE
  5
BE
100
AcDbEntity
100
AcDbLine
  8
0
 62
256
370
-1
 48
1.0
  6
BYLAYER
 10
90.3152879999999953
 20
-93.8496979999999894
 30
0.0
 11
83.965288000000001
 21
-93.8496979999999894
 31
0.0
  0
LINE
  5
BF
100
AcDbEntity
100
AcDbLine
  8
0
 62
256
370
-1
 48
1.0
  6
BYLAYER
 10
66.6653479999999945
 20
-93.8496979999999894
 30
0.0
 11
60.3153480000000002
 21
-93.8496979999999894
 31
0.0
  0
LINE
  5
C0
100
AcDbEntity
100
AcDbLine
  8
0
 62
256
370
-1
 48
1.0
  6
BYLAYER
 10
66.6653479999999945
 20
-87.4996979999999951
 30
0.0
 11
73.1154239999999902
 21
-87.4996979999999951
 31
0.0
  0
LINE
  5
C1
100
AcDbEntity
100
AcDbLine
  8
0
 62
256
370
-1
 48
1.0
  6
BYLAYER
 10
77.5154659999999893
 20
-87.4996979999999951
 30
0.0
 11
83.965288000000001
 21
-87.4996979999999951
 31
0.0
  0
LINE
  5
C2
100
AcDbEntity
100
AcDbLine
  8
0
 62
256
370
-1
 48
1.0
  6
BYLAYER
 10
101.6652780000000007
 20
-87.4996979999999951
 30
0.0
 11
108.1153539999999822
 21
-87.4996979999999951
 31
0.0
  0
LINE
  5
C3
100
AcDbEntity
100
AcDbLine
  8
0
 62
256
370
-1
 48
1.0
  6
BYLAYER
 10
112.5153959999999813
 20
-87.4996979999999951
 30
0.0
 11
118.9654719999999912
 21
-87.4996979999999951
 31
0.0
  0
LINE
  5
C4
100
AcDbEntity
100
AcDbLine
  8
0
 62
256
370
-1
 48
1.0
  6
BYLAYER
 10
136.6654619999999909
 20
-87.4996979999999951
 30
0.0
 11
143.1152839999999742
 21
-87.4996979999999951
 31
0.0
  0
LINE
  5
C5
100
AcDbEntity
100
AcDbLine
  8
0
 62
256
370
-1
 48
1.0
  6
BYLAYER
 10
147.5153259999999875
 20
-87.4996979999999951
 30
0.0
 11
153.9654019999999832
 21
-87.4996979999999951
 31
0.0
  0
LINE
  5
C6
100
AcDbEntity
100
AcDbLine
  8
0
 62
256
370
-1
 48
1.0
  6
BYLAYER
 10
178.1152139999999804
 20
-87.4996979999999951
 30
0.0
 11
178.1152139999999804
 21
-87.4996979999999951
 31
0.0
  0
LINE
  5
C7
100
AcDbEntity
100
AcDbLine
  8
0
 62
256
370
-1
 48
1.0
  6
BYLAYER
 10
171.6652142000000083
 20
-87.4996979999999951
 30
0.0
 11
178.1152139999999804
 21
-87.4996979999999951
 31
0.0
  0
LINE
  5
C8
100
AcDbEntity
100
AcDbLine
  8
0
 62
256
370
-1
 48
1.0
  6
BYLAYER
 10
188.9653319999999894
 20
-87.4996979999999951
 30
0.0
 11
188.9653319999999894
 21
-87.4996979999999951
 31
0.0
  0
LINE
  5
C9
100
AcDbEntity
100
AcDbLine
  8
0
 62
256
370
-1
 48
1.0
  6
BYLAYER
 10
182.5153322000000173
 20
-87.4996979999999951
 30
0.0
 11
188.9653319999999894
 21
-87.4996979999999951
 31
0.0
  0
LINE
  5
CA
100
AcDbEntity
100
AcDbLine
  8
0
 62
256
370
-1
 48
1.0
  6
BYLAYER
 10
87.2451899999999938
 20
-134.7088999999999714
 30
0.0
 11
96.4377039999999965
 21
-143.9011600000000044
 31
0.0
  0
LINE
  5
CB
100
AcDbEntity
100
AcDbLine
  8
0
 62
256
370
-1
 48
1.0
  6
BYLAYER
 10
66.6653479999999945
 20
-87.4996979999999951
 30
0.0
 11
66.6653479999999945
 21
-93.8496979999999894
 31
0.0
  0
LINE
  5
CC
100
AcDbEntity
100
AcDbLine
  8
0
 62
256
370
-1
 48
1.0
  6
BYLAYER
 10
67.8154600000000016
 20
-55.984648
 30
0.0
 11
67.8154600000000016
 21
-62.3346480000000014
 31
0.0
  0
LINE
  5
CD
100
AcDbEntity
100
AcDbLine
  8
0
 62
256
370
-1
 48
1.0
  6
BYLAYER
 10
70.4654419999999959
 20
-162.007803999999993
 30
0.0
 11
70.4654419999999959
 21
-156.7075859999999921
 31
0.0
  0
LINE
  5
CE
100
AcDbEntity
100
AcDbLine
  8
0
 62
256
370
-1
 48
1.0
  6
BYLAYER
 10
70.4654419999999959
 20
-152.3077979999999911
 30
0.0
 11
70.4654419999999959
 21
-147.0075799999999902
 31
0.0
  0
LINE
  5
CF
100
AcDbEntity
100
AcDbLine
  8
0
 62
256
370
-1
 48
1.0
  6
BYLAYER
 10
70.8154539999999884
 20
-82.4997079999999983
 30
0.0
 11
70.8154539999999884
 21
-78.4997159999999923
 31
0.0
  0
LINE
  5
D0
100
AcDbEntity
100
AcDbLine
  8
0
 62
256
370
-1
 48
1.0
  6
BYLAYER
 10
73.1154239999999902
 20
-87.4996979999999951
 30
0.0
 11
73.1154239999999902
 21
-82.4997079999999983
 31
0.0
  0
LINE
  5
D1
100
AcDbEntity
100
AcDbLine
  8
0
 62
256
370
-1
 48
1.0
  6
BYLAYER
 10
73.1154239999999902
 20
-78.4997159999999923
 30
0.0
 11
73.1154239999999902
 21
-73.7997000000000014
 31
0.0
  0
LINE
  5
D2
100
AcDbEntity
100
AcDbLine
  8
0
 62
256
370
-1
 48
1.0
  6
BYLAYER
 10
75.465432000000007
 20
-150.0075739999999769
 30
0.0
 11
75.465432000000007
 21
-152.3077979999999911
 31
0.0
  0
LINE
  5
D3
100
AcDbEntity
100
AcDbLine
  8
0
 62
256
370
-1
 48
1.0
  6
BYLAYER
 10
75.465432000000007
 20
-156.7075859999999921
 30
0.0
 11
75.465432000000007
 21
-159.0078100000000063
 31
0.0
  0
LINE
  5
D4
100
AcDbEntity
100
AcDbLine
  8
0
 62
256
370
-1
 48
1.0
  6
BYLAYER
 10
77.5154659999999893
 20
-87.4996979999999951
 30
0.0
 11
77.5154659999999893
 21
-82.4997079999999983
 31
0.0
  0
LINE
  5
D5
100
AcDbEntity
100
AcDbLine
  8
0
 62
256
370
-1
 48
1.0
  6
BYLAYER
 10
77.5154659999999893
 20
-78.4997159999999923
 30
0.0
 11
77.5154659999999893
 21
-73.7997000000000014
 31
0.0
  0
LINE
  5
D6
100
AcDbEntity
100
AcDbLine
  8
0
 62
256
370
-1
 48
1.0
  6
BYLAYER
 10
94.3162959999999941
 20
-127.6377939999999853
 30
0.0
 11
87.2451899999999938
 21
-134.7088999999999714
 31
0.0
  0
LINE
  5
D7
100
AcDbEntity
100
AcDbLine
  8
0
 62
256
370
-1
 48
1.0
  6
BYLAYER
 10
70.8154539999999884
 20
-82.4997079999999983
 30
0.0
 11
73.1154239999999902
 21
-82.4997079999999983
 31
0.0
  0
LINE
  5
D8
100
AcDbEntity
100
AcDbLine
  8
0
 62
256
370
-1
 48
1.0
  6
BYLAYER
 10
77.5154659999999893
 20
-82.4997079999999983
 30
0.0
 11
79.8154359999999912
 21
-82.4997079999999983
 31
0.0
  0
LINE
  5
D9
100
AcDbEntity
100
AcDbLine
  8
0
 62
256
370
-1
 48
1.0
  6
BYLAYER
 10
105.8153839999999946
 20
-82.4997079999999983
 30
0.0
 11
108.1153539999999822
 21
-82.4997079999999983
 31
0.0
  0
LINE
  5
DA
100
AcDbEntity
100
AcDbLine
  8
0
 62
256
370
-1
 48
1.0
  6
BYLAYER
 10
112.5153959999999813
 20
-82.4997079999999983
 30
0.0
 11
114.8153659999999974
 21
-82.4997079999999983
 31
0.0
  0
LINE
  5
DB
100
AcDbEntity
100
AcDbLine
  8
0
 62
256
370
-1
 48
1.0
  6
BYLAYER
 10
140.8153140000000008
 20
-82.4997079999999983
 30
0.0
 11
143.1152839999999742
 21
-82.4997079999999983
 31
0.0
  0
LINE
  5
DC
100
AcDbEntity
100
AcDbLine
  8
0
 62
256
370
-1
 48
1.0
  6
BYLAYER
 10
147.5153259999999875
 20
-82.4997079999999983
 30
0.0
 11
149.8152959999999894
 21
-82.4997079999999983
 31
0.0
  0
LINE
  5
DD
100
AcDbEntity
100
AcDbLine
  8
0
 62
256
370
-1
 48
1.0
  6
BYLAYER
 10
178.1152139999999804
 20
-82.4997079999999983
 30
0.0
 11
178.1152139999999804
 21
-82.4997079999999983
 31
0.0
  0
LINE
  5
DE
100
AcDbEntity
100
AcDbLine
  8
0
 62
256
370
-1
 48
1.0
  6
BYLAYER
 10
175.8152135199999861
 20
-82.4997079999999983
 30
0.0
 11
178.1152139999999804
 21
-82.4997079999999983
 31
0.0
  0
LINE
  5
DF
100
AcDbEntity
100
AcDbLine
  8
0
 62
256
370
-1
 48
1.0
  6
BYLAYER
 10
184.8152259999999956
 20
-82.4997079999999983
 30
0.0
 11
184.8152259999999956
 21
-82.4997079999999983
 31
0.0
  0
LINE
  5
E0
100
AcDbEntity
100
AcDbLine
  8
0
 62
256
370
-1
 48
1.0
  6
BYLAYER
 10
182.5152255199999729
 20
-82.4997079999999983
 30
0.0
 11
184.8152259999999956
 21
-82.4997079999999983
 31
0.0
  0
LINE
  5
E1
100
AcDbEntity
100
AcDbLine
  8
0
 62
256
370
-1
 48
1.0
  6
BYLAYER
 10
70.8154539999999884
 20
-78.4997159999999923
 30
0.0
 11
73.1154239999999902
 21
-78.4997159999999923
 31
0.0
  0
LINE
  5
E2
100
AcDbEntity
100
AcDbLine
  8
0
 62
256
370
-1
 48
1.0
  6
BYLAYER
 10
77.5154659999999893
 20
-78.4997159999999923
 30
0.0
 11
79.8154359999999912
 21
-78.4997159999999923
 31
0.0
  0
LINE
  5
E3
100
AcDbEntity
100
AcDbLine
  8
0
 62
256
370
-1
 48
1.0
  6
BYLAYER
 10
105.8153839999999946
 20
-78.4997159999999923
 30
0.0
 11
108.1153539999999822
 21
-78.4997159999999923
 31
0.0
  0
LINE
  5
E4
100
AcDbEntity
100
AcDbLine
  8
0
 62
256
370
-1
 48
1.0
  6
BYLAYER
 10
112.5153959999999813
 20
-78.4997159999999923
 30
0.0
 11
114.8153659999999974
 21
-78.4997159999999923
 31
0.0
  0
LINE
  5
E5
100
AcDbEntity
100
AcDbLine
  8
0
 62
256
370
-1
 48
1.0
  6
BYLAYER
 10
140.8153140000000008
 20
-78.4997159999999923
 30
0.0
 11
143.1152839999999742
 21
-78.4997159999999923
 31
0.0
  0
LINE
  5
E6
100
AcDbEntity
100
AcDbLine
  8
0
 62
256
370
-1
 48
1.0
  6
BYLAYER
 10
147.5153259999999875
 20
-78.4997159999999923
 30
0.0
 11
149.8152959999999894
 21
-78.4997159999999923
 31
0.0
  0
LINE
  5
E7
100
AcDbEntity
100
AcDbLine
  8
0
 62
256
370
-1
 48
1.0
  6
BYLAYER
 10
178.1152139999999804
 20
-78.4997159999999923
 30
0.0
 11
178.1152139999999804
 21
-78.4997159999999923
 31
0.0
  0
LINE
  5
E8
100
AcDbEntity
100
AcDbLine
  8
0
 62
256
370
-1
 48
1.0
  6
BYLAYER
 10
175.8152135199999861
 20
-78.4997159999999923
 30
0.0
 11
178.1152139999999804
 21
-78.4997159999999923
 31
0.0
  0
LINE
  5
E9
100
AcDbEntity
100
AcDbLine
  8
0
 62
256
370
-1
 48
1.0
  6
BYLAYER
 10
184.8152259999999956
 20
-78.4997159999999923
 30
0.0
 11
184.8152259999999956
 21
-78.4997159999999923
 31
0.0
  0
LINE
  5
EA
100
AcDbEntity
100
AcDbLine
  8
0
 62
256
370
-1
 48
1.0
  6
BYLAYER
 10
182.5152255199999729
 20
-78.4997159999999923
 30
0.0
 11
184.8152259999999956
 21
-78.4997159999999923
 31
0.0
  0
LINE
  5
EB
100
AcDbEntity
100
AcDbLine
  8
0
 62
256
370
-1
 48
1.0
  6
BYLAYER
 10
73.1154239999999902
 20
-73.7997000000000014
 30
0.0
 11
77.5154659999999893
 21
-73.7997000000000014
 31
0.0
  0
LINE
  5
EC
100
AcDbEntity
100
AcDbLine
  8
0
 62
256
370
-1
 48
1.0
  6
BYLAYER
 10
108.1153539999999822
 20
-73.7997000000000014
 30
0.0
 11
112.5153959999999813
 21
-73.7997000000000014
 31
0.0
  0
LINE
  5
ED
100
AcDbEntity
100
AcDbLine
  8
0
 62
256
370
-1
 48
1.0
  6
BYLAYER
 10
143.1152839999999742
 20
-73.7997000000000014
 30
0.0
 11
147.5153259999999875
 21
-73.7997000000000014
 31
0.0
  0
LINE
  5
EE
100
AcDbEntity
100
AcDbLine
  8
0
 62
256
370
-1
 48
1.0
  6
BYLAYER
 10
182.5152559999999937
 20
-73.7997000000000014
 30
0.0
 11
182.5152559999999937
 21
-73.7997000000000014
 31
0.0
  0
LINE
  5
EF
100
AcDbEntity
100
AcDbLine
  8
0
 62
256
370
-1
 48
1.0
  6
BYLAYER
 10
178.1152648000000056
 20
-73.7997000000000014
 30
0.0
 11
182.5152559999999937
 21
-73.7997000000000014
 31
0.0
  0
LINE
  5
F0
100
AcDbEntity
100
AcDbLine
  8
0
 62
256
370
-1
 48
1.0
  6
BYLAYER
 10
103.5088099999999969
 20
-136.8300539999999899
 30
0.0
 11
94.3162959999999941
 21
-127.6377939999999853
 31
0.0
  0
LINE
  5
F1
100
AcDbEntity
100
AcDbLine
  8
0
 62
256
370
-1
 48
1.0
  6
BYLAYER
 10
122.6007200000000097
 20
-154.5076919999999916
 30
0.0
 11
114.1153419999999841
 21
-146.0225680000000068
 31
0.0
  0
LINE
  5
F2
100
AcDbEntity
100
AcDbLine
  8
0
 62
256
370
-1
 48
1.0
  6
BYLAYER
 10
79.4654239999999845
 20
-150.0075739999999769
 30
0.0
 11
79.4654239999999845
 21
-152.3077979999999911
 31
0.0
  0
LINE
  5
F3
100
AcDbEntity
100
AcDbLine
  8
0
 62
256
370
-1
 48
1.0
  6
BYLAYER
 10
79.4654239999999845
 20
-156.7075859999999921
 30
0.0
 11
79.4654239999999845
 21
-159.0078100000000063
 31
0.0
  0
LINE
  5
F4
100
AcDbEntity
100
AcDbLine
  8
0
 62
256
370
-1
 48
1.0
  6
BYLAYER
 10
79.8154359999999912
 20
-82.4997079999999983
 30
0.0
 11
79.8154359999999912
 21
-78.4997159999999923
 31
0.0
  0
LINE
  5
F5
100
AcDbEntity
100
AcDbLine
  8
0
 62
256
370
-1
 48
1.0
  6
BYLAYER
 10
82.8154299999999921
 20
-62.3346480000000014
 30
0.0
 11
82.8154299999999921
 21
-55.984648
 31
0.0
  0
LINE
  5
F6
100
AcDbEntity
100
AcDbLine
  8
0
 62
256
370
-1
 48
1.0
  6
BYLAYER
 10
83.965288000000001
 20
-87.4996979999999951
 30
0.0
 11
83.965288000000001
 21
-93.8496979999999894
 31
0.0
  0
LINE
  5
F7
100
AcDbEntity
100
AcDbLine
  8
0
 62
256
370
-1
 48
1.0
  6
BYLAYER
 10
84.1654400000000038
 20
-152.3077979999999911
 30
0.0
 11
84.1654400000000038
 21
-156.7075859999999921
 31
0.0
  0
LINE
  5
F8
100
AcDbEntity
100
AcDbLine
  8
0
 62
256
370
-1
 48
1.0
  6
BYLAYER
 10
85.3152979999999985
 20
-72.4997279999999904
 30
0.0
 11
85.3152979999999985
 21
-62.3346480000000014
 31
0.0
  0
LINE
  5
F9
100
AcDbEntity
100
AcDbLine
  8
0
 62
256
370
-1
 48
1.0
  6
BYLAYER
 10
90.3152879999999953
 20
-87.4996979999999951
 30
0.0
 11
90.3152879999999953
 21
-93.8496979999999894
 31
0.0
  0
LINE
  5
FA
100
AcDbEntity
100
AcDbLine
  8
0
 62
256
370
-1
 48
1.0
  6
BYLAYER
 10
100.3155219999999872
 20
-72.4997279999999904
 30
0.0
 11
95.3152779999999922
 21
-87.4996979999999951
 31
0.0
  0
LINE
  5
FB
100
AcDbEntity
100
AcDbLine
  8
0
 62
256
370
-1
 48
1.0
  6
BYLAYER
 10
96.4377039999999965
 20
-143.9011600000000044
 30
0.0
 11
103.5088099999999969
 21
-136.8300539999999899
 31
0.0
  0
LINE
  5
FC
100
AcDbEntity
100
AcDbLine
  8
0
 62
256
370
-1
 48
1.0
  6
BYLAYER
 10
65.315337999999997
 20
-62.3346480000000014
 30
0.0
 11
67.8154600000000016
 21
-62.3346480000000014
 31
0.0
  0
LINE
  5
FD
100
AcDbEntity
100
AcDbLine
  8
0
 62
256
370
-1
 48
1.0
  6
BYLAYER
 10
82.8154299999999921
 20
-62.3346480000000014
 30
0.0
 11
85.3152979999999985
 21
-62.3346480000000014
 31
0.0
  0
LINE
  5
FE
100
AcDbEntity
100
AcDbLine
  8
0
 62
256
370
-1
 48
1.0
  6
BYLAYER
 10
100.3155219999999872
 20
-62.3346480000000014
 30
0.0
 11
102.8153900000000078
 21
-62.3346480000000014
 31
0.0
  0
LINE
  5
FF
100
AcDbEntity
100
AcDbLine
  8
0
 62
256
370
-1
 48
1.0
  6
BYLAYER
 10
117.8153599999999841
 20
-62.3346480000000014
 30
0.0
 11
120.3154820000000029
 21
-62.3346480000000014
 31
0.0
  0
LINE
  5
100
100
AcDbEntity
100
AcDbLine
  8
0
 62
256
370
-1
 48
1.0
  6
BYLAYER
 10
135.3154519999999934
 20
-62.3346480000000014
 30
0.0
 11
137.8153199999999856
 21
-62.3346480000000014
 31
0.0
  0
LINE
  5
101
100
AcDbEntity
100
AcDbLine
  8
0
 62
256
370
-1
 48
1.0
  6
BYLAYER
 10
152.8152900000000045
 20
-62.3346480000000014
 30
0.0
 11
155.3154119999999807
 21
-62.3346480000000014
 31
0.0
  0
LINE
  5
102
100
AcDbEntity
100
AcDbLine
  8
0
 62
256
370
-1
 48
1.0
  6
BYLAYER
 10
172.8152499999999918
 20
-62.3346480000000014
 30
0.0
 11
172.8152499999999918
 21
-62.3346480000000014
 31
0.0
  0
LINE
  5
103
100
AcDbEntity
100
AcDbLine
  8
0
 62
256
370
-1
 48
1.0
  6
BYLAYER
 10
170.3152499199999852
 20
-62.3346480000000014
 30
0.0
 11
172.8152499999999918
 21
-62.3346480000000014
 31
0.0
  0
LINE
  5
104
100
AcDbEntity
100
AcDbLine
  8
0
 62
256
370
-1
 48
1.0
  6
BYLAYER
 10
190.3153419999999869
 20
-62.3346480000000014
 30
0.0
 11
190.3153419999999869
 21
-62.3346480000000014
 31
0.0
  0
LINE
  5
105
100
AcDbEntity
100
AcDbLine
  8
0
 62
256
370
-1
 48
1.0
  6
BYLAYER
 10
187.8153419199999803
 20
-62.3346480000000014
 30
0.0
 11
190.3153419999999869
 21
-62.3346480000000014
 31
0.0
  0
LINE
  5
106
100
AcDbEntity
100
AcDbLine
  8
0
 62
256
370
-1
 48
1.0
  6
BYLAYER
 10
95.3152779999999922
 20
-87.4996979999999951
 30
0.0
 11
95.3152779999999922
 21
-93.8496979999999894
 31
0.0
  0
LINE
  5
107
100
AcDbEntity
100
AcDbLine
  8
0
 62
256
370
-1
 48
1.0
  6
BYLAYER
 10
100.3155219999999872
 20
-62.3346480000000014
 30
0.0
 11
100.3155219999999872
 21
-72.4997279999999904
 31
0.0
  0
LINE
  5
108
100
AcDbEntity
100
AcDbLine
  8
0
 62
256
370
-1
 48
1.0
  6
BYLAYER
 10
101.6652780000000007
 20
-87.4996979999999951
 30
0.0
 11
101.6652780000000007
 21
-93.8496979999999894
 31
0.0
  0
LINE
  5
109
100
AcDbEntity
100
AcDbLine
  8
0
 62
256
370
-1
 48
1.0
  6
BYLAYER
 10
102.8153900000000078
 20
-55.984648
 30
0.0
 11
102.8153900000000078
 21
-62.3346480000000014
 31
0.0
  0
LINE
  5
10A
100
AcDbEntity
100
AcDbLine
  8
0
 62
256
370
-1
 48
1.0
  6
BYLAYER
 10
65.5205699999999922
 20
-55.984648
 30
0.0
 11
67.8154600000000016
 21
-55.984648
 31
0.0
  0
LINE
  5
10B
100
AcDbEntity
100
AcDbLine
  8
0
 62
256
370
-1
 48
1.0
  6
BYLAYER
 10
82.8154299999999921
 20
-55.984648
 30
0.0
 11
85.1103200000000015
 21
-55.984648
 31
0.0
  0
LINE
  5
10C
100
AcDbEntity
100
AcDbLine
  8
0
 62
256
370
-1
 48
1.0
  6
BYLAYER
 10
100.5204999999999984
 20
-55.984648
 30
0.0
 11
102.8153900000000078
 21
-55.984648
 31
0.0
  0
LINE
  5
10D
100
AcDbEntity
100
AcDbLine
  8
0
 62
256
370
-1
 48
1.0
  6
BYLAYER
 10
117.8153599999999841
 20
-55.984648
 30
0.0
 11
120.1102499999999935
 21
-55.984648
 31
0.0
  0
LINE
  5
10E
100
AcDbEntity
100
AcDbLine
  8
0
 62
256
370
-1
 48
1.0
  6
BYLAYER
 10
135.5204299999999762
 20
-55.984648
 30
0.0
 11
137.8153199999999856
 21
-55.984648
 31
0.0
  0
LINE
  5
10F
100
AcDbEntity
100
AcDbLine
  8
0
 62
256
370
-1
 48
1.0
  6
BYLAYER
 10
152.8152900000000045
 20
-55.984648
 30
0.0
 11
155.1101799999999855
 21
-55.984648
 31
0.0
  0
LINE
  5
110
100
AcDbEntity
100
AcDbLine
  8
0
 62
256
370
-1
 48
1.0
  6
BYLAYER
 10
172.8152499999999918
 20
-55.984648
 30
0.0
 11
172.8152499999999918
 21
-55.984648
 31
0.0
  0
LINE
  5
111
100
AcDbEntity
100
AcDbLine
  8
0
 62
256
370
-1
 48
1.0
  6
BYLAYER
 10
170.5203498399999944
 20
-55.984648
 30
0.0
 11
172.8152499999999918
 21
-55.984648
 31
0.0
  0
LINE
  5
112
100
AcDbEntity
100
AcDbLine
  8
0
 62
256
370
-1
 48
1.0
  6
BYLAYER
 10
190.1101099999999917
 20
-55.984648
 30
0.0
 11
190.1101099999999917
 21
-55.984648
 31
0.0
  0
LINE
  5
113
100
AcDbEntity
100
AcDbLine
  8
0
 62
256
370
-1
 48
1.0
  6
BYLAYER
 10
187.8153088999999909
 20
-55.984648
 30
0.0
 11
190.1101099999999917
 21
-55.984648
 31
0.0
  0
LINE
  5
114
100
AcDbEntity
100
AcDbLine
  8
0
 62
256
370
-1
 48
1.0
  6
BYLAYER
 10
184.315353999999985
 20
-48.8348019999999963
 30
0.0
 11
184.315353999999985
 21
-48.8348019999999963
 31
0.0
  0
LINE
  5
115
100
AcDbEntity
100
AcDbLine
  8
0
 62
256
370
-1
 48
1.0
  6
BYLAYER
 10
184.315353999999985
 20
-48.8348019999999963
 30
0.0
 11
176.3153445999999747
 21
-48.8348019999999963
 31
0.0
  0
LINE
  5
116
100
AcDbEntity
100
AcDbLine
  8
0
 62
256
370
-1
 48
1.0
  6
BYLAYER
 10
149.3154240000000073
 20
-48.8348019999999963
 30
0.0
 11
141.3154399999999953
 21
-48.8348019999999963
 31
0.0
  0
LINE
  5
117
100
AcDbEntity
100
AcDbLine
  8
0
 62
256
370
-1
 48
1.0
  6
BYLAYER
 10
114.3154939999999868
 20
-48.8348019999999963
 30
0.0
 11
106.3155099999999891
 21
-48.8348019999999963
 31
0.0
  0
LINE
  5
118
100
AcDbEntity
100
AcDbLine
  8
0
 62
256
370
-1
 48
1.0
  6
BYLAYER
 10
79.3153099999999966
 20
-48.8348019999999963
 30
0.0
 11
71.3153259999999989
 21
-48.8348019999999963
 31
0.0
  0
LINE
  5
119
100
AcDbEntity
100
AcDbLine
  8
0
 62
256
370
-1
 48
1.0
  6
BYLAYER
 10
90.3152879999999953
 20
-87.4996979999999951
 30
0.0
 11
85.3152979999999985
 21
-72.4997279999999904
 31
0.0
  0
LINE
  5
11A
100
AcDbEntity
100
AcDbLine
  8
0
 62
256
370
-1
 48
1.0
  6
BYLAYER
 10
105.8153839999999946
 20
-82.4997079999999983
 30
0.0
 11
105.8153839999999946
 21
-78.4997159999999923
 31
0.0
  0
LINE
  5
11B
100
AcDbEntity
100
AcDbLine
  8
0
 62
256
370
-1
 48
1.0
  6
BYLAYER
 10
106.6154840000000092
 20
-104.5077920000000091
 30
0.0
 11
106.6154840000000092
 21
-110.8577920000000034
 31
0.0
  0
LINE
  5
11C
100
AcDbEntity
100
AcDbLine
  8
0
 62
256
370
-1
 48
1.0
  6
BYLAYER
 10
106.6154840000000092
 20
-204.5075919999999883
 30
0.0
 11
106.6154840000000092
 21
-198.157591999999994
 31
0.0
  0
LINE
  5
11D
100
AcDbEntity
100
AcDbLine
  8
0
 62
256
370
-1
 48
1.0
  6
BYLAYER
 10
108.1153539999999822
 20
-87.4996979999999951
 30
0.0
 11
108.1153539999999822
 21
-82.4997079999999983
 31
0.0
  0
LINE
  5
11E
100
AcDbEntity
100
AcDbLine
  8
0
 62
256
370
-1
 48
1.0
  6
BYLAYER
 10
108.1153539999999822
 20
-78.4997159999999923
 30
0.0
 11
108.1153539999999822
 21
-73.7997000000000014
 31
0.0
  0
LINE
  5
11F
100
AcDbEntity
100
AcDbLine
  8
0
 62
256
370
-1
 48
1.0
  6
BYLAYER
 10
109.615477999999996
 20
-115.8577819999999861
 30
0.0
 11
109.615477999999996
 21
-119.8577740000000063
 31
0.0
  0
LINE
  5
120
100
AcDbEntity
100
AcDbLine
  8
0
 62
256
370
-1
 48
1.0
  6
BYLAYER
 10
109.615477999999996
 20
-193.1576019999999971
 30
0.0
 11
109.615477999999996
 21
-189.1576099999999769
 31
0.0
  0
LINE
  5
121
100
AcDbEntity
100
AcDbLine
  8
0
 62
256
370
-1
 48
1.0
  6
BYLAYER
 10
111.9154479999999836
 20
-110.8577920000000034
 30
0.0
 11
111.9154479999999836
 21
-115.8577819999999861
 31
0.0
  0
LINE
  5
122
100
AcDbEntity
100
AcDbLine
  8
0
 62
256
370
-1
 48
1.0
  6
BYLAYER
 10
111.9154479999999836
 20
-119.8577740000000063
 30
0.0
 11
111.9154479999999836
 21
-124.5577899999999971
 31
0.0
  0
LINE
  5
123
100
AcDbEntity
100
AcDbLine
  8
0
 62
256
370
-1
 48
1.0
  6
BYLAYER
 10
111.9154479999999836
 20
-198.157591999999994
 30
0.0
 11
111.9154479999999836
 21
-193.1576019999999971
 31
0.0
  0
LINE
  5
124
100
AcDbEntity
100
AcDbLine
  8
0
 62
256
370
-1
 48
1.0
  6
BYLAYER
 10
111.9154479999999836
 20
-189.1576099999999769
 30
0.0
 11
111.9154479999999836
 21
-184.4575939999999719
 31
0.0
  0
LINE
  5
125
100
AcDbEntity
100
AcDbLine
  8
0
 62
256
370
-1
 48
1.0
  6
BYLAYER
 10
112.5153959999999813
 20
-87.4996979999999951
 30
0.0
 11
112.5153959999999813
 21
-82.4997079999999983
 31
0.0
  0
LINE
  5
126
100
AcDbEntity
100
AcDbLine
  8
0
 62
256
370
-1
 48
1.0
  6
BYLAYER
 10
112.5153959999999813
 20
-78.4997159999999923
 30
0.0
 11
112.5153959999999813
 21
-73.7997000000000014
 31
0.0
  0
LINE
  5
127
100
AcDbEntity
100
AcDbLine
  8
0
 62
256
370
-1
 48
1.0
  6
BYLAYER
 10
114.8153659999999974
 20
-82.4997079999999983
 30
0.0
 11
114.8153659999999974
 21
-78.4997159999999923
 31
0.0
  0
LINE
  5
128
100
AcDbEntity
100
AcDbLine
  8
0
 62
256
370
-1
 48
1.0
  6
BYLAYER
 10
135.3154519999999934
 20
-72.4997279999999904
 30
0.0
 11
130.3154619999999966
 21
-87.4996979999999951
 31
0.0
  0
LINE
  5
129
100
AcDbEntity
100
AcDbLine
  8
0
 62
256
370
-1
 48
1.0
  6
BYLAYER
 10
114.1153419999999841
 20
-146.0225680000000068
 30
0.0
 11
97.8519759999999934
 21
-162.2859339999999975
 31
0.0
  0
LINE
  5
12A
100
AcDbEntity
100
AcDbLine
  8
0
 62
256
370
-1
 48
1.0
  6
BYLAYER
 10
47.2152979999999971
 20
-43.196002
 30
0.0
 11
-132.7845959999999934
 21
-43.196002
 31
0.0
  0
LINE
  5
12B
100
AcDbEntity
100
AcDbLine
  8
0
 62
256
370
-1
 48
1.0
  6
BYLAYER
 10
116.3154899999999827
 20
-110.8577920000000034
 30
0.0
 11
116.3154899999999827
 21
-115.8577819999999861
 31
0.0
  0
LINE
  5
12C
100
AcDbEntity
100
AcDbLine
  8
0
 62
256
370
-1
 48
1.0
  6
BYLAYER
 10
116.3154899999999827
 20
-119.8577740000000063
 30
0.0
 11
116.3154899999999827
 21
-124.5577899999999971
 31
0.0
  0
LINE
  5
12D
100
AcDbEntity
100
AcDbLine
  8
0
 62
256
370
-1
 48
1.0
  6
BYLAYER
 10
116.3154899999999827
 20
-198.157591999999994
 30
0.0
 11
116.3154899999999827
 21
-193.1576019999999971
 31
0.0
  0
LINE
  5
12E
100
AcDbEntity
100
AcDbLine
  8
0
 62
256
370
-1
 48
1.0
  6
BYLAYER
 10
116.3154899999999827
 20
-189.1576099999999769
 30
0.0
 11
116.3154899999999827
 21
-184.4575939999999719
 31
0.0
  0
LINE
  5
12F
100
AcDbEntity
100
AcDbLine
  8
0
 62
256
370
-1
 48
1.0
  6
BYLAYER
 10
117.8153599999999841
 20
-62.3346480000000014
 30
0.0
 11
117.8153599999999841
 21
-55.984648
 31
0.0
  0
LINE
  5
130
100
AcDbEntity
100
AcDbLine
  8
0
 62
256
370
-1
 48
1.0
  6
BYLAYER
 10
118.6154599999999988
 20
-115.8577819999999861
 30
0.0
 11
118.6154599999999988
 21
-119.8577740000000063
 31
0.0
  0
LINE
  5
131
100
AcDbEntity
100
AcDbLine
  8
0
 62
256
370
-1
 48
1.0
  6
BYLAYER
 10
118.6154599999999988
 20
-193.1576019999999971
 30
0.0
 11
118.6154599999999988
 21
-189.1576099999999769
 31
0.0
  0
LINE
  5
132
100
AcDbEntity
100
AcDbLine
  8
0
 62
256
370
-1
 48
1.0
  6
BYLAYER
 10
118.9654719999999912
 20
-87.4996979999999951
 30
0.0
 11
118.9654719999999912
 21
-93.8496979999999894
 31
0.0
  0
LINE
  5
133
100
AcDbEntity
100
AcDbLine
  8
0
 62
256
370
-1
 48
1.0
  6
BYLAYER
 10
120.3154820000000029
 20
-72.4997279999999904
 30
0.0
 11
120.3154820000000029
 21
-62.3346480000000014
 31
0.0
  0
LINE
  5
134
100
AcDbEntity
100
AcDbLine
  8
0
 62
256
370
-1
 48
1.0
  6
BYLAYER
 10
121.6154539999999855
 20
-104.5077920000000091
 30
0.0
 11
121.6154539999999855
 21
-110.8577920000000034
 31
0.0
  0
LINE
  5
135
100
AcDbEntity
100
AcDbLine
  8
0
 62
256
370
-1
 48
1.0
  6
BYLAYER
 10
121.6154539999999855
 20
-204.5075919999999883
 30
0.0
 11
121.6154539999999855
 21
-198.157591999999994
 31
0.0
  0
LINE
  5
136
100
AcDbEntity
100
AcDbLine
  8
0
 62
256
370
-1
 48
1.0
  6
BYLAYER
 10
125.3154719999999855
 20
-87.4996979999999951
 30
0.0
 11
125.3154719999999855
 21
-93.8496979999999894
 31
0.0
  0
LINE
  5
137
100
AcDbEntity
100
AcDbLine
  8
0
 62
256
370
-1
 48
1.0
  6
BYLAYER
 10
106.3370999999999924
 20
-170.7713119999999947
 30
0.0
 11
122.6007200000000097
 21
-154.5076919999999916
 31
0.0
  0
LINE
  5
138
100
AcDbEntity
100
AcDbLine
  8
0
 62
256
370
-1
 48
1.0
  6
BYLAYER
 10
130.3154619999999966
 20
-87.4996979999999951
 30
0.0
 11
130.3154619999999966
 21
-93.8496979999999894
 31
0.0
  0
LINE
  5
139
100
AcDbEntity
100
AcDbLine
  8
0
 62
256
370
-1
 48
1.0
  6
BYLAYER
 10
135.3154519999999934
 20
-62.3346480000000014
 30
0.0
 11
135.3154519999999934
 21
-72.4997279999999904
 31
0.0
  0
LINE
  5
13A
100
AcDbEntity
100
AcDbLine
  8
0
 62
256
370
-1
 48
1.0
  6
BYLAYER
 10
136.6654619999999909
 20
-87.4996979999999951
 30
0.0
 11
136.6654619999999909
 21
-93.8496979999999894
 31
0.0
  0
LINE
  5
13B
100
AcDbEntity
100
AcDbLine
  8
0
 62
256
370
-1
 48
1.0
  6
BYLAYER
 10
137.8153199999999856
 20
-55.984648
 30
0.0
 11
137.8153199999999856
 21
-62.3346480000000014
 31
0.0
  0
LINE
  5
13C
100
AcDbEntity
100
AcDbLine
  8
0
 62
256
370
-1
 48
1.0
  6
BYLAYER
 10
125.3154719999999855
 20
-87.4996979999999951
 30
0.0
 11
120.3154820000000029
 21
-72.4997279999999904
 31
0.0
  0
LINE
  5
13D
100
AcDbEntity
100
AcDbLine
  8
0
 62
256
370
-1
 48
1.0
  6
BYLAYER
 10
140.8153140000000008
 20
-82.4997079999999983
 30
0.0
 11
140.8153140000000008
 21
-78.4997159999999923
 31
0.0
  0
LINE
  5
13E
100
AcDbEntity
100
AcDbLine
  8
0
 62
256
370
-1
 48
1.0
  6
BYLAYER
 10
143.1152839999999742
 20
-87.4996979999999951
 30
0.0
 11
143.1152839999999742
 21
-82.4997079999999983
 31
0.0
  0
LINE
  5
13F
100
AcDbEntity
100
AcDbLine
  8
0
 62
256
370
-1
 48
1.0
  6
BYLAYER
 10
143.1152839999999742
 20
-78.4997159999999923
 30
0.0
 11
143.1152839999999742
 21
-73.7997000000000014
 31
0.0
  0
LINE
  5
140
100
AcDbEntity
100
AcDbLine
  8
0
 62
256
370
-1
 48
1.0
  6
BYLAYER
 10
144.065497999999991
 20
-156.7075859999999921
 30
0.0
 11
144.065497999999991
 21
-152.3077979999999911
 31
0.0
  0
LINE
  5
141
100
AcDbEntity
100
AcDbLine
  8
0
 62
256
370
-1
 48
1.0
  6
BYLAYER
 10
147.5153259999999875
 20
-87.4996979999999951
 30
0.0
 11
147.5153259999999875
 21
-82.4997079999999983
 31
0.0
  0
LINE
  5
142
100
AcDbEntity
100
AcDbLine
  8
0
 62
256
370
-1
 48
1.0
  6
BYLAYER
 10
147.5153259999999875
 20
-78.4997159999999923
 30
0.0
 11
147.5153259999999875
 21
-73.7997000000000014
 31
0.0
  0
LINE
  5
143
100
AcDbEntity
100
AcDbLine
  8
0
 62
256
370
-1
 48
1.0
  6
BYLAYER
 10
148.765513999999996
 20
-159.0078100000000063
 30
0.0
 11
148.765513999999996
 21
-156.7075859999999921
 31
0.0
  0
LINE
  5
144
100
AcDbEntity
100
AcDbLine
  8
0
 62
256
370
-1
 48
1.0
  6
BYLAYER
 10
148.765513999999996
 20
-152.3077979999999911
 30
0.0
 11
148.765513999999996
 21
-150.0075739999999769
 31
0.0
  0
LINE
  5
145
100
AcDbEntity
100
AcDbLine
  8
0
 62
256
370
-1
 48
1.0
  6
BYLAYER
 10
149.8152959999999894
 20
-82.4997079999999983
 30
0.0
 11
149.8152959999999894
 21
-78.4997159999999923
 31
0.0
  0
LINE
  5
146
100
AcDbEntity
100
AcDbLine
  8
0
 62
256
370
-1
 48
1.0
  6
BYLAYER
 10
152.7655059999999878
 20
-159.0078100000000063
 30
0.0
 11
152.7655059999999878
 21
-156.7075859999999921
 31
0.0
  0
LINE
  5
147
100
AcDbEntity
100
AcDbLine
  8
0
 62
256
370
-1
 48
1.0
  6
BYLAYER
 10
152.7655059999999878
 20
-152.3077979999999911
 30
0.0
 11
152.7655059999999878
 21
-150.0075739999999769
 31
0.0
  0
LINE
  5
148
100
AcDbEntity
100
AcDbLine
  8
0
 62
256
370
-1
 48
1.0
  6
BYLAYER
 10
170.3153819999999996
 20
-72.4997279999999904
 30
0.0
 11
170.3153819999999996
 21
-72.4997279999999904
 31
0.0
  0
LINE
  5
149
100
AcDbEntity
100
AcDbLine
  8
0
 62
256
370
-1
 48
1.0
  6
BYLAYER
 10
170.3153819999999996
 20
-72.4997279999999904
 30
0.0
 11
165.3153919999999744
 21
-87.4997233999999935
 31
0.0
  0
LINE
  5
14A
100
AcDbEntity
100
AcDbLine
  8
0
 62
256
370
-1
 48
1.0
  6
BYLAYER
 10
152.8152900000000045
 20
-62.3346480000000014
 30
0.0
 11
152.8152900000000045
 21
-55.984648
 31
0.0
  0
LINE
  5
14B
100
AcDbEntity
100
AcDbLine
  8
0
 62
256
370
-1
 48
1.0
  6
BYLAYER
 10
153.9654019999999832
 20
-87.4996979999999951
 30
0.0
 11
153.9654019999999832
 21
-93.8496979999999894
 31
0.0
  0
LINE
  5
14C
100
AcDbEntity
100
AcDbLine
  8
0
 62
256
370
-1
 48
1.0
  6
BYLAYER
 10
155.3154119999999807
 20
-62.3346480000000014
 30
0.0
 11
155.3154119999999807
 21
-62.3346480000000014
 31
0.0
  0
LINE
  5
14D
100
AcDbEntity
100
AcDbLine
  8
0
 62
256
370
-1
 48
1.0
  6
BYLAYER
 10
155.3154119999999807
 20
-72.499753400000003
 30
0.0
 11
155.3154119999999807
 21
-62.3346480000000014
 31
0.0
  0
LINE
  5
14E
100
AcDbEntity
100
AcDbLine
  8
0
 62
256
370
-1
 48
1.0
  6
BYLAYER
 10
157.7652419999999722
 20
-147.0075799999999902
 30
0.0
 11
157.7652419999999722
 21
-147.0075799999999902
 31
0.0
  0
LINE
  5
14F
100
AcDbEntity
100
AcDbLine
  8
0
 62
256
370
-1
 48
1.0
  6
BYLAYER
 10
157.7652419999999722
 20
-147.0075799999999902
 30
0.0
 11
157.7652419999999722
 21
-152.3075694000000055
 31
0.0
  0
LINE
  5
150
100
AcDbEntity
100
AcDbLine
  8
0
 62
256
370
-1
 48
1.0
  6
BYLAYER
 10
157.7652419999999722
 20
-156.7075859999999921
 30
0.0
 11
157.7652419999999722
 21
-156.7075859999999921
 31
0.0
  0
LINE
  5
151
100
AcDbEntity
100
AcDbLine
  8
0
 62
256
370
-1
 48
1.0
  6
BYLAYER
 10
157.7652419999999722
 20
-156.7075859999999921
 30
0.0
 11
157.7652419999999722
 21
-162.0075754000000074
 31
0.0
  0
LINE
  5
152
100
AcDbEntity
100
AcDbLine
  8
0
 62
256
370
-1
 48
1.0
  6
BYLAYER
 10
160.315402000000006
 20
-87.4996979999999951
 30
0.0
 11
160.315402000000006
 21
-87.4996979999999951
 31
0.0
  0
LINE
  5
153
100
AcDbEntity
100
AcDbLine
  8
0
 62
256
370
-1
 48
1.0
  6
BYLAYER
 10
160.315402000000006
 20
-87.4996979999999951
 30
0.0
 11
160.315402000000006
 21
-93.8496979999999894
 31
0.0
  0
LINE
  5
154
100
AcDbEntity
100
AcDbLine
  8
0
 62
256
370
-1
 48
1.0
  6
BYLAYER
 10
164.1152419999999665
 20
-162.007803999999993
 30
0.0
 11
164.1152419999999665
 21
-162.007803999999993
 31
0.0
  0
LINE
  5
155
100
AcDbEntity
100
AcDbLine
  8
0
 62
256
370
-1
 48
1.0
  6
BYLAYER
 10
164.1152419999999665
 20
-164.5078040799999997
 30
0.0
 11
164.1152419999999665
 21
-162.007803999999993
 31
0.0
  0
LINE
  5
156
100
AcDbEntity
100
AcDbLine
  8
0
 62
256
370
-1
 48
1.0
  6
BYLAYER
 10
164.1152419999999665
 20
-144.5077119999999979
 30
0.0
 11
164.1152419999999665
 21
-144.5077119999999979
 31
0.0
  0
LINE
  5
157
100
AcDbEntity
100
AcDbLine
  8
0
 62
256
370
-1
 48
1.0
  6
BYLAYER
 10
164.1152419999999665
 20
-147.0077120800000046
 30
0.0
 11
164.1152419999999665
 21
-144.5077119999999979
 31
0.0
  0
LINE
  5
158
100
AcDbEntity
100
AcDbLine
  8
0
 62
256
370
-1
 48
1.0
  6
BYLAYER
 10
160.315402000000006
 20
-87.4996979999999951
 30
0.0
 11
155.3154119999999807
 21
-72.4997279999999904
 31
0.0
  0
LINE
  5
159
100
AcDbEntity
100
AcDbLine
  8
0
 62
256
370
-1
 48
1.0
  6
BYLAYER
 10
165.3153919999999744
 20
-87.4996979999999951
 30
0.0
 11
165.3153919999999744
 21
-87.4996979999999951
 31
0.0
  0
LINE
  5
15A
100
AcDbEntity
100
AcDbLine
  8
0
 62
256
370
-1
 48
1.0
  6
BYLAYER
 10
165.3153919999999744
 20
-87.4996979999999951
 30
0.0
 11
165.3153919999999744
 21
-93.8496979999999894
 31
0.0
  0
LINE
  5
15B
100
AcDbEntity
100
AcDbLine
  8
0
 62
256
370
-1
 48
1.0
  6
BYLAYER
 10
170.3153819999999996
 20
-62.3346480000000014
 30
0.0
 11
170.3153819999999996
 21
-62.3346480000000014
 31
0.0
  0
LINE
  5
15C
100
AcDbEntity
100
AcDbLine
  8
0
 62
256
370
-1
 48
1.0
  6
BYLAYER
 10
170.3153819999999996
 20
-62.3346480000000014
 30
0.0
 11
170.3153819999999996
 21
-72.499753400000003
 31
0.0
  0
LINE
  5
15D
100
AcDbEntity
100
AcDbLine
  8
0
 62
256
370
-1
 48
1.0
  6
BYLAYER
 10
171.6653919999999687
 20
-87.4996979999999951
 30
0.0
 11
171.6653919999999687
 21
-87.4996979999999951
 31
0.0
  0
LINE
  5
15E
100
AcDbEntity
100
AcDbLine
  8
0
 62
256
370
-1
 48
1.0
  6
BYLAYER
 10
171.6653919999999687
 20
-87.4996979999999951
 30
0.0
 11
171.6653919999999687
 21
-93.8496979999999894
 31
0.0
  0
LINE
  5
15F
100
AcDbEntity
100
AcDbLine
  8
0
 62
256
370
-1
 48
1.0
  6
BYLAYER
 10
172.8152499999999918
 20
-55.984648
 30
0.0
 11
172.8152499999999918
 21
-55.984648
 31
0.0
  0
LINE
  5
160
100
AcDbEntity
100
AcDbLine
  8
0
 62
256
370
-1
 48
1.0
  6
BYLAYER
 10
172.8152499999999918
 20
-55.984648
 30
0.0
 11
172.8152499999999918
 21
-62.3346480000000014
 31
0.0
  0
LINE
  5
161
100
AcDbEntity
100
AcDbLine
  8
0
 62
256
370
-1
 48
1.0
  6
BYLAYER
 10
175.8152439999999785
 20
-78.4997159999999923
 30
0.0
 11
175.8152439999999785
 21
-78.4997159999999923
 31
0.0
  0
LINE
  5
162
100
AcDbEntity
100
AcDbLine
  8
0
 62
256
370
-1
 48
1.0
  6
BYLAYER
 10
175.8152439999999785
 20
-82.4997079999999983
 30
0.0
 11
175.8152439999999785
 21
-78.4997159999999923
 31
0.0
  0
LINE
  5
163
100
AcDbEntity
100
AcDbLine
  8
0
 62
256
370
-1
 48
1.0
  6
BYLAYER
 10
178.1152139999999804
 20
-82.4997079999999983
 30
0.0
 11
178.1152139999999804
 21
-82.4997079999999983
 31
0.0
  0
LINE
  5
164
100
AcDbEntity
100
AcDbLine
  8
0
 62
256
370
-1
 48
1.0
  6
BYLAYER
 10
178.1152139999999804
 20
-87.4996979999999951
 30
0.0
 11
178.1152139999999804
 21
-82.4997079999999983
 31
0.0
  0
LINE
  5
165
100
AcDbEntity
100
AcDbLine
  8
0
 62
256
370
-1
 48
1.0
  6
BYLAYER
 10
178.1152139999999804
 20
-73.7997000000000014
 30
0.0
 11
178.1152139999999804
 21
-73.7997000000000014
 31
0.0
  0
LINE
  5
166
100
AcDbEntity
100
AcDbLine
  8
0
 62
256
370
-1
 48
1.0
  6
BYLAYER
 10
178.1152139999999804
 20
-78.4996905999999939
 30
0.0
 11
178.1152139999999804
 21
-73.7997000000000014
 31
0.0
  0
LINE
  5
167
100
AcDbEntity
100
AcDbLine
  8
0
 62
256
370
-1
 48
1.0
  6
BYLAYER
 10
182.5152559999999937
 20
-82.4997079999999983
 30
0.0
 11
182.5152559999999937
 21
-82.4997079999999983
 31
0.0
  0
LINE
  5
168
100
AcDbEntity
100
AcDbLine
  8
0
 62
256
370
-1
 48
1.0
  6
BYLAYER
 10
182.5152559999999937
 20
-87.4996979999999951
 30
0.0
 11
182.5152559999999937
 21
-82.4997079999999983
 31
0.0
  0
LINE
  5
169
100
AcDbEntity
100
AcDbLine
  8
0
 62
256
370
-1
 48
1.0
  6
BYLAYER
 10
182.5152559999999937
 20
-73.7997000000000014
 30
0.0
 11
182.5152559999999937
 21
-73.7997000000000014
 31
0.0
  0
LINE
  5
16A
100
AcDbEntity
100
AcDbLine
  8
0
 62
256
370
-1
 48
1.0
  6
BYLAYER
 10
182.5152559999999937
 20
-78.4996905999999939
 30
0.0
 11
182.5152559999999937
 21
-73.7997000000000014
 31
0.0
  0
LINE
  5
16B
100
AcDbEntity
100
AcDbLine
  8
0
 62
256
370
-1
 48
1.0
  6
BYLAYER
 10
184.8152259999999956
 20
-78.4997159999999923
 30
0.0
 11
184.8152259999999956
 21
-78.4997159999999923
 31
0.0
  0
LINE
  5
16C
100
AcDbEntity
100
AcDbLine
  8
0
 62
256
370
-1
 48
1.0
  6
BYLAYER
 10
184.8152259999999956
 20
-82.4997079999999983
 30
0.0
 11
184.8152259999999956
 21
-78.4997159999999923
 31
0.0
  0
LINE
  5
16D
100
AcDbEntity
100
AcDbLine
  8
0
 62
256
370
-1
 48
1.0
  6
BYLAYER
 10
187.8152200000000107
 20
-55.984648
 30
0.0
 11
187.8152200000000107
 21
-55.984648
 31
0.0
  0
LINE
  5
16E
100
AcDbEntity
100
AcDbLine
  8
0
 62
256
370
-1
 48
1.0
  6
BYLAYER
 10
187.8152200000000107
 20
-62.3346480000000014
 30
0.0
 11
187.8152200000000107
 21
-55.984648
 31
0.0
  0
LINE
  5
16F
100
AcDbEntity
100
AcDbLine
  8
0
 62
256
370
-1
 48
1.0
  6
BYLAYER
 10
188.9653319999999894
 20
-87.4996979999999951
 30
0.0
 11
188.9653319999999894
 21
-87.4996979999999951
 31
0.0
  0
LINE
  5
170
100
AcDbEntity
100
AcDbLine
  8
0
 62
256
370
-1
 48
1.0
  6
BYLAYER
 10
188.9653319999999894
 20
-87.4996979999999951
 30
0.0
 11
188.9653319999999894
 21
-93.8496979999999894
 31
0.0
  0
LINE
  5
171
100
AcDbEntity
100
AcDbLine
  8
0
 62
256
370
-1
 48
1.0
  6
BYLAYER
 10
190.3153419999999869
 20
-62.3346480000000014
 30
0.0
 11
190.3153419999999869
 21
-62.3346480000000014
 31
0.0
  0
LINE
  5
172
100
AcDbEntity
100
AcDbLine
  8
0
 62
256
370
-1
 48
1.0
  6
BYLAYER
 10
190.3153419999999869
 20
-72.499753400000003
 30
0.0
 11
190.3153419999999869
 21
-62.3346480000000014
 31
0.0
  0
LINE
  5
173
100
AcDbEntity
100
AcDbLine
  8
0
 62
256
370
-1
 48
1.0
  6
BYLAYER
 10
195.3153319999999837
 20
-87.4996979999999951
 30
0.0
 11
195.3153319999999837
 21
-87.4996979999999951
 31
0.0
  0
LINE
  5
174
100
AcDbEntity
100
AcDbLine
  8
0
 62
256
370
-1
 48
1.0
  6
BYLAYER
 10
195.3153319999999837
 20
-87.4996979999999951
 30
0.0
 11
195.3153319999999837
 21
-93.8496979999999894
 31
0.0
  0
LINE
  5
175
100
AcDbEntity
100
AcDbLine
  8
0
 62
256
370
-1
 48
1.0
  6
BYLAYER
 10
195.3153319999999837
 20
-87.4996979999999951
 30
0.0
 11
190.3153419999999869
 21
-72.4997279999999904
 31
0.0
  0
ARC
  5
176
100
AcDbEntity
  8
0
 62
256
370
-1
 48
1.0
  6
BYLAYER
100
AcDbCircle
 10
-132.7842178086865204
 20
-158.1959486108270596
 30
0.0
 40
10.0003581916129161
100
AcDbArc
 50
180.0004433913782975
 51
224.9988842692816604
  0
ARC
  5
177
100
AcDbEntity
  8
0
 62
256
370
-1
 48
1.0
  6
BYLAYER
100
AcDbCircle
 10
-132.7846914040471802
 20
-158.1961516973869948
 30
0.0
 40
9.9998797033426943
100
AcDbArc
 50
224.9999801747700303
 51
270.0006921645317561
  0
ARC
  5
178
100
AcDbEntity
  8
0
 62
256
370
-1
 48
1.0
  6
BYLAYER
100
AcDbCircle
 10
-120.4949468848920873
 20
-138.8064622048920853
 30
0.0
 40
2.2000348851579776
100
AcDbArc
 50
0.0008908022360747
 51
89.9991091977817206
  0
ARC
  5
179
100
AcDbEntity
  8
0
 62
256
370
-1
 48
1.0
  6
BYLAYER
100
AcDbCircle
 10
-120.4948784751078819
 20
-138.8064622048921137
 30
0.0
 40
2.2000348851579776
100
AcDbArc
 50
90.0008908022183078
 51
179.9991091977639144
  0
ARC
  5
17A
100
AcDbEntity
  8
0
 62
256
370
-1
 48
1.0
  6
BYLAYER
100
AcDbCircle
 10
-120.4948784751078676
 20
-138.8063937951078515
 30
0.0
 40
2.2000348851580003
100
AcDbArc
 50
180.0008908022360572
 51
269.9991091977811948
  0
ARC
  5
17B
100
AcDbEntity
  8
0
 62
256
370
-1
 48
1.0
  6
BYLAYER
100
AcDbCircle
 10
-120.4949468848921015
 20
-138.8063937951078799
 30
0.0
 40
2.2000348851580003
100
AcDbArc
 50
270.0008908022188052
 51
359.9991091977639144
  0
ARC
  5
17C
100
AcDbEntity
  8
0
 62
256
370
-1
 48
1.0
  6
BYLAYER
100
AcDbCircle
 10
-54.274352884892096
 20
-138.8064622048920853
 30
0.0
 40
2.2000348851579883
100
AcDbArc
 50
0.0008908022360747
 51
89.9991091977817206
  0
ARC
  5
17D
100
AcDbEntity
  8
0
 62
256
370
-1
 48
1.0
  6
BYLAYER
100
AcDbCircle
 10
-54.2743495163747838
 20
-138.8063971636252347
 30
0.0
 40
2.1999698438413424
100
AcDbArc
 50
89.9991969011882276
 51
180.0008030988118435
  0
ARC
  5
17E
100
AcDbEntity
  8
0
 62
256
370
-1
 48
1.0
  6
BYLAYER
100
AcDbCircle
 10
-54.2743695700489397
 20
-138.8064788900447581
 30
0.0
 40
2.1999497905396823
100
AcDbArc
 50
179.9986746129999915
 51
269.998679303414292
  0
ARC
  5
17F
100
AcDbEntity
  8
0
 62
256
370
-1
 48
1.0
  6
BYLAYER
100
AcDbCircle
 10
-54.2743749377002302
 20
-138.8063742821111646
 30
0.0
 40
2.200054398356035
100
AcDbArc
 50
269.9988191551175873
 51
359.9986010307213178
  0
LINE
  5
180
100
AcDbEntity
100
AcDbLine
  8
0
 62
256
370
-1
 48
1.0
  6
BYLAYER
 10
-52.0743205400000022
 20
-138.8064279999999826
 30
0.0
 11
-52.0743179999999981
 21
-138.8064279999999826
 31
0.0
  0
ARC
  5
181
100
AcDbEntity
  8
0
 62
256
370
-1
 48
1.0
  6
BYLAYER
100
AcDbCircle
 10
-132.7845534925346556
 20
-53.196030690810062
 30
0.0
 40
10.000028690900427
100
AcDbArc
 50
90.0002435491373518
 51
135.0004894780224731
  0
ARC
  5
182
100
AcDbEntity
  8
0
 62
256
370
-1
 48
1.0
  6
BYLAYER
100
AcDbCircle
 10
-132.7845366795413327
 20
-53.1960648316772691
 30
0.0
 40
10.0000647206235858
100
AcDbArc
 50
135.0004192741592135
 51
179.9996709414148484
  0
ARC
  5
183
100
AcDbEntity
  8
0
 62
256
370
-1
 48
1.0
  6
BYLAYER
100
AcDbCircle
 10
-120.4948818436252367
 20
-72.5858031636252434
 30
0.0
 40
2.1999698438413646
100
AcDbArc
 50
359.9991969011881565
 51
90.0008030992486283
  0
ARC
  5
184
100
AcDbEntity
  8
0
 62
256
370
-1
 48
1.0
  6
BYLAYER
100
AcDbCircle
 10
-120.4949635700447459
 20
-72.5857831099510378
 30
0.0
 40
2.1999497905396832
100
AcDbArc
 50
89.9986746130312127
 51
179.9986793032342121
  0
ARC
  5
185
100
AcDbEntity
  8
0
 62
256
370
-1
 48
1.0
  6
BYLAYER
100
AcDbCircle
 10
-120.4947955440673297
 20
-72.5857143271113046
 30
0.0
 40
2.2001178160068871
100
AcDbArc
 50
180.0004706570002497
 51
269.9969495294625403
  0
ARC
  5
186
100
AcDbEntity
  8
0
 62
256
370
-1
 48
1.0
  6
BYLAYER
100
AcDbCircle
 10
-120.4949468848920873
 20
-72.5857972551078916
 30
0.0
 40
2.2000348851579883
100
AcDbArc
 50
270.0008908022359151
 51
359.9991091977639144
  0
LINE
  5
187
100
AcDbEntity
100
AcDbLine
  8
0
 62
256
370
-1
 48
1.0
  6
BYLAYER
 10
-118.2949119999999965
 20
-72.5858314599999943
 30
0.0
 11
-118.2949119999999965
 21
-72.5858339999999913
 31
0.0
  0
ARC
  5
188
100
AcDbEntity
  8
0
 62
256
370
-1
 48
1.0
  6
BYLAYER
100
AcDbCircle
 10
-54.2742878436252525
 20
-72.5858031636252576
 30
0.0
 40
2.1999698438413762
100
AcDbArc
 50
359.9991969011881565
 51
90.0008030992486283
  0
ARC
  5
189
100
AcDbEntity
  8
0
 62
256
370
-1
 48
1.0
  6
BYLAYER
100
AcDbCircle
 10
-54.2744346063201561
 20
-72.5857180706720868
 30
0.0
 40
2.1998847537265114
100
AcDbArc
 50
89.9969807105253068
 51
180.0003732065222835
  0
ARC
  5
18A
100
AcDbEntity
  8
0
 62
256
370
-1
 48
1.0
  6
BYLAYER
100
AcDbCircle
 10
-54.2742866388336012
 20
-72.5857994218717266
 30
0.0
 40
2.2000327221872862
100
AcDbArc
 50
179.9982545393861244
 51
269.996519563217646
  0
ARC
  5
18B
100
AcDbEntity
  8
0
 62
256
370
-1
 48
1.0
  6
BYLAYER
100
AcDbCircle
 10
-54.2743749377002445
 20
-72.5857777421112047
 30
0.0
 40
2.2000543983560359
100
AcDbArc
 50
269.9988191553754859
 51
359.9986010307213178
  0
LINE
  5
18C
100
AcDbEntity
100
AcDbLine
  8
0
 62
256
370
-1
 48
1.0
  6
BYLAYER
 10
-52.0743205400000022
 20
-72.5858314599999943
 30
0.0
 11
-52.0743179999999981
 21
-72.5858339999999913
 31
0.0
  0
ARC
  5
18D
100
AcDbEntity
  8
0
 62
256
370
-1
 48
1.0
  6
BYLAYER
100
AcDbCircle
 10
-8.6246635943726488
 20
-137.9281641943726413
 30
0.0
 40
1.5875681958372929
100
AcDbArc
 50
0.0024611539960693
 51
89.9975388460471777
  0
ARC
  5
18E
100
AcDbEntity
  8
0
 62
256
370
-1
 48
1.0
  6
BYLAYER
100
AcDbCircle
 10
-8.6245272056273539
 20
-137.9281641943726413
 30
0.0
 40
1.5875681958373089
100
AcDbArc
 50
90.0024611539961086
 51
179.9975388460039483
  0
ARC
  5
18F
100
AcDbEntity
  8
0
 62
256
370
-1
 48
1.0
  6
BYLAYER
100
AcDbCircle
 10
-8.6245272056273592
 20
-137.9280278056273517
 30
0.0
 40
1.5875681958372929
100
AcDbArc
 50
180.0024611539960517
 51
269.9975388460474619
  0
ARC
  5
190
100
AcDbEntity
  8
0
 62
256
370
-1
 48
1.0
  6
BYLAYER
100
AcDbCircle
 10
-8.6246635943726631
 20
-137.9280278056273517
 30
0.0
 40
1.587568195837316
100
AcDbArc
 50
270.0024611539533339
 51
359.9975388460039198
  0
ARC
  5
191
100
AcDbEntity
  8
0
 62
256
370
-1
 48
1.0
  6
BYLAYER
100
AcDbCircle
 10
-8.6246635943726506
 20
-109.9881641943726578
 30
0.0
 40
1.587568195837316
100
AcDbArc
 50
0.0024611539960693
 51
89.9975388460470782
  0
ARC
  5
192
100
AcDbEntity
  8
0
 62
256
370
-1
 48
1.0
  6
BYLAYER
100
AcDbCircle
 10
-8.6245272056273521
 20
-109.9881641943726578
 30
0.0
 40
1.5875681958373089
100
AcDbArc
 50
90.0024611539961086
 51
179.9975388460039483
  0
ARC
  5
193
100
AcDbEntity
  8
0
 62
256
370
-1
 48
1.0
  6
BYLAYER
100
AcDbCircle
 10
-8.624527205627345
 20
-109.9880278056273539
 30
0.0
 40
1.5875681958372929
100
AcDbArc
 50
180.0024611539960517
 51
269.9975388460470072
  0
ARC
  5
194
100
AcDbEntity
  8
0
 62
256
370
-1
 48
1.0
  6
BYLAYER
100
AcDbCircle
 10
-8.6246635943726524
 20
-109.9880278056273539
 30
0.0
 40
1.5875681958373089
100
AcDbArc
 50
270.002461153996137
 51
359.9975388460039198
  0
ARC
  5
195
100
AcDbEntity
  8
0
 62
256
370
-1
 48
1.0
  6
BYLAYER
100
AcDbCircle
 10
114.1152341913088293
 20
-154.5075841913088652
 30
0.0
 40
50.9899662974646404
100
AcDbArc
 50
101.3098374430860815
 51
168.6901625569140037
  0
ARC
  5
196
100
AcDbEntity
  8
0
 62
256
370
-1
 48
1.0
  6
BYLAYER
100
AcDbCircle
 10
114.1150073406508483
 20
-154.5080266593491558
 30
0.0
 40
50.9896993636245099
100
AcDbArc
 50
191.3096374777937854
 51
258.6903625222061578
  0
ARC
  5
197
100
AcDbEntity
  8
0
 62
256
370
-1
 48
1.0
  6
BYLAYER
100
AcDbCircle
 10
114.115279668090011
 20
-154.5076296680900612
 30
0.0
 40
50.990166501320715
100
AcDbArc
 50
281.3099874179799258
 51
348.690012582020131
  0
ARC
  5
198
100
AcDbEntity
  8
0
 62
256
370
-1
 48
1.0
  6
BYLAYER
100
AcDbCircle
 10
114.1152796680900678
 20
-154.507754331909922
 30
0.0
 40
50.9901665013206227
100
AcDbArc
 50
11.3099874179798974
 51
78.6900125820202305
  0
ARC
  5
199
100
AcDbEntity
  8
0
 62
256
370
-1
 48
1.0
  6
BYLAYER
100
AcDbCircle
 10
47.2153198531747691
 20
-158.1958874048844166
 30
0.0
 40
10.00011859513946
100
AcDbArc
 50
269.9998747918315871
 51
314.999452868681999
  0
ARC
  5
19A
100
AcDbEntity
  8
0
 62
256
370
-1
 48
1.0
  6
BYLAYER
100
AcDbCircle
 10
47.2150071484867553
 20
-158.1959488667066296
 30
0.0
 40
10.0002962516470539
100
AcDbArc
 50
315.0009687404578926
 51
359.9997036003326798
  0
ARC
  5
19B
100
AcDbEntity
  8
0
 62
256
370
-1
 48
1.0
  6
BYLAYER
100
AcDbCircle
 10
100.8570932951046615
 20
-167.7660016648953842
 30
0.0
 40
0.7500187051034195
100
AcDbArc
 50
0.0013494661555933
 51
89.9986505350589852
  0
ARC
  5
19C
100
AcDbEntity
  8
0
 62
256
370
-1
 48
1.0
  6
BYLAYER
100
AcDbCircle
 10
100.8571286248953527
 20
-167.7660016648953842
 30
0.0
 40
0.7500187051033971
100
AcDbArc
 50
90.0013494649445107
 51
179.9986505349247068
  0
ARC
  5
19D
100
AcDbEntity
  8
0
 62
256
370
-1
 48
1.0
  6
BYLAYER
100
AcDbCircle
 10
100.8571286248953811
 20
-167.7659663351046504
 30
0.0
 40
0.750018705103375
100
AcDbArc
 50
180.0013494650752932
 51
269.9986505350537982
  0
ARC
  5
19E
100
AcDbEntity
  8
0
 62
256
370
-1
 48
1.0
  6
BYLAYER
100
AcDbCircle
 10
100.8570932951046473
 20
-167.7659663351046504
 30
0.0
 40
0.750018705103375
100
AcDbArc
 50
270.0013494649427344
 51
359.9986505349247068
  0
ARC
  5
19F
100
AcDbEntity
  8
0
 62
256
370
-1
 48
1.0
  6
BYLAYER
100
AcDbCircle
 10
119.5954352951047071
 20
-149.0276596648952818
 30
0.0
 40
0.7500187051033067
100
AcDbArc
 50
0.0013494661555933
 51
89.9986505350615289
  0
ARC
  5
1A0
100
AcDbEntity
  8
0
 62
256
370
-1
 48
1.0
  6
BYLAYER
100
AcDbCircle
 10
119.5954072119020424
 20
-149.0275962519020254
 30
0.0
 40
0.749955293297377
100
AcDbArc
 50
89.9965048944132775
 51
180.0034951056176737
  0
ARC
  5
1A1
100
AcDbEntity
  8
0
 62
256
370
-1
 48
1.0
  6
BYLAYER
100
AcDbCircle
 10
119.5954055860688925
 20
-149.0276893739311674
 30
0.0
 40
0.7499536675650881
100
AcDbArc
 50
179.9963806746659714
 51
270.0036193253408783
  0
ARC
  5
1A2
100
AcDbEntity
  8
0
 62
256
370
-1
 48
1.0
  6
BYLAYER
100
AcDbCircle
 10
119.5954352951047355
 20
-149.0276243351047185
 30
0.0
 40
0.7500187051032843
100
AcDbArc
 50
270.0013494649367658
 51
359.9986505349247068
  0
ARC
  5
1A3
100
AcDbEntity
  8
0
 62
256
370
-1
 48
1.0
  6
BYLAYER
100
AcDbCircle
 10
75.3151402932452072
 20
-57.9998778535223281
 30
0.0
 40
9.9998564880335561
100
AcDbArc
 50
113.5773763916884036
 51
168.3746890984984077
  0
ARC
  5
1A4
100
AcDbEntity
  8
0
 62
256
370
-1
 48
1.0
  6
BYLAYER
100
AcDbCircle
 10
75.3157318814343313
 20
-57.9995595485115487
 30
0.0
 40
9.999691243267101
100
AcDbArc
 50
11.6245351874633158
 51
66.4224165470147767
  0
ARC
  5
1A5
100
AcDbEntity
  8
0
 62
256
370
-1
 48
1.0
  6
BYLAYER
100
AcDbCircle
 10
110.3153242932453111
 20
-57.9998778535224062
 30
0.0
 40
9.9998564880336733
100
AcDbArc
 50
113.577376391688631
 51
168.3746890984981519
  0
ARC
  5
1A6
100
AcDbEntity
  8
0
 62
256
370
-1
 48
1.0
  6
BYLAYER
100
AcDbCircle
 10
110.3156618814342238
 20
-57.999559548511634
 30
0.0
 40
9.9996912432672218
100
AcDbArc
 50
11.6245351874635663
 51
66.4224165470144357
  0
ARC
  5
1A7
100
AcDbEntity
  8
0
 62
256
370
-1
 48
1.0
  6
BYLAYER
100
AcDbCircle
 10
145.3152542932451183
 20
-57.9998778535222428
 30
0.0
 40
9.9998564880334406
100
AcDbArc
 50
113.5773763916879773
 51
168.3746890984988056
  0
ARC
  5
1A8
100
AcDbEntity
  8
0
 62
256
370
-1
 48
1.0
  6
BYLAYER
100
AcDbCircle
 10
145.3159016657208724
 20
-57.9992516475252415
 30
0.0
 40
9.9993257745685558
100
AcDbArc
 50
11.6231647809861016
 51
66.4228041644941669
  0
ARC
  5
1A9
100
AcDbEntity
  8
0
 62
256
370
-1
 48
1.0
  6
BYLAYER
100
AcDbCircle
 10
180.3151842932450961
 20
-57.9998778535222144
 30
0.0
 40
9.9998564880334069
100
AcDbArc
 50
113.5773763916879346
 51
168.3746890984988909
  0
ARC
  5
1AA
100
AcDbEntity
  8
0
 62
256
370
-1
 48
1.0
  6
BYLAYER
100
AcDbCircle
 10
180.315521881434222
 20
-57.999559548511634
 30
0.0
 40
9.9996912432672218
100
AcDbArc
 50
11.6245351874635663
 51
66.4224165470144357
  0
ARC
  5
1AB
100
AcDbEntity
  8
0
 62
256
370
-1
 48
1.0
  6
BYLAYER
100
AcDbCircle
 10
47.2151557648186539
 20
-53.1960632550024215
 30
0.0
 40
10.0001222355114869
100
AcDbArc
 50
0.0004655517388482
 51
44.9994442318035084
  0
ARC
  5
1AC
100
AcDbEntity
  8
0
 62
256
370
-1
 48
1.0
  6
BYLAYER
100
AcDbCircle
 10
47.2151780222906936
 20
-53.1961309972248984
 30
0.0
 40
10.0001543976721496
100
AcDbArc
 50
44.9998088548317483
 51
89.9994581180086186
  0
ARC
  5
1AD
100
AcDbEntity
  8
0
 62
256
370
-1
 48
1.0
  6
BYLAYER
100
AcDbCircle
 10
75.3154961563747065
 20
-59.1596171636252635
 30
0.0
 40
2.1999698438413762
100
AcDbArc
 50
359.9991969011881565
 51
90.0008030992477615
  0
ARC
  5
1AE
100
AcDbEntity
  8
0
 62
256
370
-1
 48
1.0
  6
BYLAYER
100
AcDbCircle
 10
75.3154361095712375
 20
-59.1596187895712617
 30
0.0
 40
2.1999714697651749
100
AcDbArc
 50
89.9992392472774156
 51
180.0007607525629965
  0
ARC
  5
1AF
100
AcDbEntity
  8
0
 62
256
370
-1
 48
1.0
  6
BYLAYER
100
AcDbCircle
 10
75.3154361095712233
 20
-59.1596772104287609
 30
0.0
 40
2.1999714697651638
100
AcDbArc
 50
179.9992392474370035
 51
270.0007607527231244
  0
ARC
  5
1B0
100
AcDbEntity
  8
0
 62
256
370
-1
 48
1.0
  6
BYLAYER
100
AcDbCircle
 10
75.3154311151078417
 20
-59.1596137951078305
 30
0.0
 40
2.2000348851580567
100
AcDbArc
 50
270.0008908022197716
 51
359.9991091977639144
  0
ARC
  5
1B1
100
AcDbEntity
  8
0
 62
256
370
-1
 48
1.0
  6
BYLAYER
100
AcDbCircle
 10
110.3154261563746559
 20
-59.1596171636253203
 30
0.0
 40
2.1999698438414321
100
AcDbArc
 50
359.9991969011881565
 51
90.0008030992462835
  0
ARC
  5
1B2
100
AcDbEntity
  8
0
 62
256
370
-1
 48
1.0
  6
BYLAYER
100
AcDbCircle
 10
110.3153661095712437
 20
-59.1596187895712831
 30
0.0
 40
2.1999714697651638
100
AcDbArc
 50
89.9992392472774156
 51
180.0007607525629965
  0
ARC
  5
1B3
100
AcDbEntity
  8
0
 62
256
370
-1
 48
1.0
  6
BYLAYER
100
AcDbCircle
 10
110.3153661095712295
 20
-59.1596772104287822
 30
0.0
 40
2.1999714697651411
100
AcDbArc
 50
179.9992392474370035
 51
270.0007607527231244
  0
ARC
  5
1B4
100
AcDbEntity
  8
0
 62
256
370
-1
 48
1.0
  6
BYLAYER
100
AcDbCircle
 10
110.3153611151078479
 20
-59.1596137951078305
 30
0.0
 40
2.200034885158034
100
AcDbArc
 50
270.0008908022359151
 51
359.9991091977639144
  0
ARC
  5
1B5
100
AcDbEntity
  8
0
 62
256
370
-1
 48
1.0
  6
BYLAYER
100
AcDbCircle
 10
145.3153561563746621
 20
-59.1596171636253416
 30
0.0
 40
2.1999698438414552
100
AcDbArc
 50
359.9991969011881565
 51
90.0008030992462835
  0
ARC
  5
1B6
100
AcDbEntity
  8
0
 62
256
370
-1
 48
1.0
  6
BYLAYER
100
AcDbCircle
 10
145.3152961095712783
 20
-59.1596187895712688
 30
0.0
 40
2.1999714697651864
100
AcDbArc
 50
89.9992392472780267
 51
180.0007607525629965
  0
ARC
  5
1B7
100
AcDbEntity
  8
0
 62
256
370
-1
 48
1.0
  6
BYLAYER
100
AcDbCircle
 10
145.3152961095712499
 20
-59.1596772104287751
 30
0.0
 40
2.1999714697651531
100
AcDbArc
 50
179.9992392474370035
 51
270.0007607527260802
  0
ARC
  5
1B8
100
AcDbEntity
  8
0
 62
256
370
-1
 48
1.0
  6
BYLAYER
100
AcDbCircle
 10
145.3152911151078115
 20
-59.1596137951078305
 30
0.0
 40
2.2000348851580789
100
AcDbArc
 50
270.0008908022206242
 51
359.9991091977639144
  0
ARC
  5
1B9
100
AcDbEntity
  8
0
 62
256
370
-1
 48
1.0
  6
BYLAYER
100
AcDbCircle
 10
180.3152861563746683
 20
-59.1596171636252919
 30
0.0
 40
2.1999698438414099
100
AcDbArc
 50
359.9991969011881565
 51
90.0008030992462835
  0
ARC
  5
1BA
100
AcDbEntity
  8
0
 62
256
370
-1
 48
1.0
  6
BYLAYER
100
AcDbCircle
 10
180.3152261095712561
 20
-59.1596187895712475
 30
0.0
 40
2.1999714697651638
100
AcDbArc
 50
89.9992392472774156
 51
180.0007607525629965
  0
ARC
  5
1BB
100
AcDbEntity
  8
0
 62
256
370
-1
 48
1.0
  6
BYLAYER
100
AcDbCircle
 10
180.3152261095712561
 20
-59.1596772104287751
 30
0.0
 40
2.1999714697651531
100
AcDbArc
 50
179.9992392474370035
 51
270.0007607527260802
  0
ARC
  5
1BC
100
AcDbEntity
  8
0
 62
256
370
-1
 48
1.0
  6
BYLAYER
100
AcDbCircle
 10
180.3152211151078461
 20
-59.1596137951078305
 30
0.0
 40
2.2000348851580567
100
AcDbArc
 50
270.0008908022359151
 51
359.9991091977639144
  0
ARC
  5
1BD
100
AcDbEntity
  8
0
 62
256
370
-1
 48
1.0
  6
BYLAYER
100
AcDbCircle
 10
42.9373618056273543
 20
-105.9241641943726222
 30
0.0
 40
1.5875681958372916
100
AcDbArc
 50
0.0024611539960693
 51
89.9975388460474903
  0
ARC
  5
1BE
100
AcDbEntity
  8
0
 62
256
370
-1
 48
1.0
  6
BYLAYER
100
AcDbCircle
 10
42.937498194372651
 20
-105.9241641943726506
 30
0.0
 40
1.5875681958373089
100
AcDbArc
 50
90.0024611539961086
 51
179.9975388460039483
  0
ARC
  5
1BF
100
AcDbEntity
  8
0
 62
256
370
-1
 48
1.0
  6
BYLAYER
100
AcDbCircle
 10
42.937498194372651
 20
-105.9240278056273468
 30
0.0
 40
1.5875681958372916
100
AcDbArc
 50
180.0024611539960517
 51
269.997538846047064
  0
ARC
  5
1C0
100
AcDbEntity
  8
0
 62
256
370
-1
 48
1.0
  6
BYLAYER
100
AcDbCircle
 10
42.9373618056273401
 20
-105.9240278056273468
 30
0.0
 40
1.5875681958373089
100
AcDbArc
 50
270.0024611539531065
 51
359.9975388460039198
  0
ARC
  5
1C1
100
AcDbEntity
  8
0
 62
256
370
-1
 48
1.0
  6
BYLAYER
100
AcDbCircle
 10
40.6513618056273458
 20
-153.4221641943726411
 30
0.0
 40
1.5875681958372916
100
AcDbArc
 50
0.0024611539960693
 51
89.9975388460470782
  0
ARC
  5
1C2
100
AcDbEntity
  8
0
 62
256
370
-1
 48
1.0
  6
BYLAYER
100
AcDbCircle
 10
40.6514981943726426
 20
-153.4221641943726411
 30
0.0
 40
1.5875681958373089
100
AcDbArc
 50
90.0024611539961086
 51
179.9975388460039483
  0
ARC
  5
1C3
100
AcDbEntity
  8
0
 62
256
370
-1
 48
1.0
  6
BYLAYER
100
AcDbCircle
 10
40.6514981943726355
 20
-153.422027805627323
 30
0.0
 40
1.5875681958373145
100
AcDbArc
 50
180.0024611539960517
 51
269.9975388460474619
  0
ARC
  5
1C4
100
AcDbEntity
  8
0
 62
256
370
-1
 48
1.0
  6
BYLAYER
100
AcDbCircle
 10
40.6513618056273387
 20
-153.4220278056272946
 30
0.0
 40
1.5875681958373089
100
AcDbArc
 50
270.0024611539531065
 51
359.9975388460039198
  0
ARC
  5
1C5
100
AcDbEntity
  8
0
 62
256
370
-1
 48
1.0
  6
BYLAYER
100
AcDbCircle
 10
42.2383271409270904
 20
-85.1820375705745789
 30
0.0
 40
3.774525959808479
100
AcDbArc
 50
137.8345630854533681
 51
157.8922897652207382
  0
ARC
  5
1C6
100
AcDbEntity
  8
0
 62
256
370
-1
 48
1.0
  6
BYLAYER
100
AcDbCircle
 10
33.3730483458596723
 20
-81.638933278504112
 30
0.0
 40
5.7726542976471409
100
AcDbArc
 50
322.4349724796641681
 51
338.4265819742737449
  0
ARC
  5
1C7
100
AcDbEntity
  8
0
 62
256
370
-1
 48
1.0
  6
BYLAYER
100
AcDbCircle
 10
37.0049180964227773
 20
-84.1882954651573812
 30
0.0
 40
1.3534548172513841
100
AcDbArc
 50
265.1467868557126621
 51
314.2184272118662989
  0
ARC
  5
1C8
100
AcDbEntity
  8
0
 62
256
370
-1
 48
1.0
  6
BYLAYER
100
AcDbCircle
 10
36.9373885433217239
 20
-83.9706716430857938
 30
0.0
 40
1.5669304723110671
100
AcDbArc
 50
224.2876517244379784
 51
268.2819928771980926
  0
ARC
  5
1C9
100
AcDbEntity
  8
0
 62
256
370
-1
 48
1.0
  6
BYLAYER
100
AcDbCircle
 10
37.0407801462930735
 20
-83.8306866057389612
 30
0.0
 40
1.7389144000493815
100
AcDbArc
 50
176.499013597706778
 51
225.2106971644168425
  0
ARC
  5
1CA
100
AcDbEntity
  8
0
 62
256
370
-1
 48
1.0
  6
BYLAYER
100
AcDbCircle
 10
37.2604068857532553
 20
-83.712499116547491
 30
0.0
 40
1.9553327049397073
100
AcDbArc
 50
158.8156117680609327
 51
180.3516131214178699
  0
ARC
  5
1CB
100
AcDbEntity
  8
0
 62
256
370
-1
 48
1.0
  6
BYLAYER
100
AcDbCircle
 10
34.0177026326406207
 20
-82.3603093105323154
 30
0.0
 40
1.5594200559627682
100
AcDbArc
 50
335.5440337737065875
 51
354.2627163371985262
  0
ARC
  5
1CC
100
AcDbEntity
  8
0
 62
256
370
-1
 48
1.0
  6
BYLAYER
100
AcDbCircle
 10
35.1667386865873084
 20
-82.5137440898987649
 30
0.0
 40
0.4025799378764714
100
AcDbArc
 50
359.6504377180179404
 51
30.6684695174246009
  0
ARC
  5
1CD
100
AcDbEntity
  8
0
 62
256
370
-1
 48
1.0
  6
BYLAYER
100
AcDbCircle
 10
35.1100763254182056
 20
-82.5869283479269001
 30
0.0
 40
0.4898308376340935
100
AcDbArc
 50
34.6541151033372401
 51
66.5363358644567882
  0
LINE
  5
1CE
100
AcDbEntity
100
AcDbLine
  8
0
 62
256
370
-1
 48
1.0
  6
BYLAYER
 10
35.3051109999999966
 20
-82.1376002660000069
 30
0.0
 11
36.8533121199999911
 21
-81.9878002100000032
 31
0.0
  0
LINE
  5
1CF
100
AcDbEntity
100
AcDbLine
  8
0
 62
256
370
-1
 48
1.0
  6
BYLAYER
 10
36.8533121199999911
 20
-81.9878002100000032
 30
0.0
 11
36.9290119939999926
 21
-82.1763002140000083
 31
0.0
  0
ARC
  5
1D0
100
AcDbEntity
  8
0
 62
256
370
-1
 48
1.0
  6
BYLAYER
100
AcDbCircle
 10
37.8549684940196229
 20
-84.784003817212664
 30
0.0
 40
2.7672212636753155
100
AcDbArc
 50
109.549188573738391
 51
136.3463813728614014
  0
ARC
  5
1D1
100
AcDbEntity
  8
0
 62
256
370
-1
 48
1.0
  6
BYLAYER
100
AcDbCircle
 10
37.0222896988365591
 20
-83.7382651099690065
 30
0.0
 40
1.4542971620325407
100
AcDbArc
 50
143.5285892570746569
 51
182.4407600463819392
  0
ARC
  5
1D2
100
AcDbEntity
  8
0
 62
256
370
-1
 48
1.0
  6
BYLAYER
100
AcDbCircle
 10
36.6567797317521737
 20
-83.9315220530671553
 30
0.0
 40
1.0953685207834063
100
AcDbArc
 50
173.1142506823045437
 51
230.8767793556552306
  0
ARC
  5
1D3
100
AcDbEntity
  8
0
 62
256
370
-1
 48
1.0
  6
BYLAYER
100
AcDbCircle
 10
36.8187303696454364
 20
-83.5360308599758525
 30
0.0
 40
1.5094706929319752
100
AcDbArc
 50
235.5854442992919928
 51
269.9044519075141011
  0
ARC
  5
1D4
100
AcDbEntity
  8
0
 62
256
370
-1
 48
1.0
  6
BYLAYER
100
AcDbCircle
 10
36.8589569812387836
 20
-84.1476420588184197
 30
0.0
 40
0.8988742618181035
100
AcDbArc
 50
267.2744063594032013
 51
313.4131549679495379
  0
ARC
  5
1D5
100
AcDbEntity
  8
0
 62
256
370
-1
 48
1.0
  6
BYLAYER
100
AcDbCircle
 10
32.9604079267138346
 20
-81.447302844949391
 30
0.0
 40
5.6250869123916694
100
AcDbArc
 50
323.4065981641804797
 51
339.0322409243750599
  0
ARC
  5
1D6
100
AcDbEntity
  8
0
 62
256
370
-1
 48
1.0
  6
BYLAYER
100
AcDbCircle
 10
41.3973716319024163
 20
-84.6063948586393053
 30
0.0
 40
3.3843625284825856
100
AcDbArc
 50
133.635909594139008
 51
160.2038756697654094
  0
ARC
  5
1D7
100
AcDbEntity
  8
0
 62
256
370
-1
 48
1.0
  6
BYLAYER
100
AcDbCircle
 10
40.1453756741669636
 20
-83.4382481838918295
 30
0.0
 40
1.6779428923759572
100
AcDbArc
 50
88.9298313173270429
 51
130.2188257578231685
  0
ARC
  5
1D8
100
AcDbEntity
  8
0
 62
256
370
-1
 48
1.0
  6
BYLAYER
100
AcDbCircle
 10
40.1829343752398671
 20
-83.5272547262974996
 30
0.0
 40
1.7666677037356944
100
AcDbArc
 50
47.1189287388514728
 51
90.2017234272631185
  0
ARC
  5
1D9
100
AcDbEntity
  8
0
 62
256
370
-1
 48
1.0
  6
BYLAYER
100
AcDbCircle
 10
40.1644054329745401
 20
-83.4909128269641485
 30
0.0
 40
1.7530646731395909
100
AcDbArc
 50
356.1016903094057398
 51
45.8668234430822608
  0
ARC
  5
1DA
100
AcDbEntity
  8
0
 62
256
370
-1
 48
1.0
  6
BYLAYER
100
AcDbCircle
 10
40.076346068994475
 20
-83.6249990765237357
 30
0.0
 40
1.8371283905542866
100
AcDbArc
 50
338.1346057597460231
 51
0.4647840640386955
  0
ARC
  5
1DB
100
AcDbEntity
  8
0
 62
256
370
-1
 48
1.0
  6
BYLAYER
100
AcDbCircle
 10
43.0780011108907246
 20
-84.9170648839684645
 30
0.0
 40
1.4320971804026126
100
AcDbArc
 50
154.8834659621796277
 51
176.0452727090315364
  0
ARC
  5
1DC
100
AcDbEntity
  8
0
 62
256
370
-1
 48
1.0
  6
BYLAYER
100
AcDbCircle
 10
42.0591432593083852
 20
-84.8104634068931915
 30
0.0
 40
0.4099041362329997
100
AcDbArc
 50
181.0948515818022884
 51
214.9865008132436515
  0
ARC
  5
1DD
100
AcDbEntity
  8
0
 62
256
370
-1
 48
1.0
  6
BYLAYER
100
AcDbCircle
 10
47.1465752087673948
 20
-81.3437949672942011
 30
0.0
 40
6.5661517911382639
100
AcDbArc
 50
214.3158784916832929
 51
217.1563216945237969
  0
LINE
  5
1DE
100
AcDbEntity
100
AcDbLine
  8
0
 62
256
370
-1
 48
1.0
  6
BYLAYER
 10
41.9134140140000042
 20
-85.3096962840000117
 30
0.0
 11
40.0624144140000027
 21
-85.6125963639999981
 31
0.0
  0
LINE
  5
1DF
100
AcDbEntity
100
AcDbLine
  8
0
 62
256
370
-1
 48
1.0
  6
BYLAYER
 10
40.0624144140000027
 20
-85.6125963639999981
 30
0.0
 11
39.9867145399999941
 21
-85.3853964120000057
 31
0.0
  0
ARC
  5
1E0
100
AcDbEntity
  8
0
 62
256
370
-1
 48
1.0
  6
BYLAYER
100
AcDbCircle
 10
39.5161141445221844
 20
-83.0305728295955561
 30
0.0
 40
2.4013868568958228
100
AcDbArc
 50
281.3014087762159647
 51
317.6206274398013534
  0
ARC
  5
1E1
100
AcDbEntity
  8
0
 62
256
370
-1
 48
1.0
  6
BYLAYER
100
AcDbCircle
 10
39.9145013860156226
 20
-83.5918875456492287
 30
0.0
 40
1.7349162069680586
100
AcDbArc
 50
322.4517977168339371
 51
0.6239520159889295
  0
ARC
  5
1E2
100
AcDbEntity
  8
0
 62
256
370
-1
 48
1.0
  6
BYLAYER
100
AcDbCircle
 10
40.4565409125001736
 20
-83.4857335954071829
 30
0.0
 40
1.1959614742354119
100
AcDbArc
 50
355.8158041897427211
 51
47.0961953816371803
  0
ARC
  5
1E3
100
AcDbEntity
  8
0
 62
256
370
-1
 48
1.0
  6
BYLAYER
100
AcDbCircle
 10
40.287329643325819
 20
-83.9385008921480846
 30
0.0
 40
1.6531101099207115
100
AcDbArc
 50
53.4966448583145677
 51
93.8367313609754063
  0
ARC
  5
1E4
100
AcDbEntity
  8
0
 62
256
370
-1
 48
1.0
  6
BYLAYER
100
AcDbCircle
 10
40.2289968402188478
 20
-83.3300742391002984
 30
0.0
 40
1.042290577342678
100
AcDbArc
 50
92.8752390479419745
 51
139.1473206785358627
  0
LINE
  5
1E5
100
AcDbEntity
100
AcDbLine
  8
0
 62
256
370
-1
 48
1.0
  6
BYLAYER
 10
39.4406145399999986
 20
-82.6482949520000147
 30
0.0
 11
39.4406120000000016
 21
-82.6482979999999969
 31
0.0
  0
ARC
  5
1E6
100
AcDbEntity
  8
0
 62
256
370
-1
 48
1.0
  6
BYLAYER
100
AcDbCircle
 10
39.7148256478452311
 20
-79.2127118293651478
 30
0.0
 40
2.3980212858369336
100
AcDbArc
 50
89.8163654236370377
 51
128.77560502105257
  0
ARC
  5
1E7
100
AcDbEntity
  8
0
 62
256
370
-1
 48
1.0
  6
BYLAYER
100
AcDbCircle
 10
39.7991753440530687
 20
-79.0574113347691565
 30
0.0
 40
2.2440184199895348
100
AcDbArc
 50
48.3667556807094172
 51
91.9578171011229983
  0
ARC
  5
1E8
100
AcDbEntity
  8
0
 62
256
370
-1
 48
1.0
  6
BYLAYER
100
AcDbCircle
 10
40.0978043881177726
 20
-78.7498056182931236
 30
0.0
 40
1.8158105215904716
100
AcDbArc
 50
359.1417951411412446
 51
48.9611844006870101
  0
ARC
  5
1E9
100
AcDbEntity
  8
0
 62
256
370
-1
 48
1.0
  6
BYLAYER
100
AcDbCircle
 10
40.1424415818948432
 20
-78.8271415364533965
 30
0.0
 40
1.7716792486242035
100
AcDbArc
 50
309.5563648866626636
 51
1.6216965774242011
  0
ARC
  5
1EA
100
AcDbEntity
  8
0
 62
256
370
-1
 48
1.0
  6
BYLAYER
100
AcDbCircle
 10
39.7797417286432378
 20
-78.4405544455006236
 30
0.0
 40
2.3009611122159379
100
AcDbArc
 50
268.5747708859226464
 51
310.3892779582201911
  0
ARC
  5
1EB
100
AcDbEntity
  8
0
 62
256
370
-1
 48
1.0
  6
BYLAYER
100
AcDbCircle
 10
39.7193210314543066
 20
-78.3956050452974011
 30
0.0
 40
2.3452008447088519
100
AcDbArc
 50
230.0368971161617822
 51
270.0779431824441303
  0
ARC
  5
1EC
100
AcDbEntity
  8
0
 62
256
370
-1
 48
1.0
  6
BYLAYER
100
AcDbCircle
 10
39.266850011552215
 20
-78.8158665823562643
 30
0.0
 40
1.7341729075596861
100
AcDbArc
 50
178.7158594671738001
 51
232.5774108041919419
  0
ARC
  5
1ED
100
AcDbEntity
  8
0
 62
256
370
-1
 48
1.0
  6
BYLAYER
100
AcDbCircle
 10
39.2528988089786921
 20
-78.7144135253545869
 30
0.0
 40
1.7209247148834708
100
AcDbArc
 50
127.1756367571984612
 51
182.0842792924422326
  0
LINE
  5
1EE
100
AcDbEntity
100
AcDbLine
  8
0
 62
256
370
-1
 48
1.0
  6
BYLAYER
 10
38.2130122200000031
 20
-77.3432032000000049
 30
0.0
 11
38.2130122200000031
 21
-77.3432032000000049
 31
0.0
  0
ARC
  5
1EF
100
AcDbEntity
  8
0
 62
256
370
-1
 48
1.0
  6
BYLAYER
100
AcDbCircle
 10
39.6001874801014608
 20
-77.8294871201097891
 30
0.0
 40
2.3128280022459746
100
AcDbArc
 50
234.8731355588378165
 51
273.9923108810884287
  0
ARC
  5
1F0
100
AcDbEntity
  8
0
 62
256
370
-1
 48
1.0
  6
BYLAYER
100
AcDbCircle
 10
39.9364604165056818
 20
-77.9175684438438765
 30
0.0
 40
2.2260433922856953
100
AcDbArc
 50
265.4846511186527209
 51
305.0329080570909923
  0
ARC
  5
1F1
100
AcDbEntity
  8
0
 62
256
370
-1
 48
1.0
  6
BYLAYER
100
AcDbCircle
 10
40.471091318749572
 20
-78.7787254806062549
 30
0.0
 40
1.2153231002860505
100
AcDbArc
 50
307.7011500369163741
 51
0.0812186857034795
  0
ARC
  5
1F2
100
AcDbEntity
  8
0
 62
256
370
-1
 48
1.0
  6
BYLAYER
100
AcDbCircle
 10
40.5315079878567701
 20
-78.7350547607453564
 30
0.0
 40
1.1556667667202556
100
AcDbArc
 50
357.9198423200404591
 51
56.0319476789453503
  0
ARC
  5
1F3
100
AcDbEntity
  8
0
 62
256
370
-1
 48
1.0
  6
BYLAYER
100
AcDbCircle
 10
39.9004002114660494
 20
-79.8494712542660352
 30
0.0
 40
2.4345503494266816
100
AcDbArc
 50
58.3683832700736573
 51
93.277430287248734
  0
ARC
  5
1F4
100
AcDbEntity
  8
0
 62
256
370
-1
 48
1.0
  6
BYLAYER
100
AcDbCircle
 10
39.5970878744119901
 20
-79.8070282009895351
 30
0.0
 40
2.3937586735956016
100
AcDbArc
 50
86.0684499455393706
 51
123.6858898272545702
  0
ARC
  5
1F5
100
AcDbEntity
  8
0
 62
256
370
-1
 48
1.0
  6
BYLAYER
100
AcDbCircle
 10
38.9423934997833783
 20
-78.7870631383668609
 30
0.0
 40
1.1821214320428366
100
AcDbArc
 50
124.7012543313677213
 51
179.5123796461744519
  0
ARC
  5
1F6
100
AcDbEntity
  8
0
 62
256
370
-1
 48
1.0
  6
BYLAYER
100
AcDbCircle
 10
38.9621702145768083
 20
-78.7382246234826226
 30
0.0
 40
1.2024807652630756
100
AcDbArc
 50
181.8480183745587055
 51
234.8229276529856122
  0
LINE
  5
1F7
100
AcDbEntity
100
AcDbLine
  8
0
 62
256
370
-1
 48
1.0
  6
BYLAYER
 10
38.2694146979999985
 20
-79.7211029400000086
 30
0.0
 11
38.2694121580000015
 21
-79.7211029399999944
 31
0.0
  0
LINE
  5
1F8
100
AcDbEntity
100
AcDbLine
  8
0
 62
256
370
-1
 48
1.0
  6
BYLAYER
 10
35.3808225579999984
 20
-75.3793031400000046
 30
0.0
 11
35.3808225579999984
 21
-74.9637032600000026
 31
0.0
  0
ARC
  5
1F9
100
AcDbEntity
  8
0
 62
256
370
-1
 48
1.0
  6
BYLAYER
100
AcDbCircle
 10
32.7244132948140063
 20
-74.9522494279496811
 30
0.0
 40
2.6564339562294794
100
AcDbArc
 50
359.7529551722420251
 51
13.7133519642522863
  0
ARC
  5
1FA
100
AcDbEntity
  8
0
 62
256
370
-1
 48
1.0
  6
BYLAYER
100
AcDbCircle
 10
33.1719583655466863
 20
-74.8477229822786114
 30
0.0
 40
2.196871847253353
100
AcDbArc
 50
13.8320257583903068
 51
29.8160048776425306
  0
LINE
  5
1FB
100
AcDbEntity
100
AcDbLine
  8
0
 62
256
370
-1
 48
1.0
  6
BYLAYER
 10
35.0780228080000001
 20
-73.7554023999999941
 30
0.0
 11
35.0780228080000001
 21
-73.6798023479999955
 31
0.0
  0
LINE
  5
1FC
100
AcDbEntity
100
AcDbLine
  8
0
 62
256
370
-1
 48
1.0
  6
BYLAYER
 10
35.0780228080000001
 20
-73.6798023479999955
 30
0.0
 11
41.3094302079999949
 21
-73.6798023479999955
 31
0.0
  0
ARC
  5
1FD
100
AcDbEntity
  8
0
 62
256
370
-1
 48
1.0
  6
BYLAYER
100
AcDbCircle
 10
41.3293978124777084
 20
-73.4092830814313686
 30
0.0
 40
0.2712551913114562
100
AcDbArc
 50
265.7785316238375799
 51
319.2625861503619831
  0
ARC
  5
1FE
100
AcDbEntity
  8
0
 62
256
370
-1
 48
1.0
  6
BYLAYER
100
AcDbCircle
 10
41.2359408879143743
 20
-73.35960947979612
 30
0.0
 40
0.3752122804019281
100
AcDbArc
 50
322.8306834581333646
 51
3.0259748831008855
  0
LINE
  5
1FF
100
AcDbEntity
100
AcDbLine
  8
0
 62
256
370
-1
 48
1.0
  6
BYLAYER
 10
41.6106300120000014
 20
-73.3398025199999921
 30
0.0
 11
41.6106300120000014
 21
-72.471401919999991
 31
0.0
  0
LINE
  5
200
100
AcDbEntity
100
AcDbLine
  8
0
 62
256
370
-1
 48
1.0
  6
BYLAYER
 10
41.6106300120000014
 20
-72.471401919999991
 30
0.0
 11
41.8377298879999984
 21
-72.471401919999991
 31
0.0
  0
LINE
  5
201
100
AcDbEntity
100
AcDbLine
  8
0
 62
256
370
-1
 48
1.0
  6
BYLAYER
 10
41.8377298879999984
 20
-72.471401919999991
 30
0.0
 11
41.8377298879999984
 21
-75.416303319999983
 31
0.0
  0
LINE
  5
202
100
AcDbEntity
100
AcDbLine
  8
0
 62
256
370
-1
 48
1.0
  6
BYLAYER
 10
41.8377298879999984
 20
-75.416303319999983
 30
0.0
 11
41.6106300120000014
 21
-75.416303319999983
 31
0.0
  0
LINE
  5
203
100
AcDbEntity
100
AcDbLine
  8
0
 62
256
370
-1
 48
1.0
  6
BYLAYER
 10
41.6106300120000014
 20
-75.416303319999983
 30
0.0
 11
41.6106300120000014
 21
-74.5480043199999898
 31
0.0
  0
ARC
  5
204
100
AcDbEntity
  8
0
 62
256
370
-1
 48
1.0
  6
BYLAYER
100
AcDbCircle
 10
41.2479075449532715
 20
-74.5089878380656359
 30
0.0
 40
0.3648148488795341
100
AcDbArc
 50
353.8605475655799637
 51
38.1160295205643251
  0
ARC
  5
205
100
AcDbEntity
  8
0
 62
256
370
-1
 48
1.0
  6
BYLAYER
100
AcDbCircle
 10
41.331891187738357
 20
-74.5149127092496997
 30
0.0
 40
0.3076299704581627
100
AcDbArc
 50
48.6993413768889098
 51
94.1870611557247912
  0
LINE
  5
206
100
AcDbEntity
100
AcDbLine
  8
0
 62
256
370
-1
 48
1.0
  6
BYLAYER
 10
41.3094302079999949
 20
-74.2081038059999969
 30
0.0
 11
35.9092378079999932
 21
-74.2081038059999969
 31
0.0
  0
ARC
  5
207
100
AcDbEntity
  8
0
 62
256
370
-1
 48
1.0
  6
BYLAYER
100
AcDbCircle
 10
35.8876451054899803
 20
-74.5220975067343403
 30
0.0
 40
0.3147352679674345
100
AcDbArc
 50
86.0660802173978681
 51
130.7886358951712396
  0
ARC
  5
208
100
AcDbEntity
  8
0
 62
256
370
-1
 48
1.0
  6
BYLAYER
100
AcDbCircle
 10
35.9796746323282974
 20
-74.5096326179238702
 30
0.0
 40
0.3736125798563511
100
AcDbArc
 50
142.810953631382489
 51
185.8949303920594787
  0
LINE
  5
209
100
AcDbEntity
100
AcDbLine
  8
0
 62
256
370
-1
 48
1.0
  6
BYLAYER
 10
35.608037749999994
 20
-74.5480043199999898
 30
0.0
 11
35.608037749999994
 21
-75.3793031399999904
 31
0.0
  0
LINE
  5
20A
100
AcDbEntity
100
AcDbLine
  8
0
 62
256
370
-1
 48
1.0
  6
BYLAYER
 10
35.608037749999994
 20
-75.3793031399999904
 30
0.0
 11
35.3808377979999946
 21
-75.3793031399999904
 31
0.0
  0
LINE
  5
20B
100
AcDbEntity
100
AcDbLine
  8
0
 62
256
370
-1
 48
1.0
  6
BYLAYER
 10
35.3808377979999946
 20
-75.3793031399999904
 30
0.0
 11
35.3808225579999984
 21
-75.3793031400000046
 31
0.0
  0
ARC
  5
20C
100
AcDbEntity
  8
0
 62
256
370
-1
 48
1.0
  6
BYLAYER
100
AcDbCircle
 10
39.8684138182017307
 20
-69.6230418811733927
 30
0.0
 40
2.0071691495921882
100
AcDbArc
 50
358.4341459069424332
 51
20.9708344116613468
  0
ARC
  5
20D
100
AcDbEntity
  8
0
 62
256
370
-1
 48
1.0
  6
BYLAYER
100
AcDbCircle
 10
40.2968687392587483
 20
-69.776216003318126
 30
0.0
 40
1.5810252045146207
100
AcDbArc
 50
322.6821994598498691
 51
3.5656141954452907
  0
ARC
  5
20E
100
AcDbEntity
  8
0
 62
256
370
-1
 48
1.0
  6
BYLAYER
100
AcDbCircle
 10
40.7947728831857646
 20
-70.1629731296213635
 30
0.0
 40
0.950600817666266
100
AcDbArc
 50
271.4021279366497197
 51
323.0278707921285672
  0
ARC
  5
20F
100
AcDbEntity
  8
0
 62
256
370
-1
 48
1.0
  6
BYLAYER
100
AcDbCircle
 10
40.8056075676782584
 20
-69.7869225063631262
 30
0.0
 40
1.3264250172068761
100
AcDbArc
 50
213.9134887252976966
 51
270.536750772234825
  0
ARC
  5
210
100
AcDbEntity
  8
0
 62
256
370
-1
 48
1.0
  6
BYLAYER
100
AcDbCircle
 10
44.2759905472154927
 20
-68.0548142032089203
 30
0.0
 40
5.1968385533576269
100
AcDbArc
 50
181.6603279580739922
 51
208.4054185211914216
  0
LINE
  5
211
100
AcDbEntity
100
AcDbLine
  8
0
 62
256
370
-1
 48
1.0
  6
BYLAYER
 10
39.0813338260000052
 20
-68.2053880999999933
 30
0.0
 11
38.6287337660000034
 21
-68.2053880999999933
 31
0.0
  0
ARC
  5
212
100
AcDbEntity
  8
0
 62
256
370
-1
 48
1.0
  6
BYLAYER
100
AcDbCircle
 10
38.5842191503853087
 20
-69.2747431383610888
 30
0.0
 40
1.0702811542167712
100
AcDbArc
 50
87.616294095821118
 51
122.7493305649545619
  0
ARC
  5
213
100
AcDbEntity
  8
0
 62
256
370
-1
 48
1.0
  6
BYLAYER
100
AcDbCircle
 10
38.6634476788162473
 20
-69.0087410505145868
 30
0.0
 40
0.9139988834941426
100
AcDbArc
 50
136.066549594302785
 51
188.8518475690762273
  0
ARC
  5
214
100
AcDbEntity
  8
0
 62
256
370
-1
 48
1.0
  6
BYLAYER
100
AcDbCircle
 10
39.2642869715290743
 20
-69.2831357881654384
 30
0.0
 40
1.5098875383468513
100
AcDbArc
 50
174.9179755048619143
 51
210.7392365385569519
  0
ARC
  5
215
100
AcDbEntity
  8
0
 62
256
370
-1
 48
1.0
  6
BYLAYER
100
AcDbCircle
 10
38.3067806811113769
 20
-69.8690618489156776
 30
0.0
 40
0.3876830893309021
100
AcDbArc
 50
208.6411613363904678
 51
284.147126699682417
  0
ARC
  5
216
100
AcDbEntity
  8
0
 62
256
370
-1
 48
1.0
  6
BYLAYER
100
AcDbCircle
 10
38.5521852780000032
 20
-70.5194660150906998
 30
0.0
 40
0.3131040150906975
100
AcDbArc
 50
61.2394745765280746
 51
118.7605254234719609
  0
ARC
  5
217
100
AcDbEntity
  8
0
 62
256
370
-1
 48
1.0
  6
BYLAYER
100
AcDbCircle
 10
38.5551356236468337
 20
-70.5077935625750314
 30
0.0
 40
0.3014671624631219
100
AcDbArc
 50
352.6640663169824279
 51
60.6636295277861066
  0
ARC
  5
218
100
AcDbEntity
  8
0
 62
256
370
-1
 48
1.0
  6
BYLAYER
100
AcDbCircle
 10
38.5249301566607798
 20
-70.5609975082286667
 30
0.0
 40
0.3295334971475816
100
AcDbArc
 50
315.71499266654655
 51
2.5585747075269678
  0
ARC
  5
219
100
AcDbEntity
  8
0
 62
256
370
-1
 48
1.0
  6
BYLAYER
100
AcDbCircle
 10
38.5057480110016854
 20
-70.5003958469764598
 30
0.0
 40
0.3867438181859197
100
AcDbArc
 50
265.7718274887434973
 51
311.2675737946149184
  0
ARC
  5
21A
100
AcDbEntity
  8
0
 62
256
370
-1
 48
1.0
  6
BYLAYER
100
AcDbCircle
 10
38.5923401151059693
 20
-70.0693265823235407
 30
0.0
 40
0.8248315857912156
100
AcDbArc
 50
203.2397031302773769
 51
261.9781275577608426
  0
ARC
  5
21B
100
AcDbEntity
  8
0
 62
256
370
-1
 48
1.0
  6
BYLAYER
100
AcDbCircle
 10
39.7952464898780178
 20
-69.2641263153991815
 30
0.0
 40
2.2634447377967799
100
AcDbArc
 50
178.0342821082113289
 51
209.9689893027303071
  0
ARC
  5
21C
100
AcDbEntity
  8
0
 62
256
370
-1
 48
1.0
  6
BYLAYER
100
AcDbCircle
 10
39.408306004012303
 20
-69.0543087621922496
 30
0.0
 40
1.8798250185286225
100
AcDbArc
 50
147.8501422257801607
 51
184.0320208048688357
  0
ARC
  5
21D
100
AcDbEntity
  8
0
 62
256
370
-1
 48
1.0
  6
BYLAYER
100
AcDbCircle
 10
38.5773647750678563
 20
-68.6293065898719732
 30
0.0
 40
0.9537035023352317
100
AcDbArc
 50
86.9123425994495733
 51
142.8971423585900311
  0
LINE
  5
21E
100
AcDbEntity
100
AcDbLine
  8
0
 62
256
370
-1
 48
1.0
  6
BYLAYER
 10
38.6287347820000093
 20
-67.6769875819999953
 30
0.0
 11
41.1192352620000108
 21
-67.6769875819999953
 31
0.0
  0
ARC
  5
21F
100
AcDbEntity
  8
0
 62
256
370
-1
 48
1.0
  6
BYLAYER
100
AcDbCircle
 10
41.2023061248180085
 20
-67.0335192159226665
 30
0.0
 40
0.6488083741687909
100
AcDbArc
 50
262.6438820172800774
 51
295.1981209875926879
  0
ARC
  5
220
100
AcDbEntity
  8
0
 62
256
370
-1
 48
1.0
  6
BYLAYER
100
AcDbCircle
 10
41.2453951702726869
 20
-67.4457717745044647
 30
0.0
 40
0.2914022208173062
100
AcDbArc
 50
323.1363602954384646
 51
6.479534439521041
  0
ARC
  5
221
100
AcDbEntity
  8
0
 62
256
370
-1
 48
1.0
  6
BYLAYER
100
AcDbCircle
 10
41.268225928090871
 20
-67.3973213399757753
 30
0.0
 40
0.2671639158582343
100
AcDbArc
 50
356.6597953562924204
 51
68.5935334337686982
  0
ARC
  5
222
100
AcDbEntity
  8
0
 62
256
370
-1
 48
1.0
  6
BYLAYER
100
AcDbCircle
 10
40.9486792681058844
 20
-68.2396526352875554
 30
0.0
 40
1.1680576451023112
100
AcDbArc
 50
69.0807761747915947
 51
92.6961149896356886
  0
LINE
  5
223
100
AcDbEntity
100
AcDbLine
  8
0
 62
256
370
-1
 48
1.0
  6
BYLAYER
 10
40.8937353320000057
 20
-67.0728879519999879
 30
0.0
 11
40.8937353320000057
 21
-66.8843879479999828
 31
0.0
  0
ARC
  5
224
100
AcDbEntity
  8
0
 62
256
370
-1
 48
1.0
  6
BYLAYER
100
AcDbCircle
 10
41.0050831944162795
 20
-67.9817338909928424
 30
0.0
 40
1.1029807183571017
100
AcDbArc
 50
55.4863045770735397
 51
95.7939805944269267
  0
ARC
  5
225
100
AcDbEntity
  8
0
 62
256
370
-1
 48
1.0
  6
BYLAYER
100
AcDbCircle
 10
41.2078950728300768
 20
-67.5408347649339618
 30
0.0
 40
0.6302196875262853
100
AcDbArc
 50
358.0127595762781993
 51
47.9459950313714671
  0
ARC
  5
226
100
AcDbEntity
  8
0
 62
256
370
-1
 48
1.0
  6
BYLAYER
100
AcDbCircle
 10
41.1642929672837852
 20
-67.6008587754032959
 30
0.0
 40
0.6745236079689587
100
AcDbArc
 50
325.975289192085711
 51
3.2439848849627593
  0
ARC
  5
227
100
AcDbEntity
  8
0
 62
256
370
-1
 48
1.0
  6
BYLAYER
100
AcDbCircle
 10
41.2031773060861042
 20
-67.5413278482225223
 30
0.0
 40
0.6793375603159975
100
AcDbArc
 50
282.1738587191555325
 51
319.9679407831787898
  0
ARC
  5
228
100
AcDbEntity
  8
0
 62
256
370
-1
 48
1.0
  6
BYLAYER
100
AcDbCircle
 10
38.3838271510194105
 20
-70.345786843101024
 30
0.0
 40
3.6549078154806094
100
AcDbArc
 50
23.2217778549319966
 51
35.8470173130114702
  0
LINE
  5
229
100
AcDbEntity
100
AcDbLine
  8
0
 62
256
370
-1
 48
1.0
  6
BYLAYER
 10
41.7426345740000002
 20
-68.9046887079999806
 30
0.0
 11
41.7426335580000014
 21
-68.9046907400000066
 31
0.0
  0
ARC
  5
22A
100
AcDbEntity
  8
0
 62
256
370
-1
 48
1.0
  6
BYLAYER
100
AcDbCircle
 10
40.7139507023249436
 20
-69.4075247741864274
 30
0.0
 40
1.0631015414241234
100
AcDbArc
 50
212.5294424573382059
 51
269.5302118302494705
  0
ARC
  5
22B
100
AcDbEntity
  8
0
 62
256
370
-1
 48
1.0
  6
BYLAYER
100
AcDbCircle
 10
40.7073505766326207
 20
-69.4428104449308137
 30
0.0
 40
1.0277823143516194
100
AcDbArc
 50
269.8820103547882354
 51
307.0872941621026939
  0
ARC
  5
22C
100
AcDbEntity
  8
0
 62
256
370
-1
 48
1.0
  6
BYLAYER
100
AcDbCircle
 10
40.8536601295103665
 20
-69.6683740472463313
 30
0.0
 40
0.7598623811740616
100
AcDbArc
 50
308.5433402581143127
 51
4.9966827071103195
  0
ARC
  5
22D
100
AcDbEntity
  8
0
 62
256
370
-1
 48
1.0
  6
BYLAYER
100
AcDbCircle
 10
39.7576965045110597
 20
-69.6095226089145598
 30
0.0
 40
1.8529528361002685
100
AcDbArc
 50
0.2266881587284129
 51
21.7668520836238031
  0
ARC
  5
22E
100
AcDbEntity
  8
0
 62
256
370
-1
 48
1.0
  6
BYLAYER
100
AcDbCircle
 10
38.2261308909997553
 20
-70.2520443591045307
 30
0.0
 40
3.5137030470818504
100
AcDbArc
 50
22.2358105518348594
 51
35.6249706462520166
  0
LINE
  5
22F
100
AcDbEntity
100
AcDbLine
  8
0
 62
256
370
-1
 48
1.0
  6
BYLAYER
 10
41.0822338119999984
 20
-68.2053921640000027
 30
0.0
 11
39.3068347719999949
 21
-68.2053921640000027
 31
0.0
  0
ARC
  5
230
100
AcDbEntity
  8
0
 62
256
370
-1
 48
1.0
  6
BYLAYER
100
AcDbCircle
 10
43.2763792635575797
 20
-68.0227329725836825
 30
0.0
 40
3.9737448144872238
100
AcDbArc
 50
182.6346155205010007
 51
209.4949053724469081
  0
LINE
  5
231
100
AcDbEntity
100
AcDbLine
  8
0
 62
256
370
-1
 48
1.0
  6
BYLAYER
 10
39.8176338519999931
 20
-69.9791910040000147
 30
0.0
 11
39.8176335979999934
 21
-69.9791894800000023
 31
0.0
  0
LINE
  5
232
100
AcDbEntity
100
AcDbLine
  8
0
 62
256
370
-1
 48
1.0
  6
BYLAYER
 10
37.4203333379999989
 20
-64.769090680000005
 30
0.0
 11
38.7784332379999981
 21
-64.769090680000005
 31
0.0
  0
ARC
  5
233
100
AcDbEntity
  8
0
 62
256
370
-1
 48
1.0
  6
BYLAYER
100
AcDbCircle
 10
40.4584784581726495
 20
-61.9230983471598577
 30
0.0
 40
3.3048788631975459
100
AcDbArc
 50
217.9869085140784932
 51
239.4458112295532715
  0
ARC
  5
234
100
AcDbEntity
  8
0
 62
256
370
-1
 48
1.0
  6
BYLAYER
100
AcDbCircle
 10
39.0068428309082336
 20
-63.0389969623062072
 30
0.0
 40
1.4740214387989634
100
AcDbArc
 50
181.1814230117452098
 51
218.5294568789537664
  0
ARC
  5
235
100
AcDbEntity
  8
0
 62
256
370
-1
 48
1.0
  6
BYLAYER
100
AcDbCircle
 10
38.434454445430795
 20
-63.0133801316275424
 30
0.0
 40
0.9030582356496293
100
AcDbArc
 50
144.1654990286214684
 51
183.5558245324808695
  0
ARC
  5
236
100
AcDbEntity
  8
0
 62
256
370
-1
 48
1.0
  6
BYLAYER
100
AcDbCircle
 10
38.1105199370411896
 20
-62.7813512086653631
 30
0.0
 40
0.5046027733255832
100
AcDbArc
 50
91.3495284666121563
 51
143.9909047004441618
  0
ARC
  5
237
100
AcDbEntity
  8
0
 62
256
370
-1
 48
1.0
  6
BYLAYER
100
AcDbCircle
 10
38.1216176510935725
 20
-62.7339988339319774
 30
0.0
 40
0.4576877929898618
100
AcDbArc
 50
52.2952954903623208
 51
92.8782043283741672
  0
ARC
  5
238
100
AcDbEntity
  8
0
 62
256
370
-1
 48
1.0
  6
BYLAYER
100
AcDbCircle
 10
38.1697350758011211
 20
-62.6283183499871399
 30
0.0
 40
0.3456701946829747
100
AcDbArc
 50
355.4916362902632159
 51
47.8878751966406782
  0
ARC
  5
239
100
AcDbEntity
  8
0
 62
256
370
-1
 48
1.0
  6
BYLAYER
100
AcDbCircle
 10
38.1716317875658788
 20
-62.6817871447761448
 30
0.0
 40
0.3437114287823386
100
AcDbArc
 50
311.9812101748647706
 51
4.3880149084683868
  0
ARC
  5
23A
100
AcDbEntity
  8
0
 62
256
370
-1
 48
1.0
  6
BYLAYER
100
AcDbCircle
 10
38.1913491955505293
 20
-62.6595422869174286
 30
0.0
 40
0.3483133329807001
100
AcDbArc
 50
254.5630243015856138
 51
307.1167622294201465
  0
ARC
  5
23B
100
AcDbEntity
  8
0
 62
256
370
-1
 48
1.0
  6
BYLAYER
100
AcDbCircle
 10
38.0830592990752095
 20
-63.4135692126904615
 30
0.0
 40
0.4185693332173965
100
AcDbArc
 50
87.8673260058278913
 51
114.4016070239834022
  0
ARC
  5
23C
100
AcDbEntity
  8
0
 62
256
370
-1
 48
1.0
  6
BYLAYER
100
AcDbCircle
 10
38.0719815507615138
 20
-63.2125256331488146
 30
0.0
 40
0.242163114700269
100
AcDbArc
 50
131.9385947013688565
 51
191.2066891860619364
  0
ARC
  5
23D
100
AcDbEntity
  8
0
 62
256
370
-1
 48
1.0
  6
BYLAYER
100
AcDbCircle
 10
39.0696477611692998
 20
-63.0898184323171165
 30
0.0
 40
1.2468242362100528
100
AcDbArc
 50
187.8258759691163107
 51
226.6041227596640795
  0
ARC
  5
23E
100
AcDbEntity
  8
0
 62
256
370
-1
 48
1.0
  6
BYLAYER
100
AcDbCircle
 10
40.717688071362744
 20
-61.6816751302433701
 30
0.0
 40
3.4100463688587239
100
AcDbArc
 50
222.7356743406838007
 51
244.8756403968892528
  0
LINE
  5
23F
100
AcDbEntity
100
AcDbLine
  8
0
 62
256
370
-1
 48
1.0
  6
BYLAYER
 10
39.2698356079999868
 20
-64.7690914420000041
 30
0.0
 11
41.3094352879999889
 21
-64.7690914420000041
 31
0.0
  0
ARC
  5
240
100
AcDbEntity
  8
0
 62
256
370
-1
 48
1.0
  6
BYLAYER
100
AcDbCircle
 10
41.3296484350757325
 20
-64.499164366599274
 30
0.0
 40
0.2706828353425855
100
AcDbArc
 50
265.7174710682940599
 51
319.3236467059053325
  0
ARC
  5
241
100
AcDbEntity
  8
0
 62
256
370
-1
 48
1.0
  6
BYLAYER
100
AcDbCircle
 10
41.2329576836742859
 20
-64.4479808746349221
 30
0.0
 40
0.3781494796068829
100
AcDbArc
 50
322.9934374285396643
 51
2.8632209126880737
  0
LINE
  5
242
100
AcDbEntity
100
AcDbLine
  8
0
 62
256
370
-1
 48
1.0
  6
BYLAYER
 10
41.6106350919999883
 20
-64.4290916140000149
 30
0.0
 11
41.6106350919999883
 21
-63.5994920540000166
 31
0.0
  0
LINE
  5
243
100
AcDbEntity
100
AcDbLine
  8
0
 62
256
370
-1
 48
1.0
  6
BYLAYER
 10
41.6106350919999883
 20
-63.5994920540000166
 30
0.0
 11
41.8377349679999924
 21
-63.5994920540000166
 31
0.0
  0
LINE
  5
244
100
AcDbEntity
100
AcDbLine
  8
0
 62
256
370
-1
 48
1.0
  6
BYLAYER
 10
41.8377349679999924
 20
-63.5994920540000166
 30
0.0
 11
41.8377349679999924
 21
-66.3929840540000242
 31
0.0
  0
LINE
  5
245
100
AcDbEntity
100
AcDbLine
  8
0
 62
256
370
-1
 48
1.0
  6
BYLAYER
 10
41.8377349679999924
 20
-66.3929840540000242
 30
0.0
 11
41.6106350919999883
 21
-66.3929840540000242
 31
0.0
  0
LINE
  5
246
100
AcDbEntity
100
AcDbLine
  8
0
 62
256
370
-1
 48
1.0
  6
BYLAYER
 10
41.6106350919999883
 20
-66.3929840540000242
 30
0.0
 11
41.6106350919999883
 21
-65.637483914000029
 31
0.0
  0
ARC
  5
247
100
AcDbEntity
  8
0
 62
256
370
-1
 48
1.0
  6
BYLAYER
100
AcDbCircle
 10
41.2504506783957439
 20
-65.5976560729345834
 30
0.0
 40
0.3623797300172472
100
AcDbArc
 50
353.6900816996663934
 51
38.2751227257141053
  0
ARC
  5
248
100
AcDbEntity
  8
0
 62
256
370
-1
 48
1.0
  6
BYLAYER
100
AcDbCircle
 10
41.331896267738351
 20
-65.6042932432497139
 30
0.0
 40
0.3076299704581513
100
AcDbArc
 50
48.6993413768875385
 51
94.1870611557249617
  0
LINE
  5
249
100
AcDbEntity
100
AcDbLine
  8
0
 62
256
370
-1
 48
1.0
  6
BYLAYER
 10
41.3094352879999889
 20
-65.2974843400000253
 30
0.0
 11
38.1743386879999846
 21
-65.2974843400000253
 31
0.0
  0
ARC
  5
24A
100
AcDbEntity
  8
0
 62
256
370
-1
 48
1.0
  6
BYLAYER
100
AcDbCircle
 10
38.1586178894568988
 20
-65.6806184467518506
 30
0.0
 40
0.3834564998319233
100
AcDbArc
 50
87.6503516693571356
 51
126.7029625142096307
  0
ARC
  5
24B
100
AcDbEntity
  8
0
 62
256
370
-1
 48
1.0
  6
BYLAYER
100
AcDbCircle
 10
38.1539006431075336
 20
-65.603088244843903
 30
0.0
 40
0.3213082735495295
100
AcDbArc
 50
134.3137769228315506
 51
186.1452203021884202
  0
LINE
  5
24C
100
AcDbEntity
100
AcDbLine
  8
0
 62
256
370
-1
 48
1.0
  6
BYLAYER
 10
37.8344386819999912
 20
-65.637483914000029
 30
0.0
 11
37.8344386819999912
 21
-66.3542846140000364
 31
0.0
  0
LINE
  5
24D
100
AcDbEntity
100
AcDbLine
  8
0
 62
256
370
-1
 48
1.0
  6
BYLAYER
 10
37.8344386819999912
 20
-66.3542846140000364
 30
0.0
 11
37.6088386759999835
 21
-66.3542846140000364
 31
0.0
  0
LINE
  5
24E
100
AcDbEntity
100
AcDbLine
  8
0
 62
256
370
-1
 48
1.0
  6
BYLAYER
 10
37.6088386759999835
 20
-66.3542846140000364
 30
0.0
 11
37.6088386759999835
 21
-66.0529847340000345
 31
0.0
  0
ARC
  5
24F
100
AcDbEntity
  8
0
 62
256
370
-1
 48
1.0
  6
BYLAYER
100
AcDbCircle
 10
33.4353888417774527
 20
-66.1163119380486819
 30
0.0
 40
4.1739302645761569
100
AcDbArc
 50
0.8693295069258076
 51
9.4697970056408103
  0
ARC
  5
250
100
AcDbEntity
  8
0
 62
256
370
-1
 48
1.0
  6
BYLAYER
100
AcDbCircle
 10
34.7762044464405733
 20
-65.809237680963605
 30
0.0
 40
2.802072994247927
100
AcDbArc
 50
7.7869530337570403
 51
19.3287429987805268
  0
LINE
  5
251
100
AcDbEntity
100
AcDbLine
  8
0
 62
256
370
-1
 48
1.0
  6
BYLAYER
 10
37.4203386719999926
 20
-64.8817856540000406
 30
0.0
 11
37.4203386719999926
 21
-64.7690856000000394
 31
0.0
  0
LINE
  5
252
100
AcDbEntity
100
AcDbLine
  8
0
 62
256
370
-1
 48
1.0
  6
BYLAYER
 10
37.4203386719999926
 20
-64.7690856000000394
 30
0.0
 11
37.4203333379999989
 21
-64.769090680000005
 31
0.0
  0
LINE
  5
253
100
AcDbEntity
100
AcDbLine
  8
0
 62
256
370
-1
 48
1.0
  6
BYLAYER
 10
45.2740387380000016
 20
-87.5377014800000097
 30
0.0
 11
45.2740387380000016
 21
-87.6505013560000066
 31
0.0
  0
LINE
  5
254
100
AcDbEntity
100
AcDbLine
  8
0
 62
256
370
-1
 48
1.0
  6
BYLAYER
 10
45.2740387380000016
 20
-87.6505013560000066
 30
0.0
 11
45.0468387860000021
 21
-87.6505013560000066
 31
0.0
  0
LINE
  5
255
100
AcDbEntity
100
AcDbLine
  8
0
 62
256
370
-1
 48
1.0
  6
BYLAYER
 10
45.0468387860000021
 20
-87.6505013560000066
 30
0.0
 11
45.0468387860000021
 21
-86.2908012559999946
 31
0.0
  0
LINE
  5
256
100
AcDbEntity
100
AcDbLine
  8
0
 62
256
370
-1
 48
1.0
  6
BYLAYER
 10
45.0468387860000021
 20
-86.2908012559999946
 30
0.0
 11
45.2740387380000016
 21
-86.2908012559999946
 31
0.0
  0
LINE
  5
257
100
AcDbEntity
100
AcDbLine
  8
0
 62
256
370
-1
 48
1.0
  6
BYLAYER
 10
45.2740387380000016
 20
-86.2908012559999946
 30
0.0
 11
45.2740387380000016
 21
-86.4423013340000068
 31
0.0
  0
ARC
  5
258
100
AcDbEntity
  8
0
 62
256
370
-1
 48
1.0
  6
BYLAYER
100
AcDbCircle
 10
45.7006633121595556
 20
-86.4367447370484854
 30
0.0
 40
0.4266607587375722
100
AcDbArc
 50
180.7462100691013234
 51
222.6474037344150361
  0
ARC
  5
259
100
AcDbEntity
  8
0
 62
256
370
-1
 48
1.0
  6
BYLAYER
100
AcDbCircle
 10
45.9336434247148446
 20
-86.1520050386110512
 30
0.0
 40
0.7926141461533699
100
AcDbArc
 50
226.3797725050865779
 51
260.4789788756750681
  0
LINE
  5
25A
100
AcDbEntity
100
AcDbLine
  8
0
 62
256
370
-1
 48
1.0
  6
BYLAYER
 10
45.802537553999997
 20
-86.9337009099999989
 30
0.0
 11
51.5038469539999966
 21
-88.4818004300000069
 31
0.0
  0
LINE
  5
25B
100
AcDbEntity
100
AcDbLine
  8
0
 62
256
370
-1
 48
1.0
  6
BYLAYER
 10
51.5038469539999966
 20
-88.4818004300000069
 30
0.0
 11
51.5038469539999966
 21
-88.7074004360000004
 31
0.0
  0
LINE
  5
25C
100
AcDbEntity
100
AcDbLine
  8
0
 62
256
370
-1
 48
1.0
  6
BYLAYER
 10
51.5038469539999966
 20
-88.7074004360000004
 30
0.0
 11
45.802537553999997
 21
-90.1057999760000001
 31
0.0
  0
ARC
  5
25D
100
AcDbEntity
  8
0
 62
256
370
-1
 48
1.0
  6
BYLAYER
100
AcDbCircle
 10
45.8770774149885554
 20
-90.9902757190572942
 30
0.0
 40
0.8876111372289901
100
AcDbArc
 50
94.8172618830858056
 51
122.0439785634144272
  0
ARC
  5
25E
100
AcDbEntity
  8
0
 62
256
370
-1
 48
1.0
  6
BYLAYER
100
AcDbCircle
 10
45.5947628734772223
 20
-90.4981848538077003
 30
0.0
 40
0.3214462660394161
100
AcDbArc
 50
125.9304014109711289
 51
183.837870044178544
  0
LINE
  5
25F
100
AcDbEntity
100
AcDbLine
  8
0
 62
256
370
-1
 48
1.0
  6
BYLAYER
 10
45.274037467999996
 20
-90.5197003420000073
 30
0.0
 11
45.274037467999996
 21
-90.7098002920000113
 31
0.0
  0
LINE
  5
260
100
AcDbEntity
100
AcDbLine
  8
0
 62
256
370
-1
 48
1.0
  6
BYLAYER
 10
45.274037467999996
 20
-90.7098002920000113
 30
0.0
 11
45.0468375159999965
 21
-90.7098002920000113
 31
0.0
  0
LINE
  5
261
100
AcDbEntity
100
AcDbLine
  8
0
 62
256
370
-1
 48
1.0
  6
BYLAYER
 10
45.0468375159999965
 20
-90.7098002920000113
 30
0.0
 11
45.0468375159999965
 21
-89.085899552000015
 31
0.0
  0
LINE
  5
262
100
AcDbEntity
100
AcDbLine
  8
0
 62
256
370
-1
 48
1.0
  6
BYLAYER
 10
45.0468375159999965
 20
-89.085899552000015
 30
0.0
 11
45.274037467999996
 21
-89.085899552000015
 31
0.0
  0
LINE
  5
263
100
AcDbEntity
100
AcDbLine
  8
0
 62
256
370
-1
 48
1.0
  6
BYLAYER
 10
45.274037467999996
 20
-89.085899552000015
 30
0.0
 11
45.274037467999996
 21
-89.237399630000013
 31
0.0
  0
ARC
  5
264
100
AcDbEntity
  8
0
 62
256
370
-1
 48
1.0
  6
BYLAYER
100
AcDbCircle
 10
45.5166796886893152
 20
-89.2740671944312396
 30
0.0
 40
0.2453971424902154
100
AcDbArc
 50
171.4066074187514062
 51
238.0545869205792542
  0
ARC
  5
265
100
AcDbEntity
  8
0
 62
256
370
-1
 48
1.0
  6
BYLAYER
100
AcDbCircle
 10
45.5665436061096756
 20
-89.0383402086256552
 30
0.0
 40
0.4789512052069542
100
AcDbArc
 50
247.9628388744775123
 51
284.706919089279836
  0
LINE
  5
266
100
AcDbEntity
100
AcDbLine
  8
0
 62
256
370
-1
 48
1.0
  6
BYLAYER
 10
45.6881372239999948
 20
-89.5015995842000081
 30
0.0
 11
50.1071276239999932
 21
-88.4431993641999981
 31
0.0
  0
LINE
  5
267
100
AcDbEntity
100
AcDbLine
  8
0
 62
256
370
-1
 48
1.0
  6
BYLAYER
 10
50.1071276239999932
 20
-88.4431993641999981
 30
0.0
 11
50.1071276239999932
 21
-88.3690994362000026
 31
0.0
  0
LINE
  5
268
100
AcDbEntity
100
AcDbLine
  8
0
 62
256
370
-1
 48
1.0
  6
BYLAYER
 10
50.1071276239999932
 20
-88.3690994362000026
 30
0.0
 11
45.8025388239999955
 21
-87.2349005362000156
 31
0.0
  0
ARC
  5
269
100
AcDbEntity
  8
0
 62
256
370
-1
 48
1.0
  6
BYLAYER
100
AcDbCircle
 10
45.6043388139999877
 20
-87.7256939612225324
 30
0.0
 40
0.5293027772545137
100
AcDbArc
 50
68.009374654432392
 51
111.9906253455666274
  0
ARC
  5
26A
100
AcDbEntity
  8
0
 62
256
370
-1
 48
1.0
  6
BYLAYER
100
AcDbCircle
 10
45.5902407456538086
 20
-87.4954324235044822
 30
0.0
 40
0.3190147163112368
100
AcDbArc
 50
125.2465103866550891
 51
187.614024260129014
  0
LINE
  5
26B
100
AcDbEntity
100
AcDbLine
  8
0
 62
256
370
-1
 48
1.0
  6
BYLAYER
 10
45.2740387379999945
 20
-87.5377015562000054
 30
0.0
 11
45.2740387380000016
 21
-87.5377014800000097
 31
0.0
  0
ARC
  5
26C
100
AcDbEntity
  8
0
 62
256
370
-1
 48
1.0
  6
BYLAYER
100
AcDbCircle
 10
49.380922737278425
 20
-84.0460090736917351
 30
0.0
 40
2.398226619537442
100
AcDbArc
 50
89.8181006169715772
 51
128.7738698277196647
  0
ARC
  5
26D
100
AcDbEntity
  8
0
 62
256
370
-1
 48
1.0
  6
BYLAYER
100
AcDbCircle
 10
49.4653243380010252
 20
-83.8901596454061433
 30
0.0
 40
2.2436794872232819
100
AcDbArc
 50
48.3632946028503241
 51
91.961278178983008
  0
ARC
  5
26E
100
AcDbEntity
  8
0
 62
256
370
-1
 48
1.0
  6
BYLAYER
100
AcDbCircle
 10
49.7639848344130371
 20
-83.5829567283763879
 30
0.0
 40
1.8157533704118811
100
AcDbArc
 50
359.1436436427691206
 51
48.9661125924919105
  0
ARC
  5
26F
100
AcDbEntity
  8
0
 62
256
370
-1
 48
1.0
  6
BYLAYER
100
AcDbCircle
 10
49.8087856640818458
 20
-83.660252090338787
 30
0.0
 40
1.7714599668271731
100
AcDbArc
 50
309.5487362850583395
 51
1.622508072533891
  0
ARC
  5
270
100
AcDbEntity
  8
0
 62
256
370
-1
 48
1.0
  6
BYLAYER
100
AcDbCircle
 10
49.4458924546886109
 20
-83.2740083655497898
 30
0.0
 40
2.3006021756638058
100
AcDbArc
 50
268.5713560006382181
 51
310.3926928435045056
  0
ARC
  5
271
100
AcDbEntity
  8
0
 62
256
370
-1
 48
1.0
  6
BYLAYER
100
AcDbCircle
 10
49.3854141690952062
 20
-83.2285022581103675
 30
0.0
 40
2.3453952167984591
100
AcDbArc
 50
230.0386272822522074
 51
270.0762130163520851
  0
ARC
  5
272
100
AcDbEntity
  8
0
 62
256
370
-1
 48
1.0
  6
BYLAYER
100
AcDbCircle
 10
48.933157695899709
 20
-83.6489426728405476
 30
0.0
 40
1.7343585579238441
100
AcDbArc
 50
178.716512088153479
 51
232.570243679338688
  0
ARC
  5
273
100
AcDbEntity
  8
0
 62
256
370
-1
 48
1.0
  6
BYLAYER
100
AcDbCircle
 10
48.9190730819402759
 20
-83.5474583126079011
 30
0.0
 40
1.7209790210756351
100
AcDbArc
 50
127.1806041384906081
 51
182.0857757064882776
  0
LINE
  5
274
100
AcDbEntity
100
AcDbLine
  8
0
 62
256
370
-1
 48
1.0
  6
BYLAYER
 10
47.8790347980000064
 20
-82.1762948800000146
 30
0.0
 11
47.8790373380000034
 21
-82.1762948800000146
 31
0.0
  0
ARC
  5
275
100
AcDbEntity
  8
0
 62
256
370
-1
 48
1.0
  6
BYLAYER
100
AcDbCircle
 10
49.2662259462580465
 20
-82.6629816536052857
 30
0.0
 40
2.3124251970272938
100
AcDbArc
 50
234.865709473567307
 51
273.9926758996326157
  0
ARC
  5
276
100
AcDbEntity
  8
0
 62
256
370
-1
 48
1.0
  6
BYLAYER
100
AcDbCircle
 10
49.6025895956202021
 20
-82.7510415852461136
 30
0.0
 40
2.2256713111844189
100
AcDbArc
 50
265.481207480587841
 51
305.0363516951554743
  0
ARC
  5
277
100
AcDbEntity
  8
0
 62
256
370
-1
 48
1.0
  6
BYLAYER
100
AcDbCircle
 10
50.1369729691688946
 20
-83.6117468491897
 30
0.0
 40
1.2154664700992701
100
AcDbArc
 50
307.7044740246346919
 51
0.0778946979753986
  0
ARC
  5
278
100
AcDbEntity
  8
0
 62
256
370
-1
 48
1.0
  6
BYLAYER
100
AcDbCircle
 10
50.1976533702422856
 20
-83.5680852266989405
 30
0.0
 40
1.1555488053691612
100
AcDbArc
 50
357.9165926873183139
 51
56.0351973116663231
  0
ARC
  5
279
100
AcDbEntity
  8
0
 62
256
370
-1
 48
1.0
  6
BYLAYER
100
AcDbCircle
 10
49.5665348289758398
 20
-84.6821294677665577
 30
0.0
 40
2.4341238557628864
100
AcDbArc
 50
58.3652267010529258
 51
93.2805868562687266
  0
ARC
  5
27A
100
AcDbEntity
  8
0
 62
256
370
-1
 48
1.0
  6
BYLAYER
100
AcDbCircle
 10
49.2631659280823868
 20
-84.6403191473635417
 30
0.0
 40
2.3939538424378077
100
AcDbArc
 50
86.0700408968325092
 51
123.6842988759615878
  0
ARC
  5
27B
100
AcDbEntity
  8
0
 62
256
370
-1
 48
1.0
  6
BYLAYER
100
AcDbCircle
 10
48.6085403319776646
 20
-83.6200974891454081
 30
0.0
 40
1.182143598917017
100
AcDbArc
 50
124.7076861145066005
 51
179.515167505445163
  0
ARC
  5
27C
100
AcDbEntity
  8
0
 62
256
370
-1
 48
1.0
  6
BYLAYER
100
AcDbCircle
 10
48.6281412854026627
 20
-83.5713684240926398
 30
0.0
 40
1.2023260578401149
100
AcDbArc
 50
181.845771195491352
 51
234.8208823808782313
  0
LINE
  5
27D
100
AcDbEntity
100
AcDbLine
  8
0
 62
256
370
-1
 48
1.0
  6
BYLAYER
 10
47.9354398159999988
 20
-84.5540955600000217
 30
0.0
 11
47.9354372760000018
 21
-84.5540955600000217
 31
0.0
  0
LINE
  5
27E
100
AcDbEntity
100
AcDbLine
  8
0
 62
256
370
-1
 48
1.0
  6
BYLAYER
 10
45.0468476759999987
 20
-80.2123973600000113
 30
0.0
 11
45.0468476759999987
 21
-79.7966984200000127
 31
0.0
  0
ARC
  5
27F
100
AcDbEntity
  8
0
 62
256
370
-1
 48
1.0
  6
BYLAYER
100
AcDbCircle
 10
42.3906450985900705
 20
-79.785317480785281
 30
0.0
 40
2.6562269590561258
100
AcDbArc
 50
359.7545082596055295
 51
13.7138605206933128
  0
ARC
  5
280
100
AcDbEntity
  8
0
 62
256
370
-1
 48
1.0
  6
BYLAYER
100
AcDbCircle
 10
42.8348133309650621
 20
-79.6817506390413683
 30
0.0
 40
2.2001732355031112
100
AcDbArc
 50
13.8358918690287336
 51
29.7947547583678585
  0
LINE
  5
281
100
AcDbEntity
100
AcDbLine
  8
0
 62
256
370
-1
 48
1.0
  6
BYLAYER
 10
44.7441477480000032
 20
-78.588496620000015
 30
0.0
 11
44.7441477480000032
 21
-78.5127967460000207
 31
0.0
  0
LINE
  5
282
100
AcDbEntity
100
AcDbLine
  8
0
 62
256
370
-1
 48
1.0
  6
BYLAYER
 10
44.7441477480000032
 20
-78.5127967460000207
 30
0.0
 11
50.9754535480000044
 21
-78.5127967460000207
 31
0.0
  0
ARC
  5
283
100
AcDbEntity
  8
0
 62
256
370
-1
 48
1.0
  6
BYLAYER
100
AcDbCircle
 10
50.9955440616112625
 20
-78.2425739074399189
 30
0.0
 40
0.2709686535683503
100
AcDbArc
 50
265.7479993138043142
 51
319.2931184603979773
  0
ARC
  5
284
100
AcDbEntity
  8
0
 62
256
370
-1
 48
1.0
  6
BYLAYER
100
AcDbCircle
 10
50.9020626487813033
 20
-78.1926421190007943
 30
0.0
 40
0.3751107502188695
100
AcDbArc
 50
322.8262553381614453
 51
3.0173755040534389
  0
LINE
  5
285
100
AcDbEntity
100
AcDbLine
  8
0
 62
256
370
-1
 48
1.0
  6
BYLAYER
 10
51.2766533519999967
 20
-78.172896740000013
 30
0.0
 11
51.2766533519999967
 21
-77.3044961400000119
 31
0.0
  0
LINE
  5
286
100
AcDbEntity
100
AcDbLine
  8
0
 62
256
370
-1
 48
1.0
  6
BYLAYER
 10
51.2766533519999967
 20
-77.3044961400000119
 30
0.0
 11
51.5038533040000033
 21
-77.3044961400000119
 31
0.0
  0
LINE
  5
287
100
AcDbEntity
100
AcDbLine
  8
0
 62
256
370
-1
 48
1.0
  6
BYLAYER
 10
51.5038533040000033
 20
-77.3044961400000119
 30
0.0
 11
51.5038533040000033
 21
-80.2493975400000039
 31
0.0
  0
LINE
  5
288
100
AcDbEntity
100
AcDbLine
  8
0
 62
256
370
-1
 48
1.0
  6
BYLAYER
 10
51.5038533040000033
 20
-80.2493975400000039
 30
0.0
 11
51.2766533519999967
 21
-80.2493975400000039
 31
0.0
  0
LINE
  5
289
100
AcDbEntity
100
AcDbLine
  8
0
 62
256
370
-1
 48
1.0
  6
BYLAYER
 10
51.2766533519999967
 20
-80.2493975400000039
 30
0.0
 11
51.2766533519999967
 21
-79.3810985400000106
 31
0.0
  0
ARC
  5
28A
100
AcDbEntity
  8
0
 62
256
370
-1
 48
1.0
  6
BYLAYER
100
AcDbCircle
 10
50.9139308849532171
 20
-79.3420820580656567
 30
0.0
 40
0.3648148488795876
100
AcDbArc
 50
353.8605475655828627
 51
38.1160295205596782
  0
ARC
  5
28B
100
AcDbEntity
  8
0
 62
256
370
-1
 48
1.0
  6
BYLAYER
100
AcDbCircle
 10
50.9979145277383168
 20
-79.3480069292498058
 30
0.0
 40
0.3076299704582529
100
AcDbArc
 50
48.6993413768922636
 51
94.1870611557151847
  0
LINE
  5
28C
100
AcDbEntity
100
AcDbLine
  8
0
 62
256
370
-1
 48
1.0
  6
BYLAYER
 10
50.9754535480000044
 20
-79.0411980260000178
 30
0.0
 11
45.5753627480000034
 21
-79.0411980260000178
 31
0.0
  0
ARC
  5
28D
100
AcDbEntity
  8
0
 62
256
370
-1
 48
1.0
  6
BYLAYER
100
AcDbCircle
 10
45.553714415103876
 20
-79.3550247618454705
 30
0.0
 40
0.3145725201739503
100
AcDbArc
 50
86.0538852968097956
 51
130.8008308157566262
  0
ARC
  5
28E
100
AcDbEntity
  8
0
 62
256
370
-1
 48
1.0
  6
BYLAYER
100
AcDbCircle
 10
45.645186526030507
 20
-79.342695330931889
 30
0.0
 40
0.3731053149134584
100
AcDbArc
 50
142.7579041104275461
 51
185.9078376278582425
  0
LINE
  5
28F
100
AcDbEntity
100
AcDbLine
  8
0
 62
256
370
-1
 48
1.0
  6
BYLAYER
 10
45.2740628680000086
 20
-79.3810985400000106
 30
0.0
 11
45.2740628680000086
 21
-80.2123973600000113
 31
0.0
  0
LINE
  5
290
100
AcDbEntity
100
AcDbLine
  8
0
 62
256
370
-1
 48
1.0
  6
BYLAYER
 10
45.2740628680000086
 20
-80.2123973600000113
 30
0.0
 11
45.046862916000002
 21
-80.2123973600000113
 31
0.0
  0
LINE
  5
291
100
AcDbEntity
100
AcDbLine
  8
0
 62
256
370
-1
 48
1.0
  6
BYLAYER
 10
45.046862916000002
 20
-80.2123973600000113
 30
0.0
 11
45.0468476759999987
 21
-80.2123973600000113
 31
0.0
  0
LINE
  5
292
100
AcDbEntity
100
AcDbLine
  8
0
 62
256
370
-1
 48
1.0
  6
BYLAYER
 10
47.5005486360000049
 20
-74.0952899600000165
 30
0.0
 11
50.295640836000004
 21
-74.0952899600000165
 31
0.0
  0
ARC
  5
293
100
AcDbEntity
  8
0
 62
256
370
-1
 48
1.0
  6
BYLAYER
100
AcDbCircle
 10
50.4122598312556036
 20
-73.0816286017661128
 30
0.0
 40
1.0203476560619016
100
AcDbArc
 50
263.4371292939423483
 51
306.0302960010336619
  0
ARC
  5
294
100
AcDbEntity
  8
0
 62
256
370
-1
 48
1.0
  6
BYLAYER
100
AcDbCircle
 10
50.4342838344477187
 20
-73.3997470952463118
 30
0.0
 40
0.7689985633962587
100
AcDbArc
 50
318.7493185718801669
 51
4.4716995411953642
  0
ARC
  5
295
100
AcDbEntity
  8
0
 62
256
370
-1
 48
1.0
  6
BYLAYER
100
AcDbCircle
 10
50.4207333392726511
 20
-73.3042995335481891
 30
0.0
 40
0.7810150248439259
100
AcDbArc
 50
357.3954376061383869
 51
46.7328705057621363
  0
ARC
  5
296
100
AcDbEntity
  8
0
 62
256
370
-1
 48
1.0
  6
BYLAYER
100
AcDbCircle
 10
50.0998902388083494
 20
-73.7608336202848136
 30
0.0
 40
1.335708738668107
100
AcDbArc
 50
50.1356929821199842
 51
83.2475728645349591
  0
LINE
  5
297
100
AcDbEntity
100
AcDbLine
  8
0
 62
256
370
-1
 48
1.0
  6
BYLAYER
 10
50.2569421580000082
 20
-72.4343900560000122
 30
0.0
 11
50.3326420320000167
 21
-72.2458900520000071
 31
0.0
  0
ARC
  5
298
100
AcDbEntity
  8
0
 62
256
370
-1
 48
1.0
  6
BYLAYER
100
AcDbCircle
 10
50.1606562119863213
 20
-73.7720885191473883
 30
0.0
 40
1.5358583539535053
100
AcDbArc
 50
47.3645541046135037
 51
83.570518414454483
  0
ARC
  5
299
100
AcDbEntity
  8
0
 62
256
370
-1
 48
1.0
  6
BYLAYER
100
AcDbCircle
 10
50.4315101923451721
 20
-73.4429107086943986
 30
0.0
 40
1.1104845112320716
100
AcDbArc
 50
357.503057903347667
 51
46.1415989579092809
  0
ARC
  5
29A
100
AcDbEntity
  8
0
 62
256
370
-1
 48
1.0
  6
BYLAYER
100
AcDbCircle
 10
50.5005142211314677
 20
-73.5685760545475063
 30
0.0
 40
1.0432926936036182
100
AcDbArc
 50
312.1722526849552537
 51
4.2482959371448779
  0
ARC
  5
29B
100
AcDbEntity
  8
0
 62
256
370
-1
 48
1.0
  6
BYLAYER
100
AcDbCircle
 10
50.2763376611594381
 20
-72.9980177588182499
 30
0.0
 40
1.6311403731295842
100
AcDbArc
 50
265.3513341855851877
 51
304.5304929407025725
  0
LINE
  5
29C
100
AcDbEntity
100
AcDbLine
  8
0
 62
256
370
-1
 48
1.0
  6
BYLAYER
 10
50.1441410120000128
 20
-74.623792332000022
 30
0.0
 11
47.5005344120000146
 21
-74.623792332000022
 31
0.0
  0
LINE
  5
29D
100
AcDbEntity
100
AcDbLine
  8
0
 62
256
370
-1
 48
1.0
  6
BYLAYER
 10
47.5005344120000146
 20
-74.623792332000022
 30
0.0
 11
47.5005344120000146
 21
-75.7562919720000139
 31
0.0
  0
LINE
  5
29E
100
AcDbEntity
100
AcDbLine
  8
0
 62
256
370
-1
 48
1.0
  6
BYLAYER
 10
47.5005344120000146
 20
-75.7562919720000139
 30
0.0
 11
47.274934406000007
 21
-75.7562919720000139
 31
0.0
  0
LINE
  5
29F
100
AcDbEntity
100
AcDbLine
  8
0
 62
256
370
-1
 48
1.0
  6
BYLAYER
 10
47.274934406000007
 20
-75.7562919720000139
 30
0.0
 11
47.274934406000007
 21
-75.4549920920000261
 31
0.0
  0
ARC
  5
2A0
100
AcDbEntity
  8
0
 62
256
370
-1
 48
1.0
  6
BYLAYER
100
AcDbCircle
 10
46.2803088071510089
 20
-75.4153206027481673
 30
0.0
 40
0.9954164500073166
100
AcDbArc
 50
357.7159197484479023
 51
44.4059081082588634
  0
ARC
  5
2A1
100
AcDbEntity
  8
0
 62
256
370
-1
 48
1.0
  6
BYLAYER
100
AcDbCircle
 10
46.0200641197317211
 20
-75.8424499503132239
 30
0.0
 40
1.4853184211227926
100
AcDbArc
 50
49.1575352441027036
 51
86.7706950737997857
  0
LINE
  5
2A2
100
AcDbEntity
100
AcDbLine
  8
0
 62
256
370
-1
 48
1.0
  6
BYLAYER
 10
46.1037353260000131
 20
-74.3594900920000299
 30
0.0
 11
45.8025345060000078
 21
-74.322490166000037
 31
0.0
  0
LINE
  5
2A3
100
AcDbEntity
100
AcDbLine
  8
0
 62
256
370
-1
 48
1.0
  6
BYLAYER
 10
45.8025345060000078
 20
-74.322490166000037
 30
0.0
 11
45.8025345060000078
 21
-74.0952902140000305
 31
0.0
  0
LINE
  5
2A4
100
AcDbEntity
100
AcDbLine
  8
0
 62
256
370
-1
 48
1.0
  6
BYLAYER
 10
45.8025345060000078
 20
-74.0952902140000305
 30
0.0
 11
47.274934406000007
 21
-74.0952902140000305
 31
0.0
  0
LINE
  5
2A5
100
AcDbEntity
100
AcDbLine
  8
0
 62
256
370
-1
 48
1.0
  6
BYLAYER
 10
47.274934406000007
 20
-74.0952902140000305
 30
0.0
 11
47.274934406000007
 21
-72.5857910740000278
 31
0.0
  0
LINE
  5
2A6
100
AcDbEntity
100
AcDbLine
  8
0
 62
256
370
-1
 48
1.0
  6
BYLAYER
 10
47.274934406000007
 20
-72.5857910740000278
 30
0.0
 11
47.5005344120000146
 21
-72.5857910740000278
 31
0.0
  0
LINE
  5
2A7
100
AcDbEntity
100
AcDbLine
  8
0
 62
256
370
-1
 48
1.0
  6
BYLAYER
 10
47.5005344120000146
 20
-72.5857910740000278
 30
0.0
 11
47.5005344120000146
 21
-74.0952902140000305
 31
0.0
  0
LINE
  5
2A8
100
AcDbEntity
100
AcDbLine
  8
0
 62
256
370
-1
 48
1.0
  6
BYLAYER
 10
47.5005344120000146
 20
-74.0952902140000305
 30
0.0
 11
47.5005486360000049
 21
-74.0952899600000165
 31
0.0
  0
ARC
  5
2A9
100
AcDbEntity
  8
0
 62
256
370
-1
 48
1.0
  6
BYLAYER
100
AcDbCircle
 10
49.5345252962018208
 20
-69.6230495011733979
 30
0.0
 40
2.0071691495921034
100
AcDbArc
 50
358.4341459069422058
 51
20.9708344116619152
  0
ARC
  5
2AA
100
AcDbEntity
  8
0
 62
256
370
-1
 48
1.0
  6
BYLAYER
100
AcDbCircle
 10
49.9635028179531204
 20
-69.7762613362592106
 30
0.0
 40
1.5805059624364275
100
AcDbArc
 50
322.6695686942549059
 51
3.5681569251754719
  0
ARC
  5
2AB
100
AcDbEntity
  8
0
 62
256
370
-1
 48
1.0
  6
BYLAYER
100
AcDbCircle
 10
50.4607996695438672
 20
-70.1630198797855087
 30
0.0
 40
0.9505637754205311
100
AcDbArc
 50
271.4072889588508701
 51
323.0291421882380405
  0
ARC
  5
2AC
100
AcDbEntity
  8
0
 62
256
370
-1
 48
1.0
  6
BYLAYER
100
AcDbCircle
 10
50.4717091734002921
 20
-69.786762879625428
 30
0.0
 40
1.3265923491146321
100
AcDbArc
 50
213.9173340967805075
 51
270.5371094706242729
  0
ARC
  5
2AD
100
AcDbEntity
  8
0
 62
256
370
-1
 48
1.0
  6
BYLAYER
100
AcDbCircle
 10
53.9437287864274211
 20
-68.0545800508580641
 30
0.0
 40
5.1984716403772673
100
AcDbArc
 50
181.6624720767945007
 51
208.3987138028250854
  0
LINE
  5
2AE
100
AcDbEntity
100
AcDbLine
  8
0
 62
256
370
-1
 48
1.0
  6
BYLAYER
 10
48.74744530400001
 20
-68.2053957200000127
 30
0.0
 11
48.2947461840000045
 21
-68.2053957200000127
 31
0.0
  0
ARC
  5
2AF
100
AcDbEntity
  8
0
 62
256
370
-1
 48
1.0
  6
BYLAYER
100
AcDbCircle
 10
48.2501756576874001
 20
-69.2742058177183821
 30
0.0
 40
1.0697390134049223
100
AcDbArc
 50
87.6120881366502857
 51
122.7581389269209495
  0
ARC
  5
2B0
100
AcDbEntity
  8
0
 62
256
370
-1
 48
1.0
  6
BYLAYER
100
AcDbCircle
 10
48.3295591568162095
 20
-69.008748670514592
 30
0.0
 40
0.9139988834940972
100
AcDbArc
 50
136.0665495943010797
 51
188.8518475690773073
  0
ARC
  5
2B1
100
AcDbEntity
  8
0
 62
256
370
-1
 48
1.0
  6
BYLAYER
100
AcDbCircle
 10
48.9303984495290436
 20
-69.2831434081654436
 30
0.0
 40
1.5098875383468233
100
AcDbArc
 50
174.9179755048622553
 51
210.7392365385580888
  0
ARC
  5
2B2
100
AcDbEntity
  8
0
 62
256
370
-1
 48
1.0
  6
BYLAYER
100
AcDbCircle
 10
47.9727906806043194
 20
-69.8692510100948851
 30
0.0
 40
0.3875070268902965
100
AcDbArc
 50
208.6247954944665253
 51
284.1536698559324918
  0
ARC
  5
2B3
100
AcDbEntity
  8
0
 62
256
370
-1
 48
1.0
  6
BYLAYER
100
AcDbCircle
 10
48.2181951560000144
 20
-70.5194736350907618
 30
0.0
 40
0.313104015090754
100
AcDbArc
 50
61.2394745765321531
 51
118.7605254234678824
  0
ARC
  5
2B4
100
AcDbEntity
  8
0
 62
256
370
-1
 48
1.0
  6
BYLAYER
100
AcDbCircle
 10
48.2213497987512838
 20
-70.507797854002817
 30
0.0
 40
0.3013642199264882
100
AcDbArc
 50
352.6609085965503141
 51
60.6971796665469299
  0
ARC
  5
2B5
100
AcDbEntity
  8
0
 62
256
370
-1
 48
1.0
  6
BYLAYER
100
AcDbCircle
 10
48.1913623943328631
 20
-70.5610316719954653
 30
0.0
 40
0.3292127222318351
100
AcDbArc
 50
315.6669751341330539
 51
2.565693638118669
  0
ARC
  5
2B6
100
AcDbEntity
  8
0
 62
256
370
-1
 48
1.0
  6
BYLAYER
100
AcDbCircle
 10
48.1718124585898977
 20
-70.5005663721142497
 30
0.0
 40
0.3865853854653462
100
AcDbArc
 50
265.7619816338846022
 51
311.2774196494731882
  0
ARC
  5
2B7
100
AcDbEntity
  8
0
 62
256
370
-1
 48
1.0
  6
BYLAYER
100
AcDbCircle
 10
48.2583698877911544
 20
-70.0694649003017958
 30
0.0
 40
0.8247049439082729
100
AcDbArc
 50
203.2335995201937067
 51
261.9754917688288742
  0
ARC
  5
2B8
100
AcDbEntity
  8
0
 62
256
370
-1
 48
1.0
  6
BYLAYER
100
AcDbCircle
 10
49.4613579678780795
 20
-69.2641339353991583
 30
0.0
 40
2.2634447377968345
100
AcDbArc
 50
178.0342821082118689
 51
209.9689893027302219
  0
ARC
  5
2B9
100
AcDbEntity
  8
0
 62
256
370
-1
 48
1.0
  6
BYLAYER
100
AcDbCircle
 10
49.074417482012322
 20
-69.0543163821922548
 30
0.0
 40
1.8798250185286369
100
AcDbArc
 50
147.8501422257804165
 51
184.0320208048687505
  0
ARC
  5
2BA
100
AcDbEntity
  8
0
 62
256
370
-1
 48
1.0
  6
BYLAYER
100
AcDbCircle
 10
48.2433839159743698
 20
-68.6291288389170404
 30
0.0
 40
0.9535180383688344
100
AcDbArc
 50
86.9121460116362812
 51
142.9026790134525982
  0
LINE
  5
2BB
100
AcDbEntity
100
AcDbLine
  8
0
 62
256
370
-1
 48
1.0
  6
BYLAYER
 10
48.2947472000000104
 20
-67.6769952020000005
 30
0.0
 11
50.7852476800000119
 21
-67.6769952020000005
 31
0.0
  0
ARC
  5
2BC
100
AcDbEntity
  8
0
 62
256
370
-1
 48
1.0
  6
BYLAYER
100
AcDbCircle
 10
50.8683185428180664
 20
-67.033526835923027
 30
0.0
 40
0.6488083741684636
100
AcDbArc
 50
262.6438820172713235
 51
295.1981209876004755
  0
ARC
  5
2BD
100
AcDbEntity
  8
0
 62
256
370
-1
 48
1.0
  6
BYLAYER
100
AcDbCircle
 10
50.9114075882726169
 20
-67.4457793945044415
 30
0.0
 40
0.2914022208173739
100
AcDbArc
 50
323.1363602954380667
 51
6.4795344395126993
  0
ARC
  5
2BE
100
AcDbEntity
  8
0
 62
256
370
-1
 48
1.0
  6
BYLAYER
100
AcDbCircle
 10
50.9342383460909431
 20
-67.3973289599757805
 30
0.0
 40
0.2671639158582005
100
AcDbArc
 50
356.659795356289635
 51
68.5935334337824401
  0
ARC
  5
2BF
100
AcDbEntity
  8
0
 62
256
370
-1
 48
1.0
  6
BYLAYER
100
AcDbCircle
 10
50.6147368204941728
 20
-68.2394525702766543
 30
0.0
 40
1.167847534845841
100
AcDbArc
 50
69.0792064733841471
 51
92.6938270848237096
  0
LINE
  5
2C0
100
AcDbEntity
100
AcDbLine
  8
0
 62
256
370
-1
 48
1.0
  6
BYLAYER
 10
50.5598493500000146
 20
-67.0728955719999931
 30
0.0
 11
50.5598493500000146
 21
-66.8843955680000022
 31
0.0
  0
ARC
  5
2C1
100
AcDbEntity
  8
0
 62
256
370
-1
 48
1.0
  6
BYLAYER
100
AcDbCircle
 10
50.6711440231782504
 20
-67.9816208484058961
 30
0.0
 40
1.1028553034009851
100
AcDbArc
 50
55.4847163601181705
 51
95.7918642476223141
  0
ARC
  5
2C2
100
AcDbEntity
  8
0
 62
256
370
-1
 48
1.0
  6
BYLAYER
100
AcDbCircle
 10
50.8742654482630527
 20
-67.5408199701426497
 30
0.0
 40
0.6299650238670697
100
AcDbArc
 50
358.0099160401682639
 51
47.9686315985057377
  0
ARC
  5
2C3
100
AcDbEntity
  8
0
 62
256
370
-1
 48
1.0
  6
BYLAYER
100
AcDbCircle
 10
50.8304077472836582
 20
-67.6008663954032585
 30
0.0
 40
0.6745236079690942
100
AcDbArc
 50
325.9752891920886668
 51
3.2439848849580373
  0
ARC
  5
2C4
100
AcDbEntity
  8
0
 62
256
370
-1
 48
1.0
  6
BYLAYER
100
AcDbCircle
 10
50.8689507043329812
 20
-67.5407062870240509
 30
0.0
 40
0.6800037011289706
100
AcDbArc
 50
282.1826376890851407
 51
319.9458506720150694
  0
ARC
  5
2C5
100
AcDbEntity
  8
0
 62
256
370
-1
 48
1.0
  6
BYLAYER
100
AcDbCircle
 10
48.0492443726870064
 20
-70.3466216408165224
 30
0.0
 40
3.655877376704487
100
AcDbArc
 50
23.2293651256246285
 51
35.8520324638122148
  0
LINE
  5
2C6
100
AcDbEntity
100
AcDbLine
  8
0
 62
256
370
-1
 48
1.0
  6
BYLAYER
 10
51.4087518940000052
 20
-68.9046963279999858
 30
0.0
 11
51.4087450360000062
 21
-68.9046983600000118
 31
0.0
  0
ARC
  5
2C7
100
AcDbEntity
  8
0
 62
256
370
-1
 48
1.0
  6
BYLAYER
100
AcDbCircle
 10
50.3800531034788861
 20
-69.4073680954762438
 30
0.0
 40
1.0632657602391868
100
AcDbArc
 50
212.5342995715631105
 51
269.5307735263347695
  0
ARC
  5
2C8
100
AcDbEntity
  8
0
 62
256
370
-1
 48
1.0
  6
BYLAYER
100
AcDbCircle
 10
50.3733886814343137
 20
-69.4429014778034457
 30
0.0
 40
1.0276987531649755
100
AcDbArc
 50
269.8860914377166864
 51
307.0888431368912848
  0
ARC
  5
2C9
100
AcDbEntity
  8
0
 62
256
370
-1
 48
1.0
  6
BYLAYER
100
AcDbCircle
 10
50.5196700075103777
 20
-69.6683816672463365
 30
0.0
 40
0.7598623811740616
100
AcDbArc
 50
308.543340258112778
 51
4.9966827071093709
  0
ARC
  5
2CA
100
AcDbEntity
  8
0
 62
256
370
-1
 48
1.0
  6
BYLAYER
100
AcDbCircle
 10
49.4237063825118312
 20
-69.6095302289144229
 30
0.0
 40
1.8529528360995111
100
AcDbArc
 50
0.2266881587251973
 51
21.7668520836282298
  0
ARC
  5
2CB
100
AcDbEntity
  8
0
 62
256
370
-1
 48
1.0
  6
BYLAYER
100
AcDbCircle
 10
47.8921407689989067
 20
-70.2520519791050333
 30
0.0
 40
3.5137030470828381
100
AcDbArc
 50
22.2358105518369982
 51
35.6249706462504392
  0
LINE
  5
2CC
100
AcDbEntity
100
AcDbLine
  8
0
 62
256
370
-1
 48
1.0
  6
BYLAYER
 10
50.7482436900000096
 20
-68.2053997840000221
 30
0.0
 11
48.9729437100000098
 21
-68.2053997840000221
 31
0.0
  0
ARC
  5
2CD
100
AcDbEntity
  8
0
 62
256
370
-1
 48
1.0
  6
BYLAYER
100
AcDbCircle
 10
52.9426666856675041
 20
-68.0228823653612977
 30
0.0
 40
3.9739165959603269
100
AcDbArc
 50
182.6324553173943173
 51
209.4911560284971586
  0
LINE
  5
2CE
100
AcDbEntity
100
AcDbLine
  8
0
 62
256
370
-1
 48
1.0
  6
BYLAYER
 10
49.4836437300000114
 20
-69.9791986240000199
 30
0.0
 11
49.4836460160000016
 21
-69.9791971000000075
 31
0.0
  0
ARC
  5
2CF
100
AcDbEntity
  8
0
 62
256
370
-1
 48
1.0
  6
BYLAYER
100
AcDbCircle
 10
48.5514555713709015
 20
-64.1154568021075022
 30
0.0
 40
1.2634789824580777
100
AcDbArc
 50
230.4507521467758409
 51
275.463122940444407
  0
ARC
  5
2D0
100
AcDbEntity
  8
0
 62
256
370
-1
 48
1.0
  6
BYLAYER
100
AcDbCircle
 10
48.7009517636379101
 20
-64.1951649664554935
 30
0.0
 40
1.178393693023178
100
AcDbArc
 50
268.5797738117889253
 51
309.1506345136062919
  0
ARC
  5
2D1
100
AcDbEntity
  8
0
 62
256
370
-1
 48
1.0
  6
BYLAYER
100
AcDbCircle
 10
48.8882795227474816
 20
-64.4279636646100329
 30
0.0
 40
0.8795910694195946
100
AcDbArc
 50
309.2619923776929909
 51
2.3305607496276788
  0
ARC
  5
2D2
100
AcDbEntity
  8
0
 62
256
370
-1
 48
1.0
  6
BYLAYER
100
AcDbCircle
 10
48.8478959024329455
 20
-64.3234069534838255
 30
0.0
 40
0.9218172985680153
100
AcDbArc
 50
355.7204641959983746
 51
46.3961934549803985
  0
ARC
  5
2D3
100
AcDbEntity
  8
0
 62
256
370
-1
 48
1.0
  6
BYLAYER
100
AcDbCircle
 10
48.7518640890575625
 20
-64.6058334617362817
 30
0.0
 40
1.1991180409970674
100
AcDbArc
 50
52.3913565248895594
 51
93.8311856250467855
  0
ARC
  5
2D4
100
AcDbEntity
  8
0
 62
256
370
-1
 48
1.0
  6
BYLAYER
100
AcDbCircle
 10
48.5536741308289947
 20
-64.6743804180500064
 30
0.0
 40
1.2704833313494932
100
AcDbArc
 50
84.6676968164754413
 51
129.4184280963047797
  0
ARC
  5
2D5
100
AcDbEntity
  8
0
 62
256
370
-1
 48
1.0
  6
BYLAYER
100
AcDbCircle
 10
48.4150682295324515
 20
-64.3708715569079999
 30
0.0
 40
0.951862781084815
100
AcDbArc
 50
134.5806436440753941
 51
181.2836248603116758
  0
ARC
  5
2D6
100
AcDbEntity
  8
0
 62
256
370
-1
 48
1.0
  6
BYLAYER
100
AcDbCircle
 10
48.4111590897085691
 20
-64.4133588118467912
 30
0.0
 40
0.947951057383782
100
AcDbArc
 50
178.7207054416246308
 51
225.5180017213977521
  0
LINE
  5
2D7
100
AcDbEntity
100
AcDbLine
  8
0
 62
256
370
-1
 48
1.0
  6
BYLAYER
 10
47.7469438760000102
 20
-65.0896940520000129
 30
0.0
 11
47.7469464160000072
 21
-65.0896971000000093
 31
0.0
  0
ARC
  5
2D8
100
AcDbEntity
  8
0
 62
256
370
-1
 48
1.0
  6
BYLAYER
100
AcDbCircle
 10
-8.9820627757165479
 20
-55.7585264944275423
 30
0.0
 40
60.1961789940754599
100
AcDbArc
 50
351.9181165478086655
 51
352.588224892145206
  0
ARC
  5
2D9
100
AcDbEntity
  8
0
 62
256
370
-1
 48
1.0
  6
BYLAYER
100
AcDbCircle
 10
52.1929096624697664
 20
-63.6177795137162718
 30
0.0
 40
1.4847297462817286
100
AcDbArc
 50
141.4499297110183136
 51
176.3707947835030154
  0
ARC
  5
2DA
100
AcDbEntity
  8
0
 62
256
370
-1
 48
1.0
  6
BYLAYER
100
AcDbCircle
 10
51.652099750693317
 20
-63.2856149112088957
 30
0.0
 40
0.8582617691260231
100
AcDbArc
 50
87.3115319895915292
 51
136.2853615113465935
  0
ARC
  5
2DB
100
AcDbEntity
  8
0
 62
256
370
-1
 48
1.0
  6
BYLAYER
100
AcDbCircle
 10
51.714418640363462
 20
-63.4900436417194314
 30
0.0
 40
1.0619750253112077
100
AcDbArc
 50
33.7269348623059102
 51
91.1903647286623311
  0
ARC
  5
2DC
100
AcDbEntity
  8
0
 62
256
370
-1
 48
1.0
  6
BYLAYER
100
AcDbCircle
 10
50.3671684889143805
 20
-64.1933976573842386
 30
0.0
 40
2.5781629691599339
100
AcDbArc
 50
355.5775757357143334
 51
30.1006115213561856
  0
ARC
  5
2DD
100
AcDbEntity
  8
0
 62
256
370
-1
 48
1.0
  6
BYLAYER
100
AcDbCircle
 10
50.6285558506735427
 20
-64.49757643098242
 30
0.0
 40
2.311502802435411
100
AcDbArc
 50
329.3461437270910324
 51
2.6129497795787491
  0
ARC
  5
2DE
100
AcDbEntity
  8
0
 62
256
370
-1
 48
1.0
  6
BYLAYER
100
AcDbCircle
 10
51.8163187767544855
 20
-65.2705308845959848
 30
0.0
 40
0.8975882502531086
100
AcDbArc
 50
274.1231224663924877
 51
333.1382321632345338
  0
ARC
  5
2DF
100
AcDbEntity
  8
0
 62
256
370
-1
 48
1.0
  6
BYLAYER
100
AcDbCircle
 10
51.9059891291885407
 20
-65.2604942003467698
 30
0.0
 40
0.9056506655645168
100
AcDbArc
 50
232.3237714061589543
 51
268.4097127235273206
  0
ARC
  5
2E0
100
AcDbEntity
  8
0
 62
256
370
-1
 48
1.0
  6
BYLAYER
100
AcDbCircle
 10
52.118751335060459
 20
-65.004909369338236
 30
0.0
 40
1.238040162657339
100
AcDbArc
 50
197.3059975318599015
 51
231.7599257957345458
  0
ARC
  5
2E1
100
AcDbEntity
  8
0
 62
256
370
-1
 48
1.0
  6
BYLAYER
100
AcDbCircle
 10
49.6981475165447435
 20
-64.7920691022009834
 30
0.0
 40
1.3681602846662857
100
AcDbArc
 50
316.5780378804117277
 51
334.8651619238015087
  0
ARC
  5
2E2
100
AcDbEntity
  8
0
 62
256
370
-1
 48
1.0
  6
BYLAYER
100
AcDbCircle
 10
50.3770306978597517
 20
-65.4235125427949811
 30
0.0
 40
0.4411199157215235
100
AcDbArc
 50
269.2631671692038253
 51
315.5367123467758006
  0
ARC
  5
2E3
100
AcDbEntity
  8
0
 62
256
370
-1
 48
1.0
  6
BYLAYER
100
AcDbCircle
 10
50.3630267535978362
 20
-65.2917758500322378
 30
0.0
 40
0.5728807144198966
100
AcDbArc
 50
227.3592797202712177
 51
270.8332643092559806
  0
ARC
  5
2E4
100
AcDbEntity
  8
0
 62
256
370
-1
 48
1.0
  6
BYLAYER
100
AcDbCircle
 10
50.7976914628051972
 20
-64.7994151998245655
 30
0.0
 40
1.2295876250049145
100
AcDbArc
 50
205.8842126015328802
 51
228.0013300642468437
  0
ARC
  5
2E5
100
AcDbEntity
  8
0
 62
256
370
-1
 48
1.0
  6
BYLAYER
100
AcDbCircle
 10
48.1359353793623583
 20
-64.0162925848070472
 30
0.0
 40
2.0400485696427229
100
AcDbArc
 50
302.7269200556204396
 51
319.6844825861957702
  0
ARC
  5
2E6
100
AcDbEntity
  8
0
 62
256
370
-1
 48
1.0
  6
BYLAYER
100
AcDbCircle
 10
48.6711505961338204
 20
-64.8646991681196994
 30
0.0
 40
1.0369985175471166
100
AcDbArc
 50
270.0335391242948049
 51
303.1924395498896274
  0
ARC
  5
2E7
100
AcDbEntity
  8
0
 62
256
370
-1
 48
1.0
  6
BYLAYER
100
AcDbCircle
 10
48.6641636311096519
 20
-64.4600416466215762
 30
0.0
 40
1.4416758620939891
100
AcDbArc
 50
226.4769210799278767
 51
270.3018054551852742
  0
ARC
  5
2E8
100
AcDbEntity
  8
0
 62
256
370
-1
 48
1.0
  6
BYLAYER
100
AcDbCircle
 10
48.6629248535233856
 20
-64.476334653354769
 30
0.0
 40
1.4290460486320269
100
AcDbArc
 50
176.6246089685209881
 51
226.0630744043047571
  0
ARC
  5
2E9
100
AcDbEntity
  8
0
 62
256
370
-1
 48
1.0
  6
BYLAYER
100
AcDbCircle
 10
49.5299931828018742
 20
-64.3901000336860534
 30
0.0
 40
2.2936362383108868
100
AcDbArc
 50
165.2386030421235716
 51
180.0523536311526982
  0
ARC
  5
2EA
100
AcDbEntity
  8
0
 62
256
370
-1
 48
1.0
  6
BYLAYER
100
AcDbCircle
 10
48.3136954210368401
 20
-64.0564147121542078
 30
0.0
 40
1.032539855216666
100
AcDbArc
 50
135.5774399419987049
 51
165.947029818407259
  0
ARC
  5
2EB
100
AcDbEntity
  8
0
 62
256
370
-1
 48
1.0
  6
BYLAYER
100
AcDbCircle
 10
49.9304197965398231
 20
-61.6032352234064504
 30
0.0
 40
2.9217397917682866
100
AcDbArc
 50
205.548177707837425
 51
216.3182592827427015
  0
ARC
  5
2EC
100
AcDbEntity
  8
0
 62
256
370
-1
 48
1.0
  6
BYLAYER
100
AcDbCircle
 10
48.0755619840168222
 20
-62.4642885693130268
 30
0.0
 40
0.8772018305953621
100
AcDbArc
 50
182.5942320117544568
 51
207.0560025835368663
  0
ARC
  5
2ED
100
AcDbEntity
  8
0
 62
256
370
-1
 48
1.0
  6
BYLAYER
100
AcDbCircle
 10
47.4752834222375526
 20
-62.4768794357515702
 30
0.0
 40
0.2773527085626981
100
AcDbArc
 50
121.2599121004786156
 51
185.6100736791864279
  0
ARC
  5
2EE
100
AcDbEntity
  8
0
 62
256
370
-1
 48
1.0
  6
BYLAYER
100
AcDbCircle
 10
47.5979116051088909
 20
-62.668134182216761
 30
0.0
 40
0.5045067019906373
100
AcDbArc
 50
92.4597767553494663
 51
121.8935374282201565
  0
ARC
  5
2EF
100
AcDbEntity
  8
0
 62
256
370
-1
 48
1.0
  6
BYLAYER
100
AcDbCircle
 10
47.5960680803308094
 20
-62.6439875055852795
 30
0.0
 40
0.4803038291773231
100
AcDbArc
 50
61.8509874520225083
 51
92.363688210157818
  0
ARC
  5
2F0
100
AcDbEntity
  8
0
 62
256
370
-1
 48
1.0
  6
BYLAYER
100
AcDbCircle
 10
47.6955365076713207
 20
-62.402520607170807
 30
0.0
 40
0.2220236584167123
100
AcDbArc
 50
353.334312505038838
 51
55.0707900459644222
  0
ARC
  5
2F1
100
AcDbEntity
  8
0
 62
256
370
-1
 48
1.0
  6
BYLAYER
100
AcDbCircle
 10
47.6180411752441941
 20
-62.4419395263011054
 30
0.0
 40
0.2983305026725382
100
AcDbArc
 50
324.1189817692778661
 51
2.6219460688272145
  0
ARC
  5
2F2
100
AcDbEntity
  8
0
 62
256
370
-1
 48
1.0
  6
BYLAYER
100
AcDbCircle
 10
47.5980032182094916
 20
-62.4075399243989182
 30
0.0
 40
0.3351160092042252
100
AcDbArc
 50
286.0507943989409227
 51
321.3605557234700427
  0
ARC
  5
2F3
100
AcDbEntity
  8
0
 62
256
370
-1
 48
1.0
  6
BYLAYER
100
AcDbCircle
 10
47.7283066884607479
 20
-62.8624292197253851
 30
0.0
 40
0.1380689386640285
100
AcDbArc
 50
105.8232857019601454
 51
195.9593934386685703
  0
ARC
  5
2F4
100
AcDbEntity
  8
0
 62
256
370
-1
 48
1.0
  6
BYLAYER
100
AcDbCircle
 10
48.2216683322074644
 20
-62.7812093359125356
 30
0.0
 40
0.6373515260409127
100
AcDbArc
 50
190.7775793004567504
 51
219.1719824423699947
  0
ARC
  5
2F5
100
AcDbEntity
  8
0
 62
256
370
-1
 48
1.0
  6
BYLAYER
100
AcDbCircle
 10
48.3650627104776873
 20
-63.8571058874799391
 30
0.0
 40
0.9272331418999147
100
AcDbArc
 50
103.8399805217562459
 51
133.4351376450588589
  0
ARC
  5
2F6
100
AcDbEntity
  8
0
 62
256
370
-1
 48
1.0
  6
BYLAYER
100
AcDbCircle
 10
48.6790219979127201
 20
-64.8094215076223037
 30
0.0
 40
1.9285426594593118
100
AcDbArc
 50
90.2157903274224822
 51
106.1293955740140404
  0
ARC
  5
2F7
100
AcDbEntity
  8
0
 62
256
370
-1
 48
1.0
  6
BYLAYER
100
AcDbCircle
 10
48.6273026393046877
 20
-64.2667091068661307
 30
0.0
 40
1.3865294557359531
100
AcDbArc
 50
47.7611599494715193
 51
88.1626227193341094
  0
ARC
  5
2F8
100
AcDbEntity
  8
0
 62
256
370
-1
 48
1.0
  6
BYLAYER
100
AcDbCircle
 10
48.5845798043480031
 20
-64.2644461774081321
 30
0.0
 40
1.4139620277505751
100
AcDbArc
 50
354.8164656994717348
 51
46.4177103936975399
  0
ARC
  5
2F9
100
AcDbEntity
  8
0
 62
256
370
-1
 48
1.0
  6
BYLAYER
100
AcDbCircle
 10
48.5665419831001941
 20
-64.4101765436456617
 30
0.0
 40
1.4263306959505058
100
AcDbArc
 50
343.8174333935613163
 51
0.722438082872853
  0
ARC
  5
2FA
100
AcDbEntity
  8
0
 62
256
370
-1
 48
1.0
  6
BYLAYER
100
AcDbCircle
 10
48.8456551246615263
 20
-64.5091002004863583
 30
0.0
 40
1.13083756372566
100
AcDbArc
 50
327.9617303387969969
 51
344.6897257904298613
  0
ARC
  5
2FB
100
AcDbEntity
  8
0
 62
256
370
-1
 48
1.0
  6
BYLAYER
100
AcDbCircle
 10
50.3213611287362923
 20
-64.8717675461820846
 30
0.0
 40
0.5689203201263887
100
AcDbArc
 50
204.6437676870385474
 51
234.7188917323535122
  0
ARC
  5
2FC
100
AcDbEntity
  8
0
 62
256
370
-1
 48
1.0
  6
BYLAYER
100
AcDbCircle
 10
50.2205731112477451
 20
-65.0414563136737485
 30
0.0
 40
0.3725170502129444
100
AcDbArc
 50
232.2981407945091519
 51
263.9419745430866442
  0
ARC
  5
2FD
100
AcDbEntity
  8
0
 62
256
370
-1
 48
1.0
  6
BYLAYER
100
AcDbCircle
 10
50.2047172074145038
 20
-65.103766714952684
 30
0.0
 40
0.3090179815295999
100
AcDbArc
 50
265.6464243079540779
 51
311.2234348883825987
  0
ARC
  5
2FE
100
AcDbEntity
  8
0
 62
256
370
-1
 48
1.0
  6
BYLAYER
100
AcDbCircle
 10
50.1733890408445831
 20
-65.1315564712445507
 30
0.0
 40
0.3115881048861552
100
AcDbArc
 50
318.9472249923131812
 51
4.1526335952710047
  0
ARC
  5
2FF
100
AcDbEntity
  8
0
 62
256
370
-1
 48
1.0
  6
BYLAYER
100
AcDbCircle
 10
-27.2777437923025019
 20
-53.0821912006023098
 30
0.0
 40
78.6864506299824029
100
AcDbArc
 50
351.2081863698138591
 51
351.8616175229624901
  0
LINE
  5
300
100
AcDbEntity
100
AcDbLine
  8
0
 62
256
370
-1
 48
1.0
  6
BYLAYER
 10
50.6162591939999942
 20
-64.2213927659999939
 30
0.0
 11
50.6162574160000034
 21
-64.221398100000016
 31
0.0
  0
ARC
  5
301
100
AcDbEntity
  8
0
 62
256
370
-1
 48
1.0
  6
BYLAYER
100
AcDbCircle
 10
17.9992064764406052
 20
-59.9714377600477917
 30
0.0
 40
33.4049462018710202
100
AcDbArc
 50
351.217222171035246
 51
352.8523621437305451
  0
ARC
  5
302
100
AcDbEntity
  8
0
 62
256
370
-1
 48
1.0
  6
BYLAYER
100
AcDbCircle
 10
51.9954439066701894
 20
-64.6964752132639518
 30
0.0
 40
1.0522741318027504
100
AcDbArc
 50
200.9079850617775378
 51
233.6509389901569023
  0
ARC
  5
303
100
AcDbEntity
  8
0
 62
256
370
-1
 48
1.0
  6
BYLAYER
100
AcDbCircle
 10
51.8524571044317142
 20
-64.7384929492104533
 30
0.0
 40
0.9380361107576036
100
AcDbArc
 50
239.1726474503811346
 51
271.7349854028428808
  0
ARC
  5
304
100
AcDbEntity
  8
0
 62
256
370
-1
 48
1.0
  6
BYLAYER
100
AcDbCircle
 10
51.8245955470639856
 20
-64.9393810078128269
 30
0.0
 40
0.7388632216438666
100
AcDbArc
 50
274.3671185615055492
 51
327.5159199650161668
  0
ARC
  5
305
100
AcDbEntity
  8
0
 62
256
370
-1
 48
1.0
  6
BYLAYER
100
AcDbCircle
 10
51.0646395364775856
 20
-64.4337239048627026
 30
0.0
 40
1.6515903653053696
100
AcDbArc
 50
326.8777126007393008
 51
4.073584412591444
  0
ARC
  5
306
100
AcDbEntity
  8
0
 62
256
370
-1
 48
1.0
  6
BYLAYER
100
AcDbCircle
 10
50.5958305456666793
 20
-64.2165416313713138
 30
0.0
 40
2.1185814914625007
100
AcDbArc
 50
357.2984177666418191
 51
25.7360346253088359
  0
ARC
  5
307
100
AcDbEntity
  8
0
 62
256
370
-1
 48
1.0
  6
BYLAYER
100
AcDbCircle
 10
51.9011396055723253
 20
-63.590159149317742
 30
0.0
 40
0.6707672062960274
100
AcDbArc
 50
25.9539233285943922
 51
91.7327155203415714
  0
ARC
  5
308
100
AcDbEntity
  8
0
 62
256
370
-1
 48
1.0
  6
BYLAYER
100
AcDbCircle
 10
51.8388538189885821
 20
-63.7037952351010404
 30
0.0
 40
0.7852208486657544
100
AcDbArc
 50
86.9336138409662453
 51
118.418672579013645
  0
ARC
  5
309
100
AcDbEntity
  8
0
 62
256
370
-1
 48
1.0
  6
BYLAYER
100
AcDbCircle
 10
51.6885039506036392
 20
-63.3661430231879876
 30
0.0
 40
0.4176755692832074
100
AcDbArc
 50
122.3258628290177086
 51
170.4154835435275572
  0
ARC
  5
30A
100
AcDbEntity
  8
0
 62
256
370
-1
 48
1.0
  6
BYLAYER
100
AcDbCircle
 10
63.3676857552268586
 20
-65.6441057883888703
 30
0.0
 40
12.3168065384878513
100
AcDbArc
 50
169.0125615225857416
 51
172.9289114401877896
  0
LINE
  5
30B
100
AcDbEntity
100
AcDbLine
  8
0
 62
256
370
-1
 48
1.0
  6
BYLAYER
 10
51.1445586200000051
 20
-64.1278979060000154
 30
0.0
 11
51.1445570959999998
 21
-64.1278981600000151
 31
0.0
  0
LINE
  5
30C
100
AcDbEntity
100
AcDbLine
  8
0
 62
256
370
-1
 48
1.0
  6
BYLAYER
 10
49.162958316000001
 20
-60.6528987600000136
 30
0.0
 11
49.162958316000001
 21
-58.2363986400000186
 31
0.0
  0
ARC
  5
30D
100
AcDbEntity
  8
0
 62
256
370
-1
 48
1.0
  6
BYLAYER
100
AcDbCircle
 10
48.9340494281988256
 20
-60.1775457772974036
 30
0.0
 40
1.9545975257203763
100
AcDbArc
 50
83.2744821087766809
 51
121.9969648225897458
  0
ARC
  5
30E
100
AcDbEntity
  8
0
 62
256
370
-1
 48
1.0
  6
BYLAYER
100
AcDbCircle
 10
48.4706825877233101
 20
-59.3489999226442748
 30
0.0
 40
1.0074545611139705
100
AcDbArc
 50
124.6170992258383734
 51
181.2283900178138936
  0
ARC
  5
30F
100
AcDbEntity
  8
0
 62
256
370
-1
 48
1.0
  6
BYLAYER
100
AcDbCircle
 10
48.5938238407166025
 20
-59.3904474779436029
 30
0.0
 40
1.130538560244305
100
AcDbArc
 50
178.9939519521536511
 51
233.1655012467980725
  0
ARC
  5
310
100
AcDbEntity
  8
0
 62
256
370
-1
 48
1.0
  6
BYLAYER
100
AcDbCircle
 10
49.0512084040797589
 20
-58.6898716176007653
 30
0.0
 40
1.9662029905721827
100
AcDbArc
 50
234.7370035433581563
 51
273.2582577947561049
  0
LINE
  5
311
100
AcDbEntity
100
AcDbLine
  8
0
 62
256
370
-1
 48
1.0
  6
BYLAYER
 10
49.162960855999998
 20
-60.6528962200000308
 30
0.0
 11
49.162958316000001
 21
-60.6528987600000136
 31
0.0
  0
LINE
  5
312
100
AcDbEntity
100
AcDbLine
  8
0
 62
256
370
-1
 48
1.0
  6
BYLAYER
 10
49.3885583220000015
 20
-57.5951959600000123
 30
0.0
 11
49.3885583220000015
 21
-60.6528987600000136
 31
0.0
  0
ARC
  5
313
100
AcDbEntity
  8
0
 62
256
370
-1
 48
1.0
  6
BYLAYER
100
AcDbCircle
 10
49.589265558957095
 20
-58.5215995258040635
 30
0.0
 40
2.1407288059563334
100
AcDbArc
 50
264.6202470284659967
 51
305.858040676672374
  0
ARC
  5
314
100
AcDbEntity
  8
0
 62
256
370
-1
 48
1.0
  6
BYLAYER
100
AcDbCircle
 10
49.9352620134932579
 20
-59.2680220519367751
 30
0.0
 40
1.3422896292504656
100
AcDbArc
 50
312.5671810536609314
 51
2.0888466885792227
  0
ARC
  5
315
100
AcDbEntity
  8
0
 62
256
370
-1
 48
1.0
  6
BYLAYER
100
AcDbCircle
 10
50.0266525180431572
 20
-59.1814931832190183
 30
0.0
 40
1.2505726625902254
100
AcDbArc
 50
358.2769113138338639
 51
39.3893057498454127
  0
ARC
  5
316
100
AcDbEntity
  8
0
 62
256
370
-1
 48
1.0
  6
BYLAYER
100
AcDbCircle
 10
49.7443004463612155
 20
-59.4198209082894806
 30
0.0
 40
1.6200363007418521
100
AcDbArc
 50
39.5666826573584132
 51
70.102511459388495
  0
LINE
  5
317
100
AcDbEntity
100
AcDbLine
  8
0
 62
256
370
-1
 48
1.0
  6
BYLAYER
 10
50.2956609019999945
 20
-57.8964958400000071
 30
0.0
 11
50.371360775999996
 21
-57.7079958360000091
 31
0.0
  0
ARC
  5
318
100
AcDbEntity
  8
0
 62
256
370
-1
 48
1.0
  6
BYLAYER
100
AcDbCircle
 10
49.8176212523964637
 20
-59.4890420293509763
 30
0.0
 40
1.8651415503523152
100
AcDbArc
 50
42.9295879779402298
 51
72.7291709303664362
  0
ARC
  5
319
100
AcDbEntity
  8
0
 62
256
370
-1
 48
1.0
  6
BYLAYER
100
AcDbCircle
 10
50.1294122350248301
 20
-59.2178262994877755
 30
0.0
 40
1.4521915028279802
100
AcDbArc
 50
356.9618074900282068
 51
43.4732328859697787
  0
ARC
  5
31A
100
AcDbEntity
  8
0
 62
256
370
-1
 48
1.0
  6
BYLAYER
100
AcDbCircle
 10
49.693628203860996
 20
-59.3611443177853246
 30
0.0
 40
1.8871011406536988
100
AcDbArc
 50
314.3362136568093206
 51
2.0149059127398257
  0
ARC
  5
31B
100
AcDbEntity
  8
0
 62
256
370
-1
 48
1.0
  6
BYLAYER
100
AcDbCircle
 10
49.5391814378237214
 20
-59.0177992218589793
 30
0.0
 40
2.2443552576878627
100
AcDbArc
 50
266.1519461530789386
 51
311.0287884302045995
  0
ARC
  5
31C
100
AcDbEntity
  8
0
 62
256
370
-1
 48
1.0
  6
BYLAYER
100
AcDbCircle
 10
49.3078239334625366
 20
-58.9708191728253723
 30
0.0
 40
2.287700609260197
100
AcDbArc
 50
229.5191017363260357
 51
272.0224939399745381
  0
ARC
  5
31D
100
AcDbEntity
  8
0
 62
256
370
-1
 48
1.0
  6
BYLAYER
100
AcDbCircle
 10
48.9176393240686451
 20
-59.3864720906729175
 30
0.0
 40
1.7184512059454005
100
AcDbArc
 50
179.4706599692179054
 51
230.4174785698156143
  0
ARC
  5
31E
100
AcDbEntity
  8
0
 62
256
370
-1
 48
1.0
  6
BYLAYER
100
AcDbCircle
 10
48.9663832743986021
 20
-59.346734249448005
 30
0.0
 40
1.7672829159371723
100
AcDbArc
 50
136.207785326971873
 51
180.7736282891009409
  0
ARC
  5
31F
100
AcDbEntity
  8
0
 62
256
370
-1
 48
1.0
  6
BYLAYER
100
AcDbCircle
 10
49.1522338199985285
 20
-59.8275973307095015
 30
0.0
 40
2.2448773854470927
100
AcDbArc
 50
83.9569798103615312
 51
130.622288460471367
  0
LINE
  5
320
100
AcDbEntity
100
AcDbLine
  8
0
 62
256
370
-1
 48
1.0
  6
BYLAYER
 10
49.3885636559999952
 20
-57.5951944360000212
 30
0.0
 11
49.3885583220000015
 21
-57.5951959600000123
 31
0.0
  0
LINE
  5
321
100
AcDbEntity
100
AcDbLine
  8
0
 62
256
370
-1
 48
1.0
  6
BYLAYER
 10
197.2812920000000076
 20
-111.0490539999999982
 30
0.0
 11
187.2200979999999788
 21
-125.1326427999999993
 31
0.0
  0
LINE
  5
322
100
AcDbEntity
100
AcDbLine
  8
0
 62
256
370
-1
 48
1.0
  6
BYLAYER
 10
187.2200979999999788
 20
-125.1326427999999993
 30
0.0
 11
179.0899897999999837
 21
-140.0166363999999817
 31
0.0
  0
LINE
  5
323
100
AcDbEntity
100
AcDbLine
  8
0
 62
256
370
-1
 48
1.0
  6
BYLAYER
 10
179.0899897999999837
 20
-140.0166363999999817
 30
0.0
 11
179.0899897999999837
 21
-147.9114390000000014
 31
0.0
  0
LINE
  5
324
100
AcDbEntity
100
AcDbLine
  8
0
 62
256
370
-1
 48
1.0
  6
BYLAYER
 10
179.0899897999999837
 20
-147.9114390000000014
 30
0.0
 11
179.1047897957999737
 21
-147.9114390000000014
 31
0.0
  0
LINE
  5
325
100
AcDbEntity
100
AcDbLine
  8
0
 62
256
370
-1
 48
1.0
  6
BYLAYER
 10
179.1047897957999737
 20
-147.9114390000000014
 30
0.0
 11
179.1047897957999737
 21
-147.9167389894000166
 31
0.0
  0
LINE
  5
326
100
AcDbEntity
100
AcDbLine
  8
0
 62
256
370
-1
 48
1.0
  6
BYLAYER
 10
179.1047897957999737
 20
-147.9167389894000166
 30
0.0
 11
184.0506777957999702
 21
-147.9167389894000166
 31
0.0
  0
LINE
  5
327
100
AcDbEntity
100
AcDbLine
  8
0
 62
256
370
-1
 48
1.0
  6
BYLAYER
 10
184.0506777957999702
 20
-147.9167389894000166
 30
0.0
 11
184.0506777957999702
 21
-147.9114390000000014
 31
0.0
  0
LINE
  5
328
100
AcDbEntity
100
AcDbLine
  8
0
 62
256
370
-1
 48
1.0
  6
BYLAYER
 10
184.0506777957999702
 20
-147.9114390000000014
 30
0.0
 11
185.1089789557999836
 21
-147.9114390000000014
 31
0.0
  0
LINE
  5
329
100
AcDbEntity
100
AcDbLine
  8
0
 62
256
370
-1
 48
1.0
  6
BYLAYER
 10
185.1089789557999836
 20
-147.9114390000000014
 30
0.0
 11
185.1089789557999836
 21
-142.844545399999987
 31
0.0
  0
LINE
  5
32A
100
AcDbEntity
100
AcDbLine
  8
0
 62
256
370
-1
 48
1.0
  6
BYLAYER
 10
185.1089789557999836
 20
-142.844545399999987
 30
0.0
 11
191.8089909557999704
 21
-142.844545399999987
 31
0.0
  0
LINE
  5
32B
100
AcDbEntity
100
AcDbLine
  8
0
 62
256
370
-1
 48
1.0
  6
BYLAYER
 10
191.8089909557999704
 20
-142.844545399999987
 30
0.0
 11
191.8089909557999704
 21
-137.8474510000000066
 31
0.0
  0
LINE
  5
32C
100
AcDbEntity
100
AcDbLine
  8
0
 62
256
370
-1
 48
1.0
  6
BYLAYER
 10
191.8089909557999704
 20
-137.8474510000000066
 30
0.0
 11
189.5409919357999797
 21
-137.8474510000000066
 31
0.0
  0
LINE
  5
32D
100
AcDbEntity
100
AcDbLine
  8
0
 62
256
370
-1
 48
1.0
  6
BYLAYER
 10
189.5409919357999797
 20
-137.8474510000000066
 30
0.0
 11
189.5409919357999797
 21
-133.8663565999999889
 31
0.0
  0
LINE
  5
32E
100
AcDbEntity
100
AcDbLine
  8
0
 62
256
370
-1
 48
1.0
  6
BYLAYER
 10
189.5409919357999797
 20
-133.8663565999999889
 30
0.0
 11
191.8089909557999704
 21
-133.8663565999999889
 31
0.0
  0
LINE
  5
32F
100
AcDbEntity
100
AcDbLine
  8
0
 62
256
370
-1
 48
1.0
  6
BYLAYER
 10
191.8089909557999704
 20
-133.8663565999999889
 30
0.0
 11
191.8089909557999704
 21
-128.9274536000000069
 31
0.0
  0
LINE
  5
330
100
AcDbEntity
100
AcDbLine
  8
0
 62
256
370
-1
 48
1.0
  6
BYLAYER
 10
191.8089909557999704
 20
-128.9274536000000069
 30
0.0
 11
196.2437801557999819
 21
-128.9274536000000069
 31
0.0
  0
LINE
  5
331
100
AcDbEntity
100
AcDbLine
  8
0
 62
256
370
-1
 48
1.0
  6
BYLAYER
 10
196.2437801557999819
 20
-128.9274536000000069
 30
0.0
 11
196.2437801557999819
 21
-133.8663565999999889
 31
0.0
  0
LINE
  5
332
100
AcDbEntity
100
AcDbLine
  8
0
 62
256
370
-1
 48
1.0
  6
BYLAYER
 10
196.2437801557999819
 20
-133.8663565999999889
 30
0.0
 11
198.5614793557999747
 21
-133.8663565999999889
 31
0.0
  0
LINE
  5
333
100
AcDbEntity
100
AcDbLine
  8
0
 62
256
370
-1
 48
1.0
  6
BYLAYER
 10
198.5614793557999747
 20
-133.8663565999999889
 30
0.0
 11
198.5614793557999747
 21
-137.8474510000000066
 31
0.0
  0
LINE
  5
334
100
AcDbEntity
100
AcDbLine
  8
0
 62
256
370
-1
 48
1.0
  6
BYLAYER
 10
198.5614793557999747
 20
-137.8474510000000066
 30
0.0
 11
196.2437801557999819
 21
-137.8474510000000066
 31
0.0
  0
LINE
  5
335
100
AcDbEntity
100
AcDbLine
  8
0
 62
256
370
-1
 48
1.0
  6
BYLAYER
 10
196.2437801557999819
 20
-137.8474510000000066
 30
0.0
 11
196.2437801557999819
 21
-142.844545399999987
 31
0.0
  0
LINE
  5
336
100
AcDbEntity
100
AcDbLine
  8
0
 62
256
370
-1
 48
1.0
  6
BYLAYER
 10
196.2437801557999819
 20
-142.844545399999987
 30
0.0
 11
203.0181887557999687
 21
-142.844545399999987
 31
0.0
  0
LINE
  5
337
100
AcDbEntity
100
AcDbLine
  8
0
 62
256
370
-1
 48
1.0
  6
BYLAYER
 10
203.0181887557999687
 20
-142.844545399999987
 30
0.0
 11
203.0181887557999687
 21
-147.9072480000000098
 31
0.0
  0
LINE
  5
338
100
AcDbEntity
100
AcDbLine
  8
0
 62
256
370
-1
 48
1.0
  6
BYLAYER
 10
203.0181887557999687
 20
-147.9072480000000098
 30
0.0
 11
204.0489893357999449
 21
-147.9072480000000098
 31
0.0
  0
LINE
  5
339
100
AcDbEntity
100
AcDbLine
  8
0
 62
256
370
-1
 48
1.0
  6
BYLAYER
 10
204.0489893357999449
 20
-147.9072480000000098
 30
0.0
 11
204.0489893357999449
 21
-147.9086479997399977
 31
0.0
  0
LINE
  5
33A
100
AcDbEntity
100
AcDbLine
  8
0
 62
256
370
-1
 48
1.0
  6
BYLAYER
 10
204.0489893357999449
 20
-147.9086479997399977
 30
0.0
 11
209.0442803357999537
 21
-147.9086479997399977
 31
0.0
  0
LINE
  5
33B
100
AcDbEntity
100
AcDbLine
  8
0
 62
256
370
-1
 48
1.0
  6
BYLAYER
 10
209.0442803357999537
 20
-147.9086479997399977
 30
0.0
 11
209.0442803357999537
 21
-142.8773397997399854
 31
0.0
  0
LINE
  5
33C
100
AcDbEntity
100
AcDbLine
  8
0
 62
256
370
-1
 48
1.0
  6
BYLAYER
 10
209.0442803357999537
 20
-142.8773397997399854
 30
0.0
 11
209.0400803441999358
 21
-142.8773397997399854
 31
0.0
  0
LINE
  5
33D
100
AcDbEntity
100
AcDbLine
  8
0
 62
256
370
-1
 48
1.0
  6
BYLAYER
 10
209.0400803441999358
 20
-142.8773397997399854
 30
0.0
 11
209.0400803441999358
 21
-142.8445397637399878
 31
0.0
  0
LINE
  5
33E
100
AcDbEntity
100
AcDbLine
  8
0
 62
256
370
-1
 48
1.0
  6
BYLAYER
 10
209.0400803441999358
 20
-142.8445397637399878
 30
0.0
 11
209.0442803357999537
 21
-142.8445397637399878
 31
0.0
  0
LINE
  5
33F
100
AcDbEntity
100
AcDbLine
  8
0
 62
256
370
-1
 48
1.0
  6
BYLAYER
 10
209.0442803357999537
 20
-142.8445397637399878
 30
0.0
 11
209.0442803357999537
 21
-137.8767315637399804
 31
0.0
  0
LINE
  5
340
100
AcDbEntity
100
AcDbLine
  8
0
 62
256
370
-1
 48
1.0
  6
BYLAYER
 10
209.0442803357999537
 20
-137.8767315637399804
 30
0.0
 11
209.0096804557999235
 21
-137.8767315637399804
 31
0.0
  0
LINE
  5
341
100
AcDbEntity
100
AcDbLine
  8
0
 62
256
370
-1
 48
1.0
  6
BYLAYER
 10
209.0096804557999235
 20
-137.8767315637399804
 30
0.0
 11
205.3566778557999157
 21
-116.8134259637399737
 31
0.0
  0
LINE
  5
342
100
AcDbEntity
100
AcDbLine
  8
0
 62
256
370
-1
 48
1.0
  6
BYLAYER
 10
205.3566778557999157
 20
-116.8134259637399737
 30
0.0
 11
197.2812812557998825
 21
-111.0490229637399864
 31
0.0
  0
LINE
  5
343
100
AcDbEntity
100
AcDbLine
  8
0
 62
256
370
-1
 48
1.0
  6
BYLAYER
 10
197.2812812557998825
 20
-111.0490229637399864
 30
0.0
 11
197.2812920000000076
 21
-111.0490539999999982
 31
0.0
  0
LINE
  5
344
100
AcDbEntity
100
AcDbLine
  8
0
 62
256
370
-1
 48
1.0
  6
BYLAYER
 10
201.3671359999999879
 20
-120.2900819999999982
 30
0.0
 11
202.2822370399999841
 21
-120.9528822999999988
 31
0.0
  0
LINE
  5
345
100
AcDbEntity
100
AcDbLine
  8
0
 62
256
370
-1
 48
1.0
  6
BYLAYER
 10
202.2822370399999841
 20
-120.9528822999999988
 30
0.0
 11
199.2973306399999842
 21
-125.0719748999999865
 31
0.0
  0
LINE
  5
346
100
AcDbEntity
100
AcDbLine
  8
0
 62
256
370
-1
 48
1.0
  6
BYLAYER
 10
199.2973306399999842
 20
-125.0719748999999865
 30
0.0
 11
198.3822295999999881
 21
-124.409075539999975
 31
0.0
  0
LINE
  5
347
100
AcDbEntity
100
AcDbLine
  8
0
 62
256
370
-1
 48
1.0
  6
BYLAYER
 10
198.3822295999999881
 20
-124.409075539999975
 30
0.0
 11
201.3671359999999879
 21
-120.290084539999981
 31
0.0
  0
LINE
  5
348
100
AcDbEntity
100
AcDbLine
  8
0
 62
256
370
-1
 48
1.0
  6
BYLAYER
 10
201.3671359999999879
 20
-120.290084539999981
 30
0.0
 11
201.3671359999999879
 21
-120.2900819999999982
 31
0.0
  0
ARC
  5
349
100
AcDbEntity
  8
0
 62
256
370
-1
 48
1.0
  6
BYLAYER
100
AcDbCircle
 10
13.9651003904292317
 20
-88.0383369812378476
 30
0.0
 40
2.1990560012228872
100
AcDbArc
 50
44.9581413698064196
 51
135.0308115759358429
  0
ARC
  5
34A
100
AcDbEntity
  8
0
 62
256
370
-1
 48
1.0
  6
BYLAYER
100
AcDbCircle
 10
13.9651724806392252
 20
-88.0395574993999759
 30
0.0
 40
2.1998675845739073
100
AcDbArc
 50
315.0180376429573244
 51
44.981962357042292
  0
ARC
  5
34B
100
AcDbEntity
  8
0
 62
256
370
-1
 48
1.0
  6
BYLAYER
100
AcDbCircle
 10
13.9654533999999995
 20
-88.0400980214057256
 30
0.0
 40
2.1992868033079898
100
AcDbArc
 50
224.9771753147406628
 51
315.0228246852593657
  0
ARC
  5
34C
100
AcDbEntity
  8
0
 62
256
370
-1
 48
1.0
  6
BYLAYER
100
AcDbCircle
 10
13.9652597080640088
 20
-88.0392050287602217
 30
0.0
 40
2.1997811117108115
100
AcDbArc
 50
135.017542160575573
 51
224.9971943417199896
  0
LINE
  5
34D
100
AcDbEntity
100
AcDbLine
  8
0
 62
256
370
-1
 48
1.0
  6
BYLAYER
 10
12.4093034008000007
 20
-86.4842011993999904
 30
0.0
 11
12.4092970000000005
 21
-86.4842060000000004
 31
0.0
  0
LINE
  5
34E
100
AcDbEntity
100
AcDbLine
  8
0
 62
256
370
-1
 48
1.0
  6
BYLAYER
 10
22.9475030000000011
 20
-91.0236940000000061
 30
0.0
 11
29.0423599999999986
 21
-91.0236940000000061
 31
0.0
  0
LINE
  5
34F
100
AcDbEntity
100
AcDbLine
  8
0
 62
256
370
-1
 48
1.0
  6
BYLAYER
 10
29.0423599999999986
 20
-91.0236940000000061
 30
0.0
 11
29.0423599999999986
 21
-85.0569799999999958
 31
0.0
  0
LINE
  5
350
100
AcDbEntity
100
AcDbLine
  8
0
 62
256
370
-1
 48
1.0
  6
BYLAYER
 10
29.0423599999999986
 20
-85.0569799999999958
 30
0.0
 11
22.9475030000000011
 21
-85.0569799999999958
 31
0.0
  0
LINE
  5
351
100
AcDbEntity
100
AcDbLine
  8
0
 62
256
370
-1
 48
1.0
  6
BYLAYER
 10
22.9475030000000011
 20
-85.0569799999999958
 30
0.0
 11
22.9475030000000011
 21
-91.0236940000000061
 31
0.0
  0
LINE
  5
352
100
AcDbEntity
100
AcDbLine
  8
0
 62
256
370
-1
 48
1.0
  6
BYLAYER
 10
-1.0167010400000001
 20
-91.0236940000000061
 30
0.0
 11
5.0781965999999992
 21
-91.0236940000000061
 31
0.0
  0
LINE
  5
353
100
AcDbEntity
100
AcDbLine
  8
0
 62
256
370
-1
 48
1.0
  6
BYLAYER
 10
5.0781965999999992
 20
-91.0236940000000061
 30
0.0
 11
5.0781965999999992
 21
-85.0569799999999958
 31
0.0
  0
LINE
  5
354
100
AcDbEntity
100
AcDbLine
  8
0
 62
256
370
-1
 48
1.0
  6
BYLAYER
 10
5.0781965999999992
 20
-85.0569799999999958
 30
0.0
 11
-1.0167010400000001
 21
-85.0569799999999958
 31
0.0
  0
LINE
  5
355
100
AcDbEntity
100
AcDbLine
  8
0
 62
256
370
-1
 48
1.0
  6
BYLAYER
 10
-1.0167010400000001
 20
-85.0569799999999958
 30
0.0
 11
-1.0167010400000001
 21
-91.0236940000000061
 31
0.0
  0
ARC
  5
356
100
AcDbEntity
  8
0
 62
256
370
-1
 48
1.0
  6
BYLAYER
100
AcDbCircle
 10
13.9650470000000038
 20
-59.1131946470551028
 30
0.0
 40
2.1989261182558408
100
AcDbArc
 50
44.9677689495320081
 51
135.0322310504682264
  0
ARC
  5
357
100
AcDbEntity
  8
0
 62
256
370
-1
 48
1.0
  6
BYLAYER
100
AcDbCircle
 10
13.9686944572458209
 20
-59.1145975264846868
 30
0.0
 40
2.1973398538744675
100
AcDbArc
 50
314.953873430543581
 51
45.0608630717517826
  0
ARC
  5
358
100
AcDbEntity
  8
0
 62
256
370
-1
 48
1.0
  6
BYLAYER
100
AcDbCircle
 10
13.9654469992000028
 20
-59.1153444255953886
 30
0.0
 40
2.1991075572584213
100
AcDbArc
 50
224.9725013062195842
 51
315.0274986937802169
  0
ARC
  5
359
100
AcDbEntity
  8
0
 62
256
370
-1
 48
1.0
  6
BYLAYER
100
AcDbCircle
 10
13.9657642124936405
 20
-59.1141977636576925
 30
0.0
 40
2.2001424700590042
100
AcDbArc
 50
135.0269484871600127
 51
224.9877880151354077
  0
LINE
  5
35A
100
AcDbEntity
100
AcDbLine
  8
0
 62
256
370
-1
 48
1.0
  6
BYLAYER
 10
12.4092970000000005
 20
-57.5591939999999909
 30
0.0
 11
12.4092970000000005
 21
-57.5591939999999909
 31
0.0
  0
LINE
  5
35B
100
AcDbEntity
100
AcDbLine
  8
0
 62
256
370
-1
 48
1.0
  6
BYLAYER
 10
22.948493599999999
 20
-62.0984279999999984
 30
0.0
 11
29.0421059999999969
 21
-62.0984279999999984
 31
0.0
  0
LINE
  5
35C
100
AcDbEntity
100
AcDbLine
  8
0
 62
256
370
-1
 48
1.0
  6
BYLAYER
 10
29.0421059999999969
 20
-62.0984279999999984
 30
0.0
 11
29.0421059999999969
 21
-56.1301899999999918
 31
0.0
  0
LINE
  5
35D
100
AcDbEntity
100
AcDbLine
  8
0
 62
256
370
-1
 48
1.0
  6
BYLAYER
 10
29.0421059999999969
 20
-56.1301899999999918
 30
0.0
 11
22.948493599999999
 21
-56.1301899999999918
 31
0.0
  0
LINE
  5
35E
100
AcDbEntity
100
AcDbLine
  8
0
 62
256
370
-1
 48
1.0
  6
BYLAYER
 10
22.948493599999999
 20
-56.1301899999999918
 30
0.0
 11
22.948493599999999
 21
-62.0984279999999984
 31
0.0
  0
LINE
  5
35F
100
AcDbEntity
100
AcDbLine
  8
0
 62
256
370
-1
 48
1.0
  6
BYLAYER
 10
-1.01529896
 20
-62.0984279999999984
 30
0.0
 11
5.0781965999999992
 21
-62.0984279999999984
 31
0.0
  0
LINE
  5
360
100
AcDbEntity
100
AcDbLine
  8
0
 62
256
370
-1
 48
1.0
  6
BYLAYER
 10
5.0781965999999992
 20
-62.0984279999999984
 30
0.0
 11
5.0781965999999992
 21
-56.1301899999999918
 31
0.0
  0
LINE
  5
361
100
AcDbEntity
100
AcDbLine
  8
0
 62
256
370
-1
 48
1.0
  6
BYLAYER
 10
5.0781965999999992
 20
-56.1301899999999918
 30
0.0
 11
-1.01529896
 21
-56.1301899999999918
 31
0.0
  0
LINE
  5
362
100
AcDbEntity
100
AcDbLine
  8
0
 62
256
370
-1
 48
1.0
  6
BYLAYER
 10
-1.01529896
 20
-56.1301899999999918
 30
0.0
 11
-1.01529896
 21
-62.0984279999999984
 31
0.0
  0
LINE
  5
363
100
AcDbEntity
100
AcDbLine
  8
0
 62
256
370
-1
 48
1.0
  6
BYLAYER
 10
224.5083139999999844
 20
-111.2240599999999944
 30
0.0
 11
234.5695079999999848
 21
-125.3076487999999813
 31
0.0
  0
LINE
  5
364
100
AcDbEntity
100
AcDbLine
  8
0
 62
256
370
-1
 48
1.0
  6
BYLAYER
 10
234.5695079999999848
 20
-125.3076487999999813
 30
0.0
 11
242.6999971999999843
 21
-140.1917439999999715
 31
0.0
  0
LINE
  5
365
100
AcDbEntity
100
AcDbLine
  8
0
 62
256
370
-1
 48
1.0
  6
BYLAYER
 10
242.6999971999999843
 20
-140.1917439999999715
 30
0.0
 11
242.6999971999999843
 21
-148.08794359999996
 31
0.0
  0
LINE
  5
366
100
AcDbEntity
100
AcDbLine
  8
0
 62
256
370
-1
 48
1.0
  6
BYLAYER
 10
242.6999971999999843
 20
-148.08794359999996
 30
0.0
 11
242.6833972077999704
 21
-148.08794359999996
 31
0.0
  0
LINE
  5
367
100
AcDbEntity
100
AcDbLine
  8
0
 62
256
370
-1
 48
1.0
  6
BYLAYER
 10
242.6833972077999704
 20
-148.08794359999996
 30
0.0
 11
242.6833972077999704
 21
-148.0932435893999752
 31
0.0
  0
LINE
  5
368
100
AcDbEntity
100
AcDbLine
  8
0
 62
256
370
-1
 48
1.0
  6
BYLAYER
 10
242.6833972077999704
 20
-148.0932435893999752
 30
0.0
 11
237.7389062077999711
 21
-148.0932435893999752
 31
0.0
  0
LINE
  5
369
100
AcDbEntity
100
AcDbLine
  8
0
 62
256
370
-1
 48
1.0
  6
BYLAYER
 10
237.7389062077999711
 20
-148.0932435893999752
 30
0.0
 11
237.7389062077999711
 21
-148.08794359999996
 31
0.0
  0
LINE
  5
36A
100
AcDbEntity
100
AcDbLine
  8
0
 62
256
370
-1
 48
1.0
  6
BYLAYER
 10
237.7389062077999711
 20
-148.08794359999996
 30
0.0
 11
236.6805059877999611
 21
-148.08794359999996
 31
0.0
  0
LINE
  5
36B
100
AcDbEntity
100
AcDbLine
  8
0
 62
256
370
-1
 48
1.0
  6
BYLAYER
 10
236.6805059877999611
 20
-148.08794359999996
 30
0.0
 11
236.6805059877999611
 21
-143.021049999999974
 31
0.0
  0
LINE
  5
36C
100
AcDbEntity
100
AcDbLine
  8
0
 62
256
370
-1
 48
1.0
  6
BYLAYER
 10
236.6805059877999611
 20
-143.021049999999974
 30
0.0
 11
229.9805955877999679
 21
-143.021049999999974
 31
0.0
  0
LINE
  5
36D
100
AcDbEntity
100
AcDbLine
  8
0
 62
256
370
-1
 48
1.0
  6
BYLAYER
 10
229.9805955877999679
 20
-143.021049999999974
 30
0.0
 11
229.9805955877999679
 21
-138.0239555999999652
 31
0.0
  0
LINE
  5
36E
100
AcDbEntity
100
AcDbLine
  8
0
 62
256
370
-1
 48
1.0
  6
BYLAYER
 10
229.9805955877999679
 20
-138.0239555999999652
 30
0.0
 11
232.2488943277999738
 21
-138.0239555999999652
 31
0.0
  0
LINE
  5
36F
100
AcDbEntity
100
AcDbLine
  8
0
 62
256
370
-1
 48
1.0
  6
BYLAYER
 10
232.2488943277999738
 20
-138.0239555999999652
 30
0.0
 11
232.2488943277999738
 21
-134.0414641999999787
 31
0.0
  0
LINE
  5
370
100
AcDbEntity
100
AcDbLine
  8
0
 62
256
370
-1
 48
1.0
  6
BYLAYER
 10
232.2488943277999738
 20
-134.0414641999999787
 30
0.0
 11
229.9805955877999679
 21
-134.0414641999999787
 31
0.0
  0
LINE
  5
371
100
AcDbEntity
100
AcDbLine
  8
0
 62
256
370
-1
 48
1.0
  6
BYLAYER
 10
229.9805955877999679
 20
-134.0414641999999787
 30
0.0
 11
229.9805955877999679
 21
-129.1025611999999683
 31
0.0
  0
LINE
  5
372
100
AcDbEntity
100
AcDbLine
  8
0
 62
256
370
-1
 48
1.0
  6
BYLAYER
 10
229.9805955877999679
 20
-129.1025611999999683
 30
0.0
 11
225.5460857877999388
 21
-129.1025611999999683
 31
0.0
  0
LINE
  5
373
100
AcDbEntity
100
AcDbLine
  8
0
 62
256
370
-1
 48
1.0
  6
BYLAYER
 10
225.5460857877999388
 20
-129.1025611999999683
 30
0.0
 11
225.5460857877999388
 21
-134.0414641999999787
 31
0.0
  0
LINE
  5
374
100
AcDbEntity
100
AcDbLine
  8
0
 62
256
370
-1
 48
1.0
  6
BYLAYER
 10
225.5460857877999388
 20
-134.0414641999999787
 30
0.0
 11
223.2279852677999372
 21
-134.0414641999999787
 31
0.0
  0
LINE
  5
375
100
AcDbEntity
100
AcDbLine
  8
0
 62
256
370
-1
 48
1.0
  6
BYLAYER
 10
223.2279852677999372
 20
-134.0414641999999787
 30
0.0
 11
223.2279852677999372
 21
-138.0239555999999652
 31
0.0
  0
LINE
  5
376
100
AcDbEntity
100
AcDbLine
  8
0
 62
256
370
-1
 48
1.0
  6
BYLAYER
 10
223.2279852677999372
 20
-138.0239555999999652
 30
0.0
 11
225.5460857877999388
 21
-138.0239555999999652
 31
0.0
  0
LINE
  5
377
100
AcDbEntity
100
AcDbLine
  8
0
 62
256
370
-1
 48
1.0
  6
BYLAYER
 10
225.5460857877999388
 20
-138.0239555999999652
 30
0.0
 11
225.5460857877999388
 21
-143.021049999999974
 31
0.0
  0
LINE
  5
378
100
AcDbEntity
100
AcDbLine
  8
0
 62
256
370
-1
 48
1.0
  6
BYLAYER
 10
225.5460857877999388
 20
-143.021049999999974
 30
0.0
 11
218.7717787877999456
 21
-143.021049999999974
 31
0.0
  0
LINE
  5
379
100
AcDbEntity
100
AcDbLine
  8
0
 62
256
370
-1
 48
1.0
  6
BYLAYER
 10
218.7717787877999456
 20
-143.021049999999974
 30
0.0
 11
218.7717787877999456
 21
-148.0837525999999684
 31
0.0
  0
LINE
  5
37A
100
AcDbEntity
100
AcDbLine
  8
0
 62
256
370
-1
 48
1.0
  6
BYLAYER
 10
218.7717787877999456
 20
-148.0837525999999684
 30
0.0
 11
212.7441809877999503
 21
-148.0837525999999684
 31
0.0
  0
LINE
  5
37B
100
AcDbEntity
100
AcDbLine
  8
0
 62
256
370
-1
 48
1.0
  6
BYLAYER
 10
212.7441809877999503
 20
-148.0837525999999684
 30
0.0
 11
212.7441809877999503
 21
-143.0538413999999818
 31
0.0
  0
LINE
  5
37C
100
AcDbEntity
100
AcDbLine
  8
0
 62
256
370
-1
 48
1.0
  6
BYLAYER
 10
212.7441809877999503
 20
-143.0538413999999818
 30
0.0
 11
212.7480809799999406
 21
-143.0538413999999818
 31
0.0
  0
LINE
  5
37D
100
AcDbEntity
100
AcDbLine
  8
0
 62
256
370
-1
 48
1.0
  6
BYLAYER
 10
212.7480809799999406
 20
-143.0538413999999818
 30
0.0
 11
212.7480809799999406
 21
-143.0210413639999842
 31
0.0
  0
LINE
  5
37E
100
AcDbEntity
100
AcDbLine
  8
0
 62
256
370
-1
 48
1.0
  6
BYLAYER
 10
212.7480809799999406
 20
-143.0210413639999842
 30
0.0
 11
212.7441809877999503
 21
-143.0210413639999842
 31
0.0
  0
LINE
  5
37F
100
AcDbEntity
100
AcDbLine
  8
0
 62
256
370
-1
 48
1.0
  6
BYLAYER
 10
212.7441809877999503
 20
-143.0210413639999842
 30
0.0
 11
212.7441809877999503
 21
-138.0531315639999832
 31
0.0
  0
LINE
  5
380
100
AcDbEntity
100
AcDbLine
  8
0
 62
256
370
-1
 48
1.0
  6
BYLAYER
 10
212.7441809877999503
 20
-138.0531315639999832
 30
0.0
 11
212.77838107179997
 21
-138.0531315639999832
 31
0.0
  0
LINE
  5
381
100
AcDbEntity
100
AcDbLine
  8
0
 62
256
370
-1
 48
1.0
  6
BYLAYER
 10
212.77838107179997
 20
-138.0531315639999832
 30
0.0
 11
216.4317900717999521
 21
-116.9884289639999793
 31
0.0
  0
LINE
  5
382
100
AcDbEntity
100
AcDbLine
  8
0
 62
256
370
-1
 48
1.0
  6
BYLAYER
 10
216.4317900717999521
 20
-116.9884289639999793
 30
0.0
 11
224.5082788717999165
 21
-111.224025963999992
 31
0.0
  0
LINE
  5
383
100
AcDbEntity
100
AcDbLine
  8
0
 62
256
370
-1
 48
1.0
  6
BYLAYER
 10
224.5082788717999165
 20
-111.224025963999992
 30
0.0
 11
224.5083139999999844
 21
-111.2240599999999944
 31
0.0
  0
LINE
  5
384
100
AcDbEntity
100
AcDbLine
  8
0
 62
256
370
-1
 48
1.0
  6
BYLAYER
 10
220.4209459999999865
 20
-120.4650879999999944
 30
0.0
 11
219.5076458199999649
 21
-121.1292878400000035
 31
0.0
  0
LINE
  5
385
100
AcDbEntity
100
AcDbLine
  8
0
 62
256
370
-1
 48
1.0
  6
BYLAYER
 10
219.5076458199999649
 20
-121.1292878400000035
 30
0.0
 11
222.4920442199999684
 21
-125.2483804400000196
 31
0.0
  0
LINE
  5
386
100
AcDbEntity
100
AcDbLine
  8
0
 62
256
370
-1
 48
1.0
  6
BYLAYER
 10
222.4920442199999684
 20
-125.2483804400000196
 30
0.0
 11
223.4072443199999611
 21
-124.5840815399999997
 31
0.0
  0
LINE
  5
387
100
AcDbEntity
100
AcDbLine
  8
0
 62
256
370
-1
 48
1.0
  6
BYLAYER
 10
223.4072443199999611
 20
-124.5840815399999997
 30
0.0
 11
220.4209409199999641
 21
-120.4650905400000056
 31
0.0
  0
LINE
  5
388
100
AcDbEntity
100
AcDbLine
  8
0
 62
256
370
-1
 48
1.0
  6
BYLAYER
 10
220.4209409199999641
 20
-120.4650905400000056
 30
0.0
 11
220.4209459999999865
 21
-120.4650879999999944
 31
0.0
  0
ENDSEC
  0
SECTION
  2
OBJECTS
  0
DICTIONARY
  5
C
100
AcDbDictionary
280
0
281
1
  3
ACAD_GROUP
350
D
  3
ACAD_LAYOUT
350
1A
  3
ACAD_MLINESTYLE
350
17
  3
ACAD_PLOTSETTINGS
350
19
  3
ACAD_PLOTSTYLENAME
350
E
  3
AcDbVariableDictionary
350
389
  3
QCAD_OBJECTS
350
38A
  0
DICTIONARY
  5
D
100
AcDbDictionary
280
0
281
1
  0
ACDBDICTIONARYWDFLT
  5
E
100
AcDbDictionary
281
1
  3
Normal
350
F
100
AcDbDictionaryWithDefault
340
F
  0
ACDBPLACEHOLDER
  5
F
  0
DICTIONARY
  5
17
100
AcDbDictionary
280
0
281
1
  3
Standard
350
18
  0
MLINESTYLE
  5
18
100
AcDbMlineStyle
  2
STANDARD
 70
0
  3

 62
256
 51
90.0
 52
90.0
 71
2
 49
0.5
 62
256
  6
BYLAYER
 49
-0.5
 62
256
  6
BYLAYER
  0
DICTIONARY
  5
19
100
AcDbDictionary
280
0
281
1
  0
DICTIONARY
  5
1A
100
AcDbDictionary
281
1
  3
Layout1
350
1E
  3
Layout2
350
26
  3
Model
350
22
  0
LAYOUT
  5
1E
100
AcDbPlotSettings
  1

  2
none_device
  4

  6

 40
0.0
 41
0.0
 42
0.0
 43
0.0
 44
0.0
 45
0.0
 46
0.0
 47
0.0
 48
0.0
 49
0.0
140
0.0
141
0.0
142
1.0
143
1.0
 70
688
 72
0
 73
0
 74
5
  7

 75
16
147
1.0
148
0.0
149
0.0
100
AcDbLayout
  1
Layout1
 70
1
 71
1
 10
0.0
 20
0.0
 11
420.0
 21
297.0
 12
0.0
 22
0.0
 32
0.0
 14
100000000000000000000.0
 24
100000000000000000000.0
 34
100000000000000000000.0
 15
-100000000000000000000.0
 25
-100000000000000000000.0
 35
-100000000000000000000.0
146
0.0
 13
0.0
 23
0.0
 33
0.0
 16
1.0
 26
0.0
 36
0.0
 17
0.0
 27
1.0
 37
0.0
 76
0
330
1B
  0
LAYOUT
  5
22
100
AcDbPlotSettings
  1

  2
none_device
  4

  6

 40
0.0
 41
0.0
 42
0.0
 43
0.0
 44
0.0
 45
0.0
 46
0.0
 47
0.0
 48
0.0
 49
0.0
140
0.0
141
0.0
142
1.0
143
1.0
 70
1712
 72
0
 73
0
 74
0
  7

 75
0
147
1.0
148
0.0
149
0.0
100
AcDbLayout
  1
Model
 70
1
 71
0
 10
0.0
 20
0.0
 11
12.0
 21
9.0
 12
0.0
 22
0.0
 32
0.0
 14
0.0
 24
0.0
 34
0.0
 15
0.0
 25
0.0
 35
0.0
146
0.0
 13
0.0
 23
0.0
 33
0.0
 16
1.0
 26
0.0
 36
0.0
 17
0.0
 27
1.0
 37
0.0
 76
0
330
1F
  0
LAYOUT
  5
26
100
AcDbPlotSettings
  1

  2
none_device
  4

  6

 40
0.0
 41
0.0
 42
0.0
 43
0.0
 44
0.0
 45
0.0
 46
0.0
 47
0.0
 48
0.0
 49
0.0
140
0.0
141
0.0
142
1.0
143
1.0
 70
688
 72
0
 73
0
 74
5
  7

 75
16
147
1.0
148
0.0
149
0.0
100
AcDbLayout
  1
Layout2
 70
1
 71
2
 10
0.0
 20
0.0
 11
12.0
 21
9.0
 12
0.0
 22
0.0
 32
0.0
 14
0.0
 24
0.0
 34
0.0
 15
0.0
 25
0.0
 35
0.0
146
0.0
 13
0.0
 23
0.0
 33
0.0
 16
1.0
 26
0.0
 36
0.0
 17
0.0
 27
1.0
 37
0.0
 76
0
330
23
  0
DICTIONARY
  5
389
100
AcDbDictionary
281
1
  3
DIMASSOC
350
38C
  3
HIDETEXT
350
38B
  0
DICTIONARYVAR
  5
38B
100
DictionaryVariables
280
0
  1
2
  0
DICTIONARYVAR
  5
38C
100
DictionaryVariables
280
0
  1
1
  0
DICTIONARY
  5
38A
100
AcDbDictionary
281
1
  3
ColorSettings/BackgroundColor
350
38D
  3
ColorSettings/ColorMode
350
38E
  3
Grid/DisplayGrid00
350
38F
  3
Grid/DisplayGrid01
350
390
  3
Grid/DisplayGrid02
350
391
  3
Grid/DisplayGrid03
350
392
  3
Grid/GridSpacingX00
350
393
  3
Grid/GridSpacingX01
350
394
  3
Grid/GridSpacingX02
350
395
  3
Grid/GridSpacingX03
350
396
  3
Grid/GridSpacingY00
350
397
  3
Grid/GridSpacingY01
350
398
  3
Grid/GridSpacingY02
350
399
  3
Grid/GridSpacingY03
350
39A
  3
Grid/IsometricGrid00
350
39B
  3
Grid/IsometricGrid01
350
39C
  3
Grid/IsometricGrid02
350
39D
  3
Grid/IsometricGrid03
350
39E
  3
Grid/IsometricProjection00
350
39F
  3
Grid/IsometricProjection01
350
3A0
  3
Grid/IsometricProjection02
350
3A1
  3
Grid/IsometricProjection03
350
3A2
  3
Grid/MetaGridSpacingX00
350
3A3
  3
Grid/MetaGridSpacingX01
350
3A4
  3
Grid/MetaGridSpacingX02
350
3A5
  3
Grid/MetaGridSpacingX03
350
3A6
  3
Grid/MetaGridSpacingY00
350
3A7
  3
Grid/MetaGridSpacingY01
350
3A8
  3
Grid/MetaGridSpacingY02
350
3A9
  3
Grid/MetaGridSpacingY03
350
3AA
  3
MultiPageSettings/Columns
350
3AB
  3
MultiPageSettings/GlueMarginsBottom
350
3AC
  3
MultiPageSettings/GlueMarginsLeft
350
3AD
  3
MultiPageSettings/GlueMarginsRight
350
3AE
  3
MultiPageSettings/GlueMarginsTop
350
3AF
  3
MultiPageSettings/PrintCropMarks
350
3B0
  3
MultiPageSettings/Rows
350
3B1
  3
PageSettings/OffsetX
350
3B2
  3
PageSettings/OffsetY
350
3B3
  3
PageSettings/PageOrientation
350
3B4
  3
PageSettings/PaperHeight
350
3B5
  3
PageSettings/PaperWidth
350
3B6
  3
PageSettings/Scale
350
3B7
  3
PageSettings/ShowPaperBorders
350
3B8
  3
UnitSettings/PaperUnit
350
3B9
  3
ViewportCenter
350
3BA
  3
ViewportHeight
350
3BB
  3
ViewportWidth
350
3BC
  0
XRECORD
  5
38D
330
38A
100
AcDbXrecord
280
1
1000
White
  0
XRECORD
  5
38E
330
38A
100
AcDbXrecord
280
1
1000
FullColor
  0
XRECORD
  5
38F
330
38A
100
AcDbXrecord
280
1
290
1
  0
XRECORD
  5
390
330
38A
100
AcDbXrecord
280
1
290
1
  0
XRECORD
  5
391
330
38A
100
AcDbXrecord
280
1
290
1
  0
XRECORD
  5
392
330
38A
100
AcDbXrecord
280
1
290
1
  0
XRECORD
  5
393
330
38A
100
AcDbXrecord
280
1
1000
auto
  0
XRECORD
  5
394
330
38A
100
AcDbXrecord
280
1
1000
auto
  0
XRECORD
  5
395
330
38A
100
AcDbXrecord
280
1
1000
auto
  0
XRECORD
  5
396
330
38A
100
AcDbXrecord
280
1
1000
auto
  0
XRECORD
  5
397
330
38A
100
AcDbXrecord
280
1
1000
auto
  0
XRECORD
  5
398
330
38A
100
AcDbXrecord
280
1
1000
auto
  0
XRECORD
  5
399
330
38A
100
AcDbXrecord
280
1
1000
auto
  0
XRECORD
  5
39A
330
38A
100
AcDbXrecord
280
1
1000
auto
  0
XRECORD
  5
39B
330
38A
100
AcDbXrecord
280
1
290
0
  0
XRECORD
  5
39C
330
38A
100
AcDbXrecord
280
1
290
0
  0
XRECORD
  5
39D
330
38A
100
AcDbXrecord
280
1
290
0
  0
XRECORD
  5
39E
330
38A
100
AcDbXrecord
280
1
290
0
  0
XRECORD
  5
39F
330
38A
100
AcDbXrecord
280
1
 90
0
  0
XRECORD
  5
3A0
330
38A
100
AcDbXrecord
280
1
 90
0
  0
XRECORD
  5
3A1
330
38A
100
AcDbXrecord
280
1
 90
0
  0
XRECORD
  5
3A2
330
38A
100
AcDbXrecord
280
1
 90
0
  0
XRECORD
  5
3A3
330
38A
100
AcDbXrecord
280
1
1000
auto
  0
XRECORD
  5
3A4
330
38A
100
AcDbXrecord
280
1
1000
auto
  0
XRECORD
  5
3A5
330
38A
100
AcDbXrecord
280
1
1000
auto
  0
XRECORD
  5
3A6
330
38A
100
AcDbXrecord
280
1
1000
auto
  0
XRECORD
  5
3A7
330
38A
100
AcDbXrecord
280
1
1000
auto
  0
XRECORD
  5
3A8
330
38A
100
AcDbXrecord
280
1
1000
auto
  0
XRECORD
  5
3A9
330
38A
100
AcDbXrecord
280
1
1000
auto
  0
XRECORD
  5
3AA
330
38A
100
AcDbXrecord
280
1
1000
auto
  0
XRECORD
  5
3AB
330
38A
100
AcDbXrecord
280
1
 90
1
  0
XRECORD
  5
3AC
330
38A
100
AcDbXrecord
280
1
 40
10.0
  0
XRECORD
  5
3AD
330
38A
100
AcDbXrecord
280
1
 40
10.0
  0
XRECORD
  5
3AE
330
38A
100
AcDbXrecord
280
1
 40
10.0
  0
XRECORD
  5
3AF
330
38A
100
AcDbXrecord
280
1
 40
10.0
  0
XRECORD
  5
3B0
330
38A
100
AcDbXrecord
280
1
290
0
  0
XRECORD
  5
3B1
330
38A
100
AcDbXrecord
280
1
 90
1
  0
XRECORD
  5
3B2
330
38A
100
AcDbXrecord
280
1
 40
0.0
  0
XRECORD
  5
3B3
330
38A
100
AcDbXrecord
280
1
 40
0.0
  0
XRECORD
  5
3B4
330
38A
100
AcDbXrecord
280
1
1000
Portrait
  0
XRECORD
  5
3B5
330
38A
100
AcDbXrecord
280
1
 40
297.0
  0
XRECORD
  5
3B6
330
38A
100
AcDbXrecord
280
1
 40
210.0
  0
XRECORD
  5
3B7
330
38A
100
AcDbXrecord
280
1
1000
1:1
  0
XRECORD
  5
3B8
330
38A
100
AcDbXrecord
280
1
290
1
  0
XRECORD
  5
3B9
330
38A
100
AcDbXrecord
280
1
 90
4
  0
XRECORD
  5
3BB
330
38A
100
AcDbXrecord
280
1
 40
294.1463835629556343
  0
XRECORD
  5
3BC
330
38A
100
AcDbXrecord
280
1
 40
777.0937016919014013
  0
ENDSEC
  0
EOF
